<svg width="488" height="127" viewBox="0 0 488 127" fill="none" xmlns="http://www.w3.org/2000/svg">
<path d="M208.28 79.6054L212.48 86.9054L241.91 73.8054L244.91 78.4554C244.91 78.4554 214.35 108.875 212.52 108.455C210.69 108.035 198.71 86.7754 198.71 86.7754L208.28 79.6054Z" fill="url(#paint0_linear)"/>
<path d="M197.44 51.6954L210.67 77.6054L199.13 87.7454L197.44 51.6954Z" fill="#DEF6D1"/>
<path opacity="0.69" d="M197.44 51.6954L210.67 77.6054L199.13 87.7454L197.44 51.6954Z" fill="url(#paint1_linear)"/>
<path d="M223.16 100.515L230.3 51.6954L258.84 51.3154L249.45 100.895L223.16 100.515Z" fill="#DEF6D1"/>
<path d="M302.87 86.68H471.01C473.183 86.6813 475.335 86.2545 477.343 85.4238C479.351 84.5932 481.175 83.3751 482.712 81.8391C484.249 80.3031 485.468 78.4793 486.3 76.4719C487.132 74.4645 487.56 72.3129 487.56 70.14C487.56 60.9449 483.907 52.1265 477.405 45.6246C470.904 39.1227 462.085 35.47 452.89 35.47H438.71C438.71 26.2776 435.058 17.4617 428.558 10.9617C422.058 4.46167 413.242 0.809999 404.05 0.809999H381.18C376.628 0.808686 372.119 1.70422 367.913 3.44546C363.707 5.1867 359.885 7.73953 356.665 10.9581C353.446 14.1768 350.892 17.9981 349.149 22.2039C347.407 26.4097 346.51 30.9175 346.51 35.47V42.56H327.18C318.201 42.562 309.573 46.0475 303.112 52.2828C296.651 58.518 292.861 67.0167 292.54 75.99C292.49 77.3769 292.721 78.7596 293.218 80.0554C293.715 81.3511 294.468 82.5333 295.432 83.5313C296.397 84.5293 297.552 85.3225 298.83 85.8635C300.108 86.4045 301.482 86.6822 302.87 86.68Z" fill="#DEF6D1"/>
<path d="M110.69 86.68H8.68999C7.6215 86.6813 6.56323 86.472 5.5757 86.064C4.58817 85.656 3.69075 85.0574 2.93475 84.3023C2.17875 83.5472 1.579 82.6506 1.1698 81.6635C0.760608 80.6765 0.549987 79.6185 0.549988 78.55V76.82C0.549978 71.3449 2.72221 66.0935 6.58994 62.2182C10.4577 58.343 15.7049 56.1606 21.18 56.15H29.68C29.68 50.6671 31.8574 45.4085 35.7335 41.5306C39.6096 37.6526 44.867 35.4727 50.35 35.47H63.98C66.6953 35.47 69.3839 36.005 71.8924 37.0444C74.4008 38.0838 76.6799 39.6072 78.5994 41.5276C80.5189 43.4481 82.0413 45.7279 83.0795 48.2369C84.1176 50.7458 84.6513 53.4347 84.65 56.15V60.37H96.18C101.535 60.3717 106.681 62.451 110.535 66.17C114.388 69.8891 116.648 74.958 116.84 80.31C116.87 81.136 116.732 81.9594 116.437 82.7311C116.141 83.5029 115.692 84.207 115.118 84.8016C114.544 85.3962 113.856 85.869 113.095 86.1917C112.335 86.5145 111.516 86.6805 110.69 86.68Z" fill="#DEF6D1"/>
<path d="M117.04 126.87H120.77V124.69C120.762 119.343 118.634 114.217 114.854 110.436C111.073 106.656 105.947 104.528 100.6 104.52H81.18C77.0566 104.512 73.1045 102.87 70.1897 99.9532C67.275 97.0366 65.6353 93.0834 65.63 88.96V85.9H61.9V88.96C61.9053 94.0727 63.9379 98.9746 67.5522 102.591C71.1665 106.207 76.0673 108.242 81.18 108.25H100.61C104.969 108.253 109.149 109.986 112.232 113.068C115.314 116.151 117.047 120.331 117.05 124.69L117.04 126.87Z" fill="#DEF6D1"/>
<path d="M155 70.6054V126.605H201.19V66.8054C201.19 66.8054 201.66 47.4654 191.52 48.3154C181.38 49.1654 159.31 44.6054 155 70.6054Z" fill="#DEF6D1"/>
<path opacity="0.69" d="M155 70.6054V126.605H201.19V66.8054C201.19 66.8054 201.66 47.4654 191.52 48.3154C181.38 49.1654 159.31 44.6054 155 70.6054Z" fill="url(#paint2_linear)"/>
<path d="M178.48 31.4054C178.958 28.5438 179.798 25.7547 180.98 23.1054C182.183 20.8427 183.952 18.9307 186.115 17.5566C188.278 16.1824 190.761 15.3929 193.32 15.2654C193.94 15.2233 194.562 15.267 195.17 15.3954C195.823 15.5631 196.445 15.8368 197.01 16.2054C198.403 17.1757 199.59 18.4138 200.5 19.8474C201.41 21.281 202.025 22.8814 202.31 24.5554C202.854 27.9016 202.938 31.3064 202.56 34.6754C202.31 38.3554 201.64 42.6754 198.36 44.3454C196.08 45.4954 193.36 44.9054 190.89 44.1454C190.644 44.0316 190.376 43.9726 190.105 43.9726C189.834 43.9726 189.566 44.0316 189.32 44.1454C189.148 44.2983 189.007 44.4841 188.908 44.6919C188.808 44.8996 188.751 45.1252 188.74 45.3554C188.18 48.9354 189.33 52.6554 188.51 56.1754C188.458 56.5815 188.317 56.9712 188.098 57.3169C187.878 57.6625 187.585 57.9556 187.24 58.1754C186.593 58.4041 185.887 58.4041 185.24 58.1754C182.015 57.3397 179.042 55.7298 176.58 53.4854C175.58 52.5554 172.95 50.9454 172.58 49.6254C172.21 48.3054 174.1 45.4554 174.58 44.1554C176.185 40.0046 177.488 35.7435 178.48 31.4054Z" fill="url(#paint3_linear)"/>
<path opacity="0.69" d="M155.48 70.6554L169.75 97.6554L184.96 86.3954C184.96 86.3954 173.68 58.2654 171.48 57.1354C169.28 56.0054 163.87 52.6354 161.34 56.2954C158.81 59.9554 155 65.8654 155.48 70.6554Z" fill="url(#paint4_linear)"/>
<path d="M173.21 95.9154C173.21 95.9154 179.41 106.915 182.21 107.185C185.01 107.455 225.03 89.9954 225.03 89.9954L231.23 87.9954C231.23 87.9954 232.64 81.2354 232.92 79.8254C233.2 78.4154 235.45 73.6354 232.35 73.0654C229.25 72.4954 224.48 76.4754 224.48 76.4754L222.22 82.1154L188.42 92.5354L184.95 86.4354L173.21 95.9154Z" fill="url(#paint5_linear)"/>
<path d="M209.25 16.3954C210.66 13.1754 209.38 8.68537 206.03 7.60537C203.27 6.70537 200.34 8.27537 197.44 8.33537C194.97 8.33537 192.61 7.33537 190.16 7.04537C187.257 6.79579 184.359 7.58158 181.98 9.26358C179.6 10.9456 177.893 13.4153 177.16 16.2354C177.031 17.1076 176.786 17.9586 176.43 18.7654C175.43 20.5754 172.87 21.3254 172.37 23.3354C172.224 24.3237 172.363 25.333 172.77 26.2454L175.95 35.7154C176.31 36.7754 177.12 38.0754 178.18 37.7154C178.77 37.5154 179.05 36.8554 179.27 36.2554L181.4 30.3254C183.32 30.1554 182.9 34.6254 184.81 34.3254C186.05 34.1254 185.81 32.3254 185.5 31.0654C185.36 30.2404 185.384 29.3959 185.571 28.5803C185.758 27.7647 186.105 26.9942 186.591 26.313C187.077 25.6319 187.693 25.0535 188.403 24.6111C189.114 24.1687 189.904 23.8711 190.73 23.7354C191.66 23.7503 192.584 23.5979 193.46 23.2854C194.001 22.8787 194.565 22.5047 195.15 22.1654C197.5 21.2854 199.99 23.2554 202.67 22.2354C205.533 21.2079 207.89 19.1162 209.25 16.3954Z" fill="#3F3D56"/>
<defs>
<linearGradient id="paint0_linear" x1="198.7" y1="91.1254" x2="244.9" y2="91.1254" gradientUnits="userSpaceOnUse">
<stop stop-color="#ECC4D7"/>
<stop offset="0.42" stop-color="#EFD4D1"/>
<stop offset="1" stop-color="#F2EAC9"/>
</linearGradient>
<linearGradient id="paint1_linear" x1="197.44" y1="69.7154" x2="210.67" y2="69.7154" gradientUnits="userSpaceOnUse">
<stop offset="0.02" stop-color="white" stop-opacity="0"/>
<stop offset="0.58" stop-color="white" stop-opacity="0.39"/>
<stop offset="0.68" stop-color="white" stop-opacity="0.68"/>
<stop offset="1" stop-color="white"/>
</linearGradient>
<linearGradient id="paint2_linear" x1="9741.05" y1="6767.91" x2="11874.7" y2="6767.91" gradientUnits="userSpaceOnUse">
<stop offset="0.02" stop-color="white" stop-opacity="0"/>
<stop offset="0.58" stop-color="white" stop-opacity="0.39"/>
<stop offset="0.68" stop-color="white" stop-opacity="0.68"/>
<stop offset="1" stop-color="white"/>
</linearGradient>
<linearGradient id="paint3_linear" x1="6983.95" y1="1531.41" x2="7898.39" y2="1531.41" gradientUnits="userSpaceOnUse">
<stop stop-color="#ECC4D7"/>
<stop offset="0.42" stop-color="#EFD4D1"/>
<stop offset="1" stop-color="#F2EAC9"/>
</linearGradient>
<linearGradient id="paint4_linear" x1="6298.53" y1="3485.91" x2="7303.58" y2="3162.01" gradientUnits="userSpaceOnUse">
<stop offset="0.02" stop-color="white" stop-opacity="0"/>
<stop offset="0.58" stop-color="white" stop-opacity="0.39"/>
<stop offset="0.68" stop-color="white" stop-opacity="0.68"/>
<stop offset="1" stop-color="white"/>
</linearGradient>
<linearGradient id="paint5_linear" x1="13888.7" y1="3098.19" x2="17581.1" y2="3098.19" gradientUnits="userSpaceOnUse">
<stop stop-color="#ECC4D7"/>
<stop offset="0.42" stop-color="#EFD4D1"/>
<stop offset="1" stop-color="#F2EAC9"/>
</linearGradient>
</defs>
</svg>
