<svg viewBox="0 0 325 337" fill="none" xmlns="http://www.w3.org/2000/svg" id="el_7q6s9U0j6"><style>@-webkit-keyframes kf_el_mx2NgG9wzV_an_ki9w_ulHX{0%{-webkit-transform: translate(33.72999954223633px, 9.8999605178833px) scale(0.9, 0.9) translate(-33.72999954223633px, -9.8999605178833px);transform: translate(33.72999954223633px, 9.8999605178833px) scale(0.9, 0.9) translate(-33.72999954223633px, -9.8999605178833px);}100%{-webkit-transform: translate(33.72999954223633px, 9.8999605178833px) scale(0.9, 0.9) translate(-33.72999954223633px, -9.8999605178833px);transform: translate(33.72999954223633px, 9.8999605178833px) scale(0.9, 0.9) translate(-33.72999954223633px, -9.8999605178833px);}}@keyframes kf_el_mx2NgG9wzV_an_ki9w_ulHX{0%{-webkit-transform: translate(33.72999954223633px, 9.8999605178833px) scale(0.9, 0.9) translate(-33.72999954223633px, -9.8999605178833px);transform: translate(33.72999954223633px, 9.8999605178833px) scale(0.9, 0.9) translate(-33.72999954223633px, -9.8999605178833px);}100%{-webkit-transform: translate(33.72999954223633px, 9.8999605178833px) scale(0.9, 0.9) translate(-33.72999954223633px, -9.8999605178833px);transform: translate(33.72999954223633px, 9.8999605178833px) scale(0.9, 0.9) translate(-33.72999954223633px, -9.8999605178833px);}}@-webkit-keyframes kf_el_mx2NgG9wzV_an_TENMz5Aybq{0%{-webkit-transform: translate(33.72999954223633px, 9.8999605178833px) rotate(0deg) translate(-33.72999954223633px, -9.8999605178833px);transform: translate(33.72999954223633px, 9.8999605178833px) rotate(0deg) translate(-33.72999954223633px, -9.8999605178833px);}47.41%{-webkit-transform: translate(33.72999954223633px, 9.8999605178833px) rotate(5deg) translate(-33.72999954223633px, -9.8999605178833px);transform: translate(33.72999954223633px, 9.8999605178833px) rotate(5deg) translate(-33.72999954223633px, -9.8999605178833px);}98.89%{-webkit-transform: translate(33.72999954223633px, 9.8999605178833px) rotate(0deg) translate(-33.72999954223633px, -9.8999605178833px);transform: translate(33.72999954223633px, 9.8999605178833px) rotate(0deg) translate(-33.72999954223633px, -9.8999605178833px);}100%{-webkit-transform: translate(33.72999954223633px, 9.8999605178833px) rotate(0deg) translate(-33.72999954223633px, -9.8999605178833px);transform: translate(33.72999954223633px, 9.8999605178833px) rotate(0deg) translate(-33.72999954223633px, -9.8999605178833px);}}@keyframes kf_el_mx2NgG9wzV_an_TENMz5Aybq{0%{-webkit-transform: translate(33.72999954223633px, 9.8999605178833px) rotate(0deg) translate(-33.72999954223633px, -9.8999605178833px);transform: translate(33.72999954223633px, 9.8999605178833px) rotate(0deg) translate(-33.72999954223633px, -9.8999605178833px);}47.41%{-webkit-transform: translate(33.72999954223633px, 9.8999605178833px) rotate(5deg) translate(-33.72999954223633px, -9.8999605178833px);transform: translate(33.72999954223633px, 9.8999605178833px) rotate(5deg) translate(-33.72999954223633px, -9.8999605178833px);}98.89%{-webkit-transform: translate(33.72999954223633px, 9.8999605178833px) rotate(0deg) translate(-33.72999954223633px, -9.8999605178833px);transform: translate(33.72999954223633px, 9.8999605178833px) rotate(0deg) translate(-33.72999954223633px, -9.8999605178833px);}100%{-webkit-transform: translate(33.72999954223633px, 9.8999605178833px) rotate(0deg) translate(-33.72999954223633px, -9.8999605178833px);transform: translate(33.72999954223633px, 9.8999605178833px) rotate(0deg) translate(-33.72999954223633px, -9.8999605178833px);}}@-webkit-keyframes kf_el_mx2NgG9wzV_an_YXzkkaVkr{0%{-webkit-transform: translate(33.72999954223633px, 9.8999605178833px) translate(-33.72999954223633px, -9.8999605178833px) translate(0px, 0px);transform: translate(33.72999954223633px, 9.8999605178833px) translate(-33.72999954223633px, -9.8999605178833px) translate(0px, 0px);}15.19%{-webkit-transform: translate(33.72999954223633px, 9.8999605178833px) translate(-33.72999954223633px, -9.8999605178833px) translate(-15px, 0px);transform: translate(33.72999954223633px, 9.8999605178833px) translate(-33.72999954223633px, -9.8999605178833px) translate(-15px, 0px);}33.33%{-webkit-transform: translate(33.72999954223633px, 9.8999605178833px) translate(-33.72999954223633px, -9.8999605178833px) translate(-10px, -5px);transform: translate(33.72999954223633px, 9.8999605178833px) translate(-33.72999954223633px, -9.8999605178833px) translate(-10px, -5px);}55.56%{-webkit-transform: translate(33.72999954223633px, 9.8999605178833px) translate(-33.72999954223633px, -9.8999605178833px) translate(0px, 0px);transform: translate(33.72999954223633px, 9.8999605178833px) translate(-33.72999954223633px, -9.8999605178833px) translate(0px, 0px);}77.78%{-webkit-transform: translate(33.72999954223633px, 9.8999605178833px) translate(-33.72999954223633px, -9.8999605178833px) translate(10px, 5px);transform: translate(33.72999954223633px, 9.8999605178833px) translate(-33.72999954223633px, -9.8999605178833px) translate(10px, 5px);}98.89%{-webkit-transform: translate(33.72999954223633px, 9.8999605178833px) translate(-33.72999954223633px, -9.8999605178833px) translate(0px, 0px);transform: translate(33.72999954223633px, 9.8999605178833px) translate(-33.72999954223633px, -9.8999605178833px) translate(0px, 0px);}100%{-webkit-transform: translate(33.72999954223633px, 9.8999605178833px) translate(-33.72999954223633px, -9.8999605178833px) translate(0px, 0px);transform: translate(33.72999954223633px, 9.8999605178833px) translate(-33.72999954223633px, -9.8999605178833px) translate(0px, 0px);}}@keyframes kf_el_mx2NgG9wzV_an_YXzkkaVkr{0%{-webkit-transform: translate(33.72999954223633px, 9.8999605178833px) translate(-33.72999954223633px, -9.8999605178833px) translate(0px, 0px);transform: translate(33.72999954223633px, 9.8999605178833px) translate(-33.72999954223633px, -9.8999605178833px) translate(0px, 0px);}15.19%{-webkit-transform: translate(33.72999954223633px, 9.8999605178833px) translate(-33.72999954223633px, -9.8999605178833px) translate(-15px, 0px);transform: translate(33.72999954223633px, 9.8999605178833px) translate(-33.72999954223633px, -9.8999605178833px) translate(-15px, 0px);}33.33%{-webkit-transform: translate(33.72999954223633px, 9.8999605178833px) translate(-33.72999954223633px, -9.8999605178833px) translate(-10px, -5px);transform: translate(33.72999954223633px, 9.8999605178833px) translate(-33.72999954223633px, -9.8999605178833px) translate(-10px, -5px);}55.56%{-webkit-transform: translate(33.72999954223633px, 9.8999605178833px) translate(-33.72999954223633px, -9.8999605178833px) translate(0px, 0px);transform: translate(33.72999954223633px, 9.8999605178833px) translate(-33.72999954223633px, -9.8999605178833px) translate(0px, 0px);}77.78%{-webkit-transform: translate(33.72999954223633px, 9.8999605178833px) translate(-33.72999954223633px, -9.8999605178833px) translate(10px, 5px);transform: translate(33.72999954223633px, 9.8999605178833px) translate(-33.72999954223633px, -9.8999605178833px) translate(10px, 5px);}98.89%{-webkit-transform: translate(33.72999954223633px, 9.8999605178833px) translate(-33.72999954223633px, -9.8999605178833px) translate(0px, 0px);transform: translate(33.72999954223633px, 9.8999605178833px) translate(-33.72999954223633px, -9.8999605178833px) translate(0px, 0px);}100%{-webkit-transform: translate(33.72999954223633px, 9.8999605178833px) translate(-33.72999954223633px, -9.8999605178833px) translate(0px, 0px);transform: translate(33.72999954223633px, 9.8999605178833px) translate(-33.72999954223633px, -9.8999605178833px) translate(0px, 0px);}}#el_7q6s9U0j6 *{-webkit-animation-duration: 9s;animation-duration: 9s;-webkit-animation-iteration-count: infinite;animation-iteration-count: infinite;-webkit-animation-timing-function: cubic-bezier(0, 0, 1, 1);animation-timing-function: cubic-bezier(0, 0, 1, 1);}#el_lAWVkzBTcZ{opacity: 0.27;fill: #68E1FD;}#el__F5JN1DQCh{opacity: 0.27;fill: #68E1FD;}#el_r9XWfeMWBn{fill: white;}#el_vhQVLVSVBA{fill: white;}#el_mP8PcmPfrD{fill: white;}#el_WKmqiXDu5O{fill: white;}#el_6Fvmxrt2fQ{fill: white;}#el_aH78Zwq04-{fill: white;}#el_X6KPZ2Uvej{fill: white;}#el_twNKauuZo6{fill: white;}#el_aR3SnyE6xj{fill: white;}#el_5sfrUTyrhN{fill: white;}#el_5STMfIFtdS{fill: url(#paint0_linear);}#el_ygv4_Kv2wGD{fill: url(#paint1_linear);}#el_kb1AeOFRDdX{opacity: 0.25;fill: url(#paint2_linear);}#el_oS4Js9L5xIq{opacity: 0.27;fill: #68E1FD;}#el_63Uw19ksQbi{fill: #68E1FD;}#el_p-OcYlolW6i{fill: #68E1FD;}#el_FX5unACafXd{opacity: 0.49;fill: #68E1FD;}#el_y4eXg1ZRYeW{fill: #68E1FD;}#el_t4ObFNTzb3L{fill: #68E1FD;}#el_1kOK4o4gNFm{opacity: 0.25;fill: url(#paint3_linear);}#el_gYWPMzd4aSQ{opacity: 0.25;fill: white;}#el_obShGrPPhlr{opacity: 0.25;fill: url(#paint4_linear);}#el_-DsDjNIOBkD{fill: url(#paint5_linear);}#el_5ZXvIXsa27y{opacity: 0.25;fill: url(#paint6_linear);}#el_n5S549hnymu{opacity: 0.25;fill: url(#paint7_linear);}#el_VSog0whugeL{opacity: 0.25;fill: url(#paint8_linear);}#el_fieuo_jY_Kk{fill: #68E1FD;}#el_jl2L-3Afbh2{opacity: 0.25;fill: url(#paint9_linear);}#el_NeMLwdK9wSJ{fill: #68E1FD;}#el_avNgI6xm_gP{opacity: 0.25;fill: url(#paint10_linear);}#el_ilcMs_92N2I{opacity: 0.25;fill: url(#paint11_linear);}#el_oTjzaKqN-I9{opacity: 0.25;fill: url(#paint12_linear);}#el_MPgu7z6As9M{fill: url(#paint13_linear);}#el_qtKRXqjq3tH{fill: url(#paint14_linear);}#el_igaI9paey9U{fill: #001316;}#el_RGyVpwcjvbR{fill: url(#paint15_linear);}#el_kLk5LzOHJer{fill: #68E1FD;}#el_HmJBsmvDNHD{opacity: 0.25;fill: url(#paint16_linear);}#el_mx2NgG9wzV_an_YXzkkaVkr{-webkit-animation-fill-mode: backwards;animation-fill-mode: backwards;-webkit-transform: translate(33.72999954223633px, 9.8999605178833px) translate(-33.72999954223633px, -9.8999605178833px) translate(0px, 0px);transform: translate(33.72999954223633px, 9.8999605178833px) translate(-33.72999954223633px, -9.8999605178833px) translate(0px, 0px);-webkit-animation-name: kf_el_mx2NgG9wzV_an_YXzkkaVkr;animation-name: kf_el_mx2NgG9wzV_an_YXzkkaVkr;-webkit-animation-timing-function: cubic-bezier(0, 0, 1, 1);animation-timing-function: cubic-bezier(0, 0, 1, 1);}#el_mx2NgG9wzV_an_TENMz5Aybq{-webkit-animation-fill-mode: backwards;animation-fill-mode: backwards;-webkit-transform: translate(33.72999954223633px, 9.8999605178833px) rotate(0deg) translate(-33.72999954223633px, -9.8999605178833px);transform: translate(33.72999954223633px, 9.8999605178833px) rotate(0deg) translate(-33.72999954223633px, -9.8999605178833px);-webkit-animation-name: kf_el_mx2NgG9wzV_an_TENMz5Aybq;animation-name: kf_el_mx2NgG9wzV_an_TENMz5Aybq;-webkit-animation-timing-function: cubic-bezier(0, 0, 1, 1);animation-timing-function: cubic-bezier(0, 0, 1, 1);}#el_mx2NgG9wzV_an_ki9w_ulHX{-webkit-animation-fill-mode: backwards;animation-fill-mode: backwards;-webkit-transform: translate(33.72999954223633px, 9.8999605178833px) scale(0.9, 0.9) translate(-33.72999954223633px, -9.8999605178833px);transform: translate(33.72999954223633px, 9.8999605178833px) scale(0.9, 0.9) translate(-33.72999954223633px, -9.8999605178833px);-webkit-animation-name: kf_el_mx2NgG9wzV_an_ki9w_ulHX;animation-name: kf_el_mx2NgG9wzV_an_ki9w_ulHX;-webkit-animation-timing-function: cubic-bezier(0, 0, 1, 1);animation-timing-function: cubic-bezier(0, 0, 1, 1);}</style>
<g id="el_Teb92zufWS" clip-path="url(#clip0)">
<path id="el_lAWVkzBTcZ" d="M294.72 184.47C298.05 203.16 338.98 229.21 287.46 294.02C257.54 331.66 220.32 311.85 211.46 314.4C197.22 318.5 184.96 334.7 170.18 335.61C153.38 336.61 64.46 342.29 27.59 300.4C24.6452 297.078 22.0639 293.451 19.89 289.58C5.66002 264.24 64.22 255.73 7.50002 196.98C-3.10998 185.98 -8.49998 114.35 33.68 91.18C57.2 78.28 44.87 72.14 83.87 23.47C105.53 -3.53001 157.23 -6.89001 183.51 11.66C186.243 13.5933 188.91 15.4 191.51 17.08C252.87 56.96 281 34.71 311.64 78.64C348.76 131.85 290.39 160.22 294.72 184.47Z"/>
<path id="el__F5JN1DQCh" d="M224.38 220.79C219.92 239.24 246.93 279.54 173.72 318.19C131.2 340.64 105.07 307.54 95.96 306.33C81.28 304.33 63.54 314.28 49.64 309.16C45.75 307.73 37.74 304.8 27.64 300.4C24.6952 297.078 22.1139 293.451 19.94 289.58C5.71001 264.24 64.27 255.73 7.55001 196.98C-3.05999 185.98 -8.44999 114.35 33.73 91.18C57.2 78.28 44.87 72.14 83.87 23.47C105.53 -3.53001 157.23 -6.89001 183.51 11.66C186.243 13.5933 188.91 15.4 191.51 17.08L191.98 17.84C234.36 88.1 271.58 75.91 282.43 130.67C295.01 194.31 230.16 196.84 224.38 220.79Z"/>
<path id="el_r9XWfeMWBn" d="M242.6 71.68C242.573 71.8603 242.497 72.0298 242.38 72.17C242.234 72.29 242.057 72.3663 241.87 72.39L238.19 73.26L240.99 74.26C241.223 74.3268 241.433 74.4546 241.6 74.63C241.737 74.8585 241.796 75.125 241.77 75.39L241.82 78.39L244.15 75.2L246.55 77.2L244.95 72.94C246.042 72.6852 247.079 72.2346 248.01 71.61L245.49 71.34C243.94 71.16 243.97 70.18 243.41 68.99C243.049 69.8567 242.778 70.758 242.6 71.68V71.68Z"/>
<path id="el_vhQVLVSVBA" d="M276.87 217.59C276.845 217.768 276.769 217.935 276.65 218.07C276.505 218.194 276.328 218.273 276.14 218.3L272.46 219.17L275.26 220.17C275.494 220.233 275.706 220.361 275.87 220.54C276.007 220.768 276.066 221.035 276.04 221.3L276.09 224.3L278.42 221.11L280.82 223.11L279.22 218.85C280.311 218.591 281.347 218.141 282.28 217.52L279.76 217.24C278.21 217.07 278.24 216.09 277.68 214.9C277.319 215.767 277.048 216.668 276.87 217.59Z"/>
<path id="el_mP8PcmPfrD" d="M68.66 267.35C68.6351 267.528 68.5587 267.695 68.44 267.83C68.2953 267.954 68.1184 268.033 67.93 268.06L64.25 268.93L67.05 269.93C67.2826 269.997 67.4932 270.125 67.66 270.3C67.7968 270.529 67.8564 270.795 67.83 271.06V274.06L70.17 270.87L72.57 272.87L70.97 268.61C72.062 268.355 73.0987 267.905 74.03 267.28L71.51 267C69.96 266.83 69.99 265.85 69.43 264.66C69.0781 265.527 68.82 266.428 68.66 267.35V267.35Z"/>
<path id="el_WKmqiXDu5O" d="M242.35 191.26C242.337 191.363 242.296 191.46 242.23 191.54C242.144 191.612 242.041 191.66 241.93 191.68L239.79 192.18L241.42 192.78C241.555 192.819 241.676 192.895 241.77 193C241.848 193.133 241.883 193.286 241.87 193.44V195.18L243.23 193.32L244.62 194.47L243.69 192C244.325 191.847 244.927 191.583 245.47 191.22L244 191.06C243.1 190.96 243.12 190.39 242.79 189.7C242.594 190.205 242.447 190.727 242.35 191.26Z"/>
<path id="el_6Fvmxrt2fQ" d="M187.56 278.45C187.526 278.625 187.451 278.79 187.34 278.93C187.193 279.055 187.012 279.135 186.82 279.16L183.15 280.03L185.95 281.03C186.183 281.095 186.394 281.223 186.56 281.4C186.697 281.628 186.756 281.895 186.73 282.16V285.16L189.07 281.97L191.47 283.97L189.87 279.71C190.961 279.451 191.997 279.001 192.93 278.38L190.4 278.1C188.86 277.93 188.89 276.95 188.33 275.76C187.978 276.627 187.72 277.528 187.56 278.45V278.45Z"/>
<path id="el_aH78Zwq04-" d="M215.93 48.09C215.919 48.151 215.895 48.2089 215.86 48.26C215.805 48.2967 215.744 48.3238 215.68 48.34L214.44 48.63L215.39 48.98C215.467 49.0041 215.537 49.0491 215.59 49.11C215.636 49.185 215.657 49.2724 215.65 49.36V50.36L216.44 49.28L217.26 49.94L216.71 48.5C217.067 48.4083 217.405 48.2561 217.71 48.05L216.86 47.96C216.33 47.9 216.34 47.57 216.15 47.16C216.049 47.4628 215.975 47.774 215.93 48.09V48.09Z"/>
<path id="el_X6KPZ2Uvej" d="M205.28 82.82C205.268 82.8794 205.24 82.9345 205.2 82.98C205.15 83.0183 205.092 83.0456 205.03 83.06L203.79 83.35L204.73 83.7C204.811 83.7213 204.885 83.7666 204.94 83.83C204.984 83.9055 205.005 83.9926 205 84.08V85.08L205.79 84L206.6 84.66L206.06 83.22C206.417 83.1306 206.756 82.9782 207.06 82.77L206.2 82.68C205.68 82.62 205.69 82.29 205.5 81.88C205.393 82.1845 205.319 82.4996 205.28 82.82V82.82Z"/>
<path id="el_twNKauuZo6" d="M78.32 77.74C78.3058 77.7987 78.2784 77.8534 78.24 77.9C78.192 77.9421 78.1331 77.9698 78.07 77.98L76.82 78.27L77.82 78.62C77.9015 78.6413 77.9746 78.6866 78.03 78.75C78.0711 78.8304 78.0917 78.9197 78.09 79.01V80.01L78.87 78.94L79.68 79.61L79.14 78.16C79.4974 78.0706 79.8361 77.9182 80.14 77.71L79.28 77.62C78.76 77.56 78.77 77.23 78.58 76.83C78.4607 77.123 78.3735 77.4282 78.32 77.74V77.74Z"/>
<path id="el_aR3SnyE6xj" d="M47.59 98.76L50.1 93.16C49.8239 94.5668 49.9808 96.0242 50.55 97.34C50.851 97.9878 51.3356 98.533 51.9435 98.908C52.5514 99.2831 53.256 99.4715 53.97 99.45C52.37 99.45 50.29 99.81 50.05 101.38C49.9 102.38 50.54 103.86 49.58 104.29L48.22 100.98C47.2128 101.563 46.1083 101.96 44.96 102.15C45.3148 101.488 45.853 100.943 46.51 100.58C45.589 99.5971 44.8598 98.4508 44.36 97.2C45.2428 97.712 46.0421 98.3561 46.73 99.11"/>
<path id="el_5sfrUTyrhN" d="M82.57 49.53L83.32 47.86C83.2301 48.2766 83.2756 48.7111 83.45 49.1C83.5385 49.29 83.6798 49.4506 83.8572 49.5623C84.0346 49.674 84.2404 49.7323 84.45 49.73C83.97 49.73 83.35 49.84 83.28 50.31C83.28 50.62 83.43 51.05 83.14 51.17L82.74 50.17C82.4296 50.3441 82.0912 50.4626 81.74 50.52C81.8418 50.3201 82.0023 50.1561 82.2 50.05C81.9285 49.7577 81.7117 49.419 81.56 49.05C81.8189 49.2063 82.0545 49.3982 82.26 49.62"/>
<g id="el_mx2NgG9wzV_an_YXzkkaVkr" data-animator-group="true" data-animator-type="0"><g id="el_mx2NgG9wzV_an_TENMz5Aybq" data-animator-group="true" data-animator-type="1"><g id="el_mx2NgG9wzV_an_ki9w_ulHX" data-animator-group="true" data-animator-type="2"><g id="el_mx2NgG9wzV">
<path id="el_5STMfIFtdS" d="M125.7 96.57C128.95 97 130.55 94.57 131.32 91.57C131.849 89.4725 131.926 87.2864 131.545 85.157C131.164 83.0276 130.334 81.0038 129.11 79.22C124.46 72.33 116.56 56.67 126.72 40.37C140.33 18.54 123.25 20.96 117.72 26.83C85.75 60.96 118.11 95.57 125.7 96.57Z"/>
<path id="el_ygv4_Kv2wGD" d="M144.473 24.974C149.736 24.133 153.588 20.856 153.076 17.6547C152.564 14.4534 147.883 12.5401 142.621 13.3812C137.358 14.2222 133.506 17.4992 134.018 20.7005C134.53 23.9018 139.211 25.8151 144.473 24.974Z"/>
<path id="el_kb1AeOFRDdX" d="M164.92 15.47C164.92 15.47 197.43 57.39 162.03 93.16L175.03 100.36C175.03 100.36 195.61 80.79 193.92 61.04C192.23 41.29 189.43 30.94 164.92 15.47Z"/>
<path id="el_oS4Js9L5xIq" d="M88.05 72.14C88.8 101.35 88.05 108.24 88.05 108.24C88.05 108.24 33.73 133.17 33.73 169.77C33.73 206.37 50.04 225.26 50.04 225.26C50.04 225.26 67.68 223.92 71.95 215.48C76.22 207.04 69.4 171.96 69.4 171.96L87.79 163.8C87.79 163.8 85.22 198.54 99.6 225.26C113.98 251.98 123.77 273.12 118.87 284.51C113.97 295.9 112.35 311.38 112.35 311.38L128.7 328.75C128.7 328.75 136.38 335.01 145.33 323.75C154.28 312.49 148.85 262.09 150.84 259.55C152.83 257.01 162.04 233.63 162.04 233.63C162.04 233.63 174.79 227.47 183.24 234.22C191.69 240.97 202.35 274.76 205.47 277.29C208.59 279.82 216.27 301.34 216.27 301.34L238.63 304.39L243.21 292.31L222.87 255.73L220.21 220.8L211.06 205.42L174.48 182.71L172.25 156.35C172.25 156.35 206.17 178.75 216.25 179.47C226.33 180.19 257.54 176.33 257.54 176.33L272.54 163.8L249.66 160.14L205.49 150.55L162.06 120.75L136.27 63.88L137.27 47.43C137.27 47.43 87.3 42.93 88.05 72.14Z"/>
<path id="el_63Uw19ksQbi" d="M126.48 294.04C126.48 294.04 115.23 306.23 120.05 312.28C124.87 318.33 146.88 330.88 152.55 328.46C158.22 326.04 157.8 317.96 154.26 312.57C150.72 307.18 146.7 301.57 146.7 301.57L126.48 294.04Z"/>
<path id="el_p-OcYlolW6i" d="M228.55 277.5C228.55 277.5 228.33 288.58 232.8 294.02C237.27 299.46 271.44 287.02 272.39 282.38C273.34 277.74 267.92 272.56 258.98 272.44C253.918 272.476 248.904 271.454 244.26 269.44C244.26 269.44 227.63 268.67 228.55 277.5Z"/>
<path id="el_FX5unACafXd" d="M197.71 58.97C197.71 68.6751 194.832 78.1623 189.44 86.2318C184.048 94.3014 176.385 100.591 167.418 104.305C158.452 108.019 148.586 108.991 139.067 107.097C129.548 105.204 120.805 100.53 113.942 93.6677C107.08 86.8052 102.406 78.0617 100.513 68.5431C98.6195 59.0244 99.5912 49.1581 103.305 40.1917C107.019 31.2254 113.309 23.5617 121.378 18.1698C129.448 12.7779 138.935 9.90001 148.64 9.90001C155.087 9.8908 161.472 11.1537 167.429 13.6165C173.387 16.0792 178.8 19.6933 183.358 24.2517C187.917 28.8101 191.531 34.2232 193.994 40.1808C196.456 46.1384 197.719 52.5235 197.71 58.97V58.97Z"/>
<path id="el_y4eXg1ZRYeW" d="M175 100.36C166.312 105.878 156.11 108.526 145.835 107.93C135.56 107.334 125.732 103.525 117.74 97.04C117.74 97.04 129.74 90.6 148.74 91.17C164.38 91.68 175 97.66 175 100.36Z"/>
<path id="el_t4ObFNTzb3L" d="M254.2 160.13C252.698 162.328 250.743 164.18 248.466 165.56C246.19 166.94 243.644 167.816 241 168.13C235.912 168.72 230.782 168.854 225.67 168.53C200.86 167.12 178.3 141.73 178.3 141.73C178.3 141.73 178.98 173.11 185.98 180.37C192.98 187.63 212.92 188.83 225.67 195.65C239.34 202.97 244.55 236.55 246.67 255.47C248.35 270.69 247.05 276.07 238.67 279.47C233.02 281.77 227.39 280.74 225.81 269.07C219.13 219.6 183.27 224.42 175.65 220.79C174.22 220.11 173.15 220.14 172.34 220.73C170.46 222.1 170.06 226.51 170.06 231.97C170.06 236.62 170.35 242.03 170.27 246.97C170.04 260.16 161.13 288.28 148.78 299.84C144.78 303.62 140.84 304.69 137.42 304.42C134.242 304.076 131.229 302.826 128.74 300.82C127.743 300.051 126.998 299.001 126.602 297.805C126.207 296.609 126.178 295.322 126.52 294.11C129.21 284.49 134.32 256.67 114.67 227.58C90.35 191.58 95.89 139.68 95.89 139.68C95.89 139.68 82.89 148.19 75.95 154.21C69.01 160.23 76.07 179.83 74.47 185.39C70.73 198.31 54.8 196.68 54.8 196.68C52.8776 196.62 50.9924 196.134 49.2804 195.257C47.5684 194.381 46.0724 193.135 44.9 191.61V191.61C40.72 186.43 37.76 176 42.35 155C50.77 116.51 105.53 100.33 116.08 97.55C117.22 97.25 117.84 97.11 117.84 97.11L175.1 100.39C175.1 100.39 214.81 131.65 228.43 136.9C234.474 139.151 241.044 139.582 247.33 138.14C249.344 137.691 251.454 138.037 253.219 139.107C254.983 140.176 256.267 141.887 256.8 143.88L256.98 144.54C257.683 147.184 257.798 149.95 257.318 152.643C256.837 155.336 255.773 157.892 254.2 160.13Z"/>
<path id="el_1kOK4o4gNFm" d="M254.2 160.13C252.698 162.328 250.743 164.18 248.466 165.56C246.19 166.94 243.644 167.816 241 168.13C235.912 168.72 230.782 168.854 225.67 168.53C200.86 167.12 178.3 141.73 178.3 141.73C178.3 141.73 178.98 173.11 185.98 180.37C192.98 187.63 212.92 188.83 225.67 195.65C239.34 202.97 244.55 236.55 246.67 255.47C248.35 270.69 247.05 276.07 238.67 279.47C233.02 281.77 227.39 280.74 225.81 269.07C219.13 219.6 183.27 224.42 175.65 220.79C174.22 220.11 173.15 220.14 172.34 220.73C170.46 222.1 170.06 226.51 170.06 231.97C170.06 236.62 170.35 242.03 170.27 246.97C170.04 260.16 161.13 288.28 148.78 299.84C144.78 303.62 140.84 304.69 137.42 304.42C134.242 304.076 131.229 302.826 128.74 300.82C127.743 300.051 126.998 299.001 126.602 297.805C126.207 296.609 126.178 295.322 126.52 294.11C129.21 284.49 134.32 256.67 114.67 227.58C90.35 191.58 95.89 139.68 95.89 139.68C95.89 139.68 82.89 148.19 75.95 154.21C69.01 160.23 76.07 179.83 74.47 185.39C70.73 198.31 54.8 196.68 54.8 196.68C52.8776 196.62 50.9924 196.134 49.2804 195.257C47.5684 194.381 46.0724 193.135 44.9 191.61V191.61C40.72 186.43 37.76 176 42.35 155C50.77 116.51 105.53 100.33 116.08 97.55C117.22 97.25 117.84 97.11 117.84 97.11L175.1 100.39C175.1 100.39 214.81 131.65 228.43 136.9C234.474 139.151 241.044 139.582 247.33 138.14C249.344 137.691 251.454 138.037 253.219 139.107C254.983 140.176 256.267 141.887 256.8 143.88L256.98 144.54C257.683 147.184 257.798 149.95 257.318 152.643C256.837 155.336 255.773 157.892 254.2 160.13Z"/>
<path id="el_gYWPMzd4aSQ" d="M118.87 105.69C118.87 105.69 71.25 122.03 64.27 140.78C57.29 159.53 55.95 172.73 55.95 172.73L44.87 191.61C40.69 186.43 37.73 176 42.32 155C50.74 116.51 105.5 100.33 116.05 97.55L118.87 105.69Z"/>
<path id="el_obShGrPPhlr" d="M175 100.36C166.312 105.878 156.11 108.526 145.835 107.93C135.56 107.334 125.732 103.525 117.74 97.04C117.74 97.04 129.74 90.6 148.74 91.17C164.38 91.68 175 97.66 175 100.36Z"/>
<path id="el_-DsDjNIOBkD" d="M44.87 191.61C44.87 191.61 44.72 173.16 59.64 172.03C74.56 170.9 74.44 185.39 74.44 185.39C74.44 185.39 66.86 199.17 54.77 196.68C47.12 195.11 44.87 191.61 44.87 191.61Z"/>
<path id="el_5ZXvIXsa27y" d="M137.36 304.42C134.254 304.086 131.304 302.884 128.85 300.95C127.804 300.167 127.019 299.087 126.596 297.851C126.173 296.614 126.133 295.28 126.48 294.02C129.18 284.33 134.2 256.59 114.61 227.58C90.29 191.58 95.83 139.68 95.83 139.68C95.83 139.68 111.97 130.52 115.37 137.31C118.77 144.1 108.74 148.53 116.17 177.54C123.6 206.55 132.55 224 142.34 241.88C152.13 259.76 147.06 301.53 137.36 304.42Z"/>
<path id="el_n5S549hnymu" d="M134.87 132.9C134.87 132.9 159.73 129.97 166.49 131.96C173.25 133.95 173.25 170.57 177.08 179.96C177.08 179.96 179.28 181.45 174.56 182.73C169.84 184.01 145.56 191.03 141.11 188.47C136.66 185.91 131.98 172.72 129.31 164.21C126.64 155.7 122.38 138.66 124.93 135.68C127.48 132.7 134.87 132.9 134.87 132.9Z"/>
<path id="el_VSog0whugeL" d="M253.95 139.68C253.95 139.68 249.7 139.11 248.28 144.86C246.86 150.61 248.13 158.64 249.62 160.14C251.11 161.64 251.12 162.26 254.2 160.14C257.28 158.02 260.9 150.58 260.9 150.58C260.9 150.58 261.54 138.51 253.95 139.68Z"/>
<path id="el_fieuo_jY_Kk" d="M253.95 139.68C254.3 143.75 251.67 152.52 253.95 155.35C256.23 158.18 279.43 155.61 285.39 139.68C291.35 123.75 282.83 125.13 280.81 125.34C278.79 125.55 265.81 134.07 265.81 134.07C265.81 134.07 272.52 128.75 269.54 126.62C266.56 124.49 253.6 135.6 253.95 139.68Z"/>
<path id="el_jl2L-3Afbh2" d="M253.95 139.68C254.3 143.75 251.67 152.52 253.95 155.35C256.23 158.18 279.43 155.61 285.39 139.68C291.35 123.75 282.83 125.13 280.81 125.34C278.79 125.55 265.81 134.07 265.81 134.07C265.81 134.07 272.52 128.75 269.54 126.62C266.56 124.49 253.6 135.6 253.95 139.68Z"/>
<path id="el_NeMLwdK9wSJ" d="M51.17 188.93C51.17 188.93 54.75 176.49 64.69 180.14C74.63 183.79 78.54 194.56 78.49 195.03C78.44 195.5 77.38 200.76 72.92 197.9C68.46 195.04 67.55 196.06 67.66 196.55C67.77 197.04 71.26 205.7 76.21 207.04C81.16 208.38 76.7 215.53 71.93 215.48C67.16 215.43 56.73 211.89 55.65 210.18C54.57 208.47 47.23 197.33 51.17 188.93Z"/>
<path id="el_avNgI6xm_gP" d="M51.17 188.93C51.17 188.93 54.75 176.49 64.69 180.14C74.63 183.79 78.54 194.56 78.49 195.03C78.44 195.5 77.38 200.76 72.92 197.9C68.46 195.04 67.55 196.06 67.66 196.55C67.77 197.04 71.26 205.7 76.21 207.04C81.16 208.38 76.7 215.53 71.93 215.48C67.16 215.43 56.73 211.89 55.65 210.18C54.57 208.47 47.23 197.33 51.17 188.93Z"/>
<path id="el_ilcMs_92N2I" d="M238.61 279.48C232.96 281.78 227.33 280.75 225.75 269.08C219.07 219.61 183.21 224.43 175.59 220.8C174.16 220.12 173.09 220.15 172.28 220.74C172.28 220.74 174.41 213.22 182.35 212.08C190.29 210.94 215.99 212.08 220.24 220.8C224.49 229.52 238.24 256.21 238.61 279.48Z"/>
<path id="el_oTjzaKqN-I9" d="M254.2 160.13C252.698 162.328 250.743 164.18 248.466 165.56C246.19 166.94 243.644 167.816 241 168.13C235.912 168.72 230.782 168.854 225.67 168.53C200.86 167.12 178.3 141.73 178.3 141.73C177.98 135.04 180.97 131.28 180.97 131.28C180.97 131.28 202.36 150.07 219.54 156.44C236.72 162.81 255.01 149.5 254.2 160.13Z"/>
<path id="el_MPgu7z6As9M" d="M135.98 83.5C135.98 83.5 142.3 98.62 132.98 101.39C123.66 104.16 145.9 109.39 152.98 108.03C160.06 106.67 159.98 105.65 159.98 105.65C158.951 104.843 158.231 103.707 157.942 102.432C157.652 101.158 157.811 99.8219 158.39 98.65C160.22 94.16 135.98 83.5 135.98 83.5Z"/>
<path id="el_qtKRXqjq3tH" d="M169.23 54.14C169.23 54.14 172.33 86.04 167.48 92.04C162.63 98.04 155.48 102.85 143.4 93.1C131.32 83.35 127.03 57.35 135.75 52.24C144.47 47.13 159.94 39.45 169.23 54.14Z"/>
<path id="el_igaI9paey9U" d="M153.72 40.73C153.72 40.73 143.19 41.73 137.23 47.43C131.27 53.13 131.15 53.71 131.15 53.71C131.15 53.71 125.73 52.86 125.84 57.86C125.95 62.86 124.03 62.55 125.1 68.4C126.17 74.25 137.23 87.04 137.23 87.04L132.52 74.34L134.82 75.64C134.82 75.64 131.69 65.84 136.27 63.88C140.85 61.92 147.45 56.69 149.04 56.48C150.63 56.27 164.69 55.63 166.39 57.76C167.802 59.8237 168.995 62.029 169.95 64.34C169.95 64.34 173.84 57.76 172.03 52.65C170.22 47.54 167.48 45.65 167.48 45.65L171.07 43.22C171.07 43.22 156.28 38.39 153.72 40.73Z"/>
<path id="el_RGyVpwcjvbR" d="M134.87 75.64C134.87 75.64 128.81 71.38 128.73 75.64C128.65 79.9 132.65 82.96 136.03 83.5C139.41 84.04 134.87 75.64 134.87 75.64Z"/>
<path id="el_kLk5LzOHJer" d="M115.37 95.78C115.37 95.78 111.83 96.94 112.37 99.66C112.91 102.38 130.87 117.15 152.91 113.88C174.95 110.61 178.28 102.88 178.28 102.88C178.28 102.88 179.11 99.56 174.98 100.31C170.85 101.06 138.65 114.04 115.37 95.78Z"/>
<path id="el_HmJBsmvDNHD" d="M115.37 95.78C115.37 95.78 111.83 96.94 112.37 99.66C112.91 102.38 130.87 117.15 152.91 113.88C174.95 110.61 178.28 102.88 178.28 102.88C178.28 102.88 179.11 99.56 174.98 100.31C170.85 101.06 138.65 114.04 115.37 95.78Z"/>
</g></g></g></g>
</g>
<defs>
<linearGradient id="paint0_linear" x1="78.2179" y1="64.3279" x2="269.814" y2="46.0311" gradientUnits="userSpaceOnUse">
<stop stop-color="white" stop-opacity="0"/>
<stop offset="1" stop-color="white"/>
</linearGradient>
<linearGradient id="paint1_linear" x1="3919.59" y1="111.931" x2="3949.31" y2="553.899" gradientUnits="userSpaceOnUse">
<stop stop-color="white" stop-opacity="0"/>
<stop offset="1" stop-color="white"/>
</linearGradient>
<linearGradient id="paint2_linear" x1="186.84" y1="33.96" x2="104.63" y2="157.84" gradientUnits="userSpaceOnUse">
<stop stop-opacity="0"/>
<stop offset="0.91" stop-opacity="0.8"/>
<stop offset="1"/>
</linearGradient>
<linearGradient id="paint3_linear" x1="45237.1" y1="25161.5" x2="42120" y2="58118.1" gradientUnits="userSpaceOnUse">
<stop stop-opacity="0"/>
<stop offset="0.91" stop-opacity="0.8"/>
<stop offset="1"/>
</linearGradient>
<linearGradient id="paint4_linear" x1="9959.02" y1="1822.15" x2="13237.7" y2="1822.15" gradientUnits="userSpaceOnUse">
<stop stop-opacity="0"/>
<stop offset="0.91" stop-opacity="0.8"/>
<stop offset="1"/>
</linearGradient>
<linearGradient id="paint5_linear" x1="3697.07" y1="4637.42" x2="1845.64" y2="6566.1" gradientUnits="userSpaceOnUse">
<stop stop-opacity="0"/>
<stop offset="0.91" stop-opacity="0.8"/>
<stop offset="1"/>
</linearGradient>
<linearGradient id="paint6_linear" x1="7915.54" y1="37886.2" x2="10653.8" y2="37886.2" gradientUnits="userSpaceOnUse">
<stop stop-opacity="0"/>
<stop offset="0.91" stop-opacity="0.8"/>
<stop offset="1"/>
</linearGradient>
<linearGradient id="paint7_linear" x1="9649.82" y1="9551.91" x2="12506" y2="9551.91" gradientUnits="userSpaceOnUse">
<stop stop-opacity="0"/>
<stop offset="0.91" stop-opacity="0.8"/>
<stop offset="1"/>
</linearGradient>
<linearGradient id="paint8_linear" x1="4347.84" y1="3225.01" x2="4256.9" y2="3895.71" gradientUnits="userSpaceOnUse">
<stop stop-opacity="0"/>
<stop offset="0.91" stop-opacity="0.8"/>
<stop offset="1"/>
</linearGradient>
<linearGradient id="paint9_linear" x1="11505.1" y1="3988.04" x2="11362.2" y2="5341.16" gradientUnits="userSpaceOnUse">
<stop stop-opacity="0"/>
<stop offset="0.91" stop-opacity="0.8"/>
<stop offset="1"/>
</linearGradient>
<linearGradient id="paint10_linear" x1="3015.46" y1="7397.12" x2="3826.08" y2="7397.12" gradientUnits="userSpaceOnUse">
<stop stop-opacity="0"/>
<stop offset="0.91" stop-opacity="0.8"/>
<stop offset="1"/>
</linearGradient>
<linearGradient id="paint11_linear" x1="15190.1" y1="17336.2" x2="19589.7" y2="17336.2" gradientUnits="userSpaceOnUse">
<stop stop-opacity="0"/>
<stop offset="0.91" stop-opacity="0.8"/>
<stop offset="1"/>
</linearGradient>
<linearGradient id="paint12_linear" x1="22003.2" y1="5474.37" x2="19068.4" y2="8258.3" gradientUnits="userSpaceOnUse">
<stop stop-opacity="0"/>
<stop offset="0.91" stop-opacity="0.8"/>
<stop offset="1"/>
</linearGradient>
<linearGradient id="paint13_linear" x1="147.99" y1="94.45" x2="142.73" y2="111.53" gradientUnits="userSpaceOnUse">
<stop stop-color="#ECC4D7"/>
<stop offset="0.42" stop-color="#EFD4D1"/>
<stop offset="1" stop-color="#F2EAC9"/>
</linearGradient>
<linearGradient id="paint14_linear" x1="7290.63" y1="3673.6" x2="8482" y2="3895.68" gradientUnits="userSpaceOnUse">
<stop stop-color="#ECC4D7"/>
<stop offset="0.42" stop-color="#EFD4D1"/>
<stop offset="1" stop-color="#F2EAC9"/>
</linearGradient>
<linearGradient id="paint15_linear" x1="1692.15" y1="871.656" x2="1765.27" y2="871.656" gradientUnits="userSpaceOnUse">
<stop stop-color="#ECC4D7"/>
<stop offset="0.42" stop-color="#EFD4D1"/>
<stop offset="1" stop-color="#F2EAC9"/>
</linearGradient>
<linearGradient id="paint16_linear" x1="12901.2" y1="2382.3" x2="12940.4" y2="1914.76" gradientUnits="userSpaceOnUse">
<stop stop-opacity="0"/>
<stop offset="0.91" stop-opacity="0.8"/>
<stop offset="1"/>
</linearGradient>
<clipPath id="clip0">
<rect width="324.06" height="336.43" fill="white"/>
</clipPath>
</defs>
</svg>