<svg width="274" height="249" viewBox="0 0 274 249" fill="none" xmlns="http://www.w3.org/2000/svg">
<path opacity="0.18" d="M123.736 25.3406C114.181 39.2417 111.675 58.6636 98.9646 70.8795C92.5598 77.0596 84.2915 80.8129 76.8131 85.6334C61.3996 95.5627 48.9355 110.889 45.1387 128.816C41.7779 144.451 45.7639 164.293 58.3309 175.162C64.7974 180.741 70.3013 183.736 74.9579 191.482C79.997 199.866 82.6872 207.55 90.3549 213.857C97.7593 219.963 106.139 224.817 114.415 229.645C123.054 234.68 131.799 239.764 141.388 242.599C151.38 245.557 161.931 245.961 172.35 245.998C187.242 246.052 203.066 245.092 215.259 236.522C225.987 228.99 231.076 217.504 236.9 206.264C242.725 195.025 249.566 185.252 256.732 174.729C263.532 164.8 270.442 154.586 272.993 142.84C274.532 135.5 274.304 127.897 272.33 120.662C270.718 114.651 271.236 107.985 267.982 102.6C263.432 95.0868 257.379 88.5977 250.204 83.5404C243.038 78.4975 234.901 74.9913 227.686 70.0184C220.471 65.0455 213.959 58.0703 212.491 49.4182C211.935 46.1592 212.124 42.8261 211.709 39.5301C210.5 29.9098 204.012 21.4843 195.81 16.2971C187.608 11.11 177.842 8.92224 168.163 8.23007C157.85 7.4761 147.184 8.45668 137.838 12.9475C131.643 15.9346 127.216 20.2689 123.736 25.3406Z" fill="#68E1FD"/>
<path d="M27.1952 66.59C24.9152 63.05 24.3552 58.71 22.9352 54.74C21.5152 50.77 18.6352 46.74 14.4552 46.29C10.2752 45.84 6.57518 49.11 3.96518 52.45C2.46386 54.2246 1.29819 56.2578 0.525177 58.45C0.0435019 59.9987 -0.109208 61.631 0.0768352 63.2421C0.262879 64.8533 0.783569 66.4078 1.60552 67.806C2.42747 69.2041 3.53255 70.4151 4.84988 71.3612C6.1672 72.3073 7.66771 72.9677 9.25518 73.3C11.3552 73.74 13.6152 73.62 15.5352 74.57C16.8367 75.3495 18.0188 76.3128 19.0452 77.43C21.4752 79.7 24.5852 81.6 27.9052 81.38C30.8452 81.18 34.6552 78.19 33.7952 74.87C32.9952 71.8 28.9052 69.24 27.1952 66.59Z" fill="url(#paint0_linear)"/>
<path d="M244.665 104.06C244.615 104.33 244.565 104.61 244.525 104.88C242.175 118.059 235.113 129.933 224.655 138.29C218.925 142.84 212.035 146.47 208.565 152.91C206.385 156.91 205.825 161.62 205.385 166.2C202.785 192.96 201.675 219.12 204.595 245.85L196.595 247.41H163.705C160.525 247.41 150.615 248.26 141.765 248.24H141.715C134.715 248.24 128.305 247.6 126.565 245.56C126.503 245.493 126.449 245.42 126.405 245.34C126.324 245.234 126.254 245.12 126.195 245C126.115 244.86 126.025 244.72 125.945 244.56C125.865 244.4 125.765 244.2 125.675 244.01L125.585 243.83C123.245 238.53 123.455 229.34 122.915 224.18C122.155 216.84 121.675 209.45 120.855 202.11C119.155 187.24 115.755 171.98 106.665 160.11C105.355 158.41 102.955 155.74 99.9152 152.53C89.1152 141.12 70.1652 122.85 62.9152 116.46C61.7452 115.46 20.7152 83.75 20.3452 82.25C19.3452 77.91 31.4152 72.08 33.3452 68.08C46.8452 75.84 100.135 114.17 113.615 121.94C120.155 125.7 126.795 129.51 134.125 131.32C149.535 135.13 165.565 129.65 180.505 124.24C190.755 120.53 204.445 114.86 215.215 108.24C219.865 105.39 226.945 99.8 220.345 100.06C209.265 100.49 197.405 99.66 188.275 100.13C187.8 100.229 187.309 100.222 186.838 100.11C186.366 99.9973 185.924 99.7823 185.545 99.48C185.069 98.7959 184.882 97.9513 185.025 97.13C185.435 89.07 184.095 88.85 186.615 81.18C196.355 83.58 207.995 81.46 218.015 81.58C228.745 81.7 233.225 80.13 240.065 87.45C241.876 89.2639 243.292 91.4326 244.225 93.82C245.425 97.06 245.195 100.64 244.665 104.06Z" fill="#68E1FD"/>
<path d="M140.345 132.43C142.945 136.67 142.215 139.43 146.125 142.5C147.965 143.95 155.785 145.5 158.845 143.18C162.665 140.25 162.215 131.89 162.285 131.32C162.312 130.376 162.098 129.44 161.665 128.6C160.398 125.85 159.283 123.032 158.325 120.16C157.354 117.256 157.219 114.137 157.935 111.16C157.095 110.337 156.096 109.694 154.999 109.271C153.902 108.848 152.73 108.654 151.555 108.7C149.322 108.997 147.197 109.839 145.365 111.15C143.935 112.15 139.485 104.99 138.565 106.45C137.765 107.77 140.275 128.94 140.345 132.43Z" fill="url(#paint1_linear)"/>
<path d="M138.315 102.61C138.315 102.61 142.495 123.19 150.595 127.88C158.695 132.57 162.175 129.72 162.175 129.72L156.015 114.11L138.315 102.61Z" fill="url(#paint2_linear)"/>
<path d="M153.055 120.35C154.707 120.563 156.385 120.454 157.995 120.03C161.995 118.72 163.915 113.79 163.415 109.03C162.915 104.27 160.495 99.68 157.815 95.5C154.481 90.283 150.646 85.4033 146.365 80.93C144.083 78.3345 141.378 76.1436 138.365 74.45C136.382 73.4251 134.205 72.8319 131.976 72.7095C129.748 72.5871 127.518 72.9383 125.435 73.74C121.472 75.4298 118.247 78.4847 116.345 82.35C114.262 86.2717 113.498 90.7599 114.165 95.15C116.875 112.06 140.535 119.34 153.055 120.35Z" fill="url(#paint3_linear)"/>
<path d="M166.105 92.74C164.695 93.61 162.835 93.22 161.375 92.44C159.221 91.2961 157.585 89.3712 156.805 87.06C156.43 85.9034 156.309 84.6797 156.449 83.4719C156.588 82.2641 156.986 81.1005 157.615 80.06C158.615 78.52 160.095 77.24 160.415 75.46C160.415 75.46 172.155 66.16 174.225 52.98C176.295 39.8 189.735 51.98 189.735 51.98C189.735 51.98 204.615 65.19 197.595 73.32C196.895 74.0728 196.008 74.6281 195.026 74.93C194.043 75.2319 192.997 75.2698 191.995 75.04C188.995 74.46 183.085 74.92 174.575 82.91L166.105 92.74Z" fill="white"/>
<path d="M174.575 82.91C173.043 82.697 171.482 82.8582 170.025 83.38C168.465 84.2439 167.208 85.5671 166.425 87.17C165.686 88.2923 165.24 89.5813 165.125 90.92C165.075 92.71 166.035 94.35 166.975 95.87C167.492 96.8935 168.246 97.7783 169.175 98.45C170.155 98.9486 171.236 99.2187 172.335 99.24C174.135 99.42 176.085 99.55 177.625 98.59C178.213 98.106 178.842 97.6744 179.505 97.3C181.395 96.52 183.945 98.03 185.425 96.63C186.046 95.8601 186.359 94.8875 186.305 93.9L186.675 88.09C186.785 86.45 187.505 84.73 185.765 84.14C182.575 83.06 177.945 82.91 174.575 82.91Z" fill="url(#paint4_linear)"/>
<path d="M177.325 94.63C177.325 94.63 188.965 106.52 192.325 106.52C195.685 106.52 187.665 117.9 183.795 115.83C179.925 113.76 172.335 99.24 172.335 99.24C172.335 99.24 174.485 94.76 175.585 94.37C175.871 94.2471 176.185 94.2064 176.492 94.2523C176.8 94.2982 177.088 94.429 177.325 94.63V94.63Z" fill="white"/>
<path d="M197.154 71.4796C199.787 69.2905 197.611 62.3312 192.293 55.9355C186.976 49.5398 180.531 46.1296 177.898 48.3187C175.265 50.5078 177.441 57.4671 182.758 63.8628C188.076 70.2585 194.521 73.6687 197.154 71.4796Z" fill="#68E1FD"/>
<path d="M197.154 71.4796C199.787 69.2905 197.611 62.3312 192.293 55.9355C186.976 49.5398 180.531 46.1296 177.898 48.3187C175.265 50.5078 177.441 57.4671 182.758 63.8628C188.076 70.2585 194.521 73.6687 197.154 71.4796Z" fill="url(#paint5_linear)"/>
<path d="M138.925 70.93C138.006 74.5568 135.928 77.784 133.005 80.12C131.325 81.55 129.445 82.75 127.795 84.22C126.059 85.6138 124.777 87.494 124.115 89.62C123.596 92.3239 124.136 95.124 125.625 97.44C127.103 99.7211 128.733 101.899 130.505 103.96C130.743 104.187 130.921 104.469 131.024 104.781C131.127 105.093 131.152 105.426 131.095 105.75C130.845 106.45 129.945 106.65 129.205 106.6C128.306 106.54 127.434 106.273 126.655 105.82C126.242 105.518 125.767 105.31 125.265 105.21C124.833 105.23 124.425 105.412 124.121 105.719C123.817 106.027 123.64 106.438 123.625 106.87C123.623 107.744 123.924 108.592 124.475 109.27C125.348 110.481 126.476 111.487 127.778 112.218C129.08 112.949 130.526 113.386 132.015 113.5C132.058 113.647 132.071 113.801 132.054 113.953C132.037 114.106 131.99 114.253 131.915 114.387C131.841 114.521 131.741 114.638 131.621 114.733C131.5 114.828 131.363 114.899 131.215 114.94C130.607 115.085 129.969 115.043 129.385 114.82C127.835 114.38 126.325 113.82 124.825 113.25L119.015 111.06C116.695 110.2 114.375 109.34 112.095 108.39C110.309 107.79 108.686 106.784 107.355 105.45C105.925 103.81 105.355 101.57 105.035 99.45C104.535 97.3705 104.556 95.1997 105.095 93.13C105.735 91.21 107.195 89.56 107.345 87.55C107.495 85.54 106.205 83.55 105.235 81.71C104.115 79.55 103.385 77.01 104.115 74.71C104.766 72.899 106.067 71.3947 107.765 70.49C109.448 69.5924 111.276 69 113.165 68.74C114.805 68.45 116.575 68.22 117.825 67.11C120.685 64.59 119.175 59.11 122.185 56.81C125.395 54.32 130.545 57.47 133.535 59.12C135.62 60.2074 137.283 61.9596 138.259 64.0989C139.236 66.2383 139.47 68.6424 138.925 70.93V70.93Z" fill="#3F3D56"/>
<path d="M200.465 26L194.255 37.24" stroke="white" stroke-width="4.13" stroke-miterlimit="10" stroke-linecap="round"/>
<path d="M213.455 36.47L202.015 44.61" stroke="white" stroke-width="4.13" stroke-miterlimit="10" stroke-linecap="round"/>
<path d="M221.985 50.81L207.635 54.69" stroke="white" stroke-width="4.13" stroke-miterlimit="10" stroke-linecap="round"/>
<path d="M149.665 246.89C147.058 247.483 144.421 247.933 141.765 248.24H141.715C136.065 248.87 129.055 248.87 126.565 245.56C126.503 245.493 126.449 245.42 126.405 245.34C126.324 245.234 126.254 245.12 126.195 245C126.115 244.86 126.025 244.72 125.945 244.56C125.865 244.4 125.765 244.2 125.675 244.01L125.585 243.83C123.245 238.53 123.455 229.34 122.915 224.18C122.155 216.84 121.675 209.45 120.855 202.11C119.155 187.24 115.755 171.98 106.665 160.11C105.355 158.41 99.8452 152.11 96.8052 148.94L101.075 150.75C101.075 150.75 134.675 165.22 137.775 178.67C140.875 192.12 149.665 246.89 149.665 246.89Z" fill="url(#paint6_linear)"/>
<path d="M243.44 172L242.66 183.83L232 190.03L243.63 195.85L244.8 208.64L255.46 196.82L267.29 197.98L261.66 189.25L263.8 176.65L252.75 181.11L243.44 172Z" fill="#68E1FD"/>
<path d="M247.456 29L246.948 37.0718L240 41.3021L247.58 45.2732L248.342 54L255.29 45.935L263 46.7265L259.331 40.7699L260.725 32.1728L253.524 35.2159L247.456 29Z" fill="#68E1FD"/>
<path d="M95.2142 190L94.9269 194.52L91 196.889L95.2842 199.113L95.7152 204L99.6421 199.484L104 199.927L101.926 196.591L102.714 191.777L98.6438 193.481L95.2142 190Z" fill="#68E1FD"/>
<path d="M131.44 0L130.67 11.83L120 18.03L131.64 23.85L132.8 36.64L143.46 24.82L155.29 25.98L149.67 17.26L151.8 4.65L140.75 9.11L131.44 0Z" fill="#68E1FD"/>
<path d="M26.4834 131L26.047 137.78L20 141.334L26.5968 144.669L27.2542 152L33.2956 145.225L40 145.89L36.815 140.892L38.0221 133.665L31.7597 136.221L26.4834 131Z" fill="#68E1FD"/>
<defs>
<linearGradient id="paint0_linear" x1="0.00517804" y1="63.82" x2="33.9152" y2="63.82" gradientUnits="userSpaceOnUse">
<stop stop-color="#ECC4D7"/>
<stop offset="0.42" stop-color="#EFD4D1"/>
<stop offset="1" stop-color="#F2EAC9"/>
</linearGradient>
<linearGradient id="paint1_linear" x1="8372.7" y1="-15032.3" x2="9088.49" y2="-14813.9" gradientUnits="userSpaceOnUse">
<stop stop-color="#ECC4D7"/>
<stop offset="0.42" stop-color="#EFD4D1"/>
<stop offset="1" stop-color="#F2EAC9"/>
</linearGradient>
<linearGradient id="paint2_linear" x1="6248.06" y1="5089.13" x2="4830.95" y2="5788.82" gradientUnits="userSpaceOnUse">
<stop stop-color="#ECC4D7"/>
<stop offset="0.42" stop-color="#EFD4D1"/>
<stop offset="1" stop-color="#F2EAC9"/>
</linearGradient>
<linearGradient id="paint3_linear" x1="27449.4" y1="58407.6" x2="29221.1" y2="57510.3" gradientUnits="userSpaceOnUse">
<stop stop-color="#ECC4D7"/>
<stop offset="0.42" stop-color="#EFD4D1"/>
<stop offset="1" stop-color="#F2EAC9"/>
</linearGradient>
<linearGradient id="paint4_linear" x1="6216.68" y1="3939.29" x2="6691.76" y2="3939.29" gradientUnits="userSpaceOnUse">
<stop stop-color="#ECC4D7"/>
<stop offset="0.42" stop-color="#EFD4D1"/>
<stop offset="1" stop-color="#F2EAC9"/>
</linearGradient>
<linearGradient id="paint5_linear" x1="3934.42" y1="6071.26" x2="3657.02" y2="6151.02" gradientUnits="userSpaceOnUse">
<stop stop-opacity="0"/>
<stop offset="0.99"/>
</linearGradient>
<linearGradient id="paint6_linear" x1="15211.1" y1="32807.9" x2="-1426" y2="34925.8" gradientUnits="userSpaceOnUse">
<stop stop-opacity="0"/>
<stop offset="0.99"/>
</linearGradient>
</defs>
</svg>
