<svg id="Layer_1" data-name="Layer 1" xmlns="http://www.w3.org/2000/svg" xmlns:xlink="http://www.w3.org/1999/xlink" width="675.91" height="597" viewBox="0 0 675.91 597">
  <defs>
    <linearGradient id="linear-gradient" x1="349.76" y1="784.27" x2="332.87" y2="434.58" gradientUnits="userSpaceOnUse">
      <stop offset="0.01"/>
      <stop offset="0.97" stop-opacity="0"/>
    </linearGradient>
    <linearGradient id="linear-gradient-2" x1="551.68" y1="421.71" x2="716.32" y2="421.71" gradientTransform="translate(-96.1 -170)" gradientUnits="userSpaceOnUse">
      <stop offset="0" stop-color="#183866"/>
      <stop offset="1" stop-color="#1a7fc1"/>
    </linearGradient>
    <linearGradient id="linear-gradient-3" x1="583.41" y1="398.49" x2="585.3" y2="659.16" gradientTransform="translate(0 -170)" gradientUnits="userSpaceOnUse">
      <stop offset="0.02" stop-color="#fff" stop-opacity="0"/>
      <stop offset="1" stop-color="#fff"/>
    </linearGradient>
    <linearGradient id="linear-gradient-4" x1="2252.81" y1="1648.76" x2="2235.36" y2="1642.02" gradientTransform="translate(-2268.23 30.91) rotate(-28.61)" gradientUnits="userSpaceOnUse">
      <stop offset="0" stop-color="#ecc4d7"/>
      <stop offset="0.42" stop-color="#efd4d1"/>
      <stop offset="1" stop-color="#f2eac9"/>
    </linearGradient>
    <linearGradient id="linear-gradient-5" x1="407.83" y1="40.98" x2="410.02" y2="276.59" gradientTransform="translate(-96.1 -170)" xlink:href="#linear-gradient"/>
    <linearGradient id="linear-gradient-6" x1="679.19" y1="401.39" x2="636.81" y2="374.55" gradientTransform="translate(-96.1 -170)" xlink:href="#linear-gradient"/>
    <linearGradient id="linear-gradient-7" x1="439.7" y1="539.21" x2="417.93" y2="530.8" gradientTransform="translate(0 -170)" xlink:href="#linear-gradient-4"/>
    <linearGradient id="linear-gradient-8" x1="709.23" y1="374.99" x2="675.33" y2="376.4" gradientTransform="translate(-96.1 -170)" xlink:href="#linear-gradient"/>
    <linearGradient id="linear-gradient-9" x1="785.66" y1="469.95" x2="669.08" y2="424.91" gradientTransform="translate(-96.1 -170)" xlink:href="#linear-gradient-4"/>
    <linearGradient id="linear-gradient-10" x1="697.82" y1="333.78" x2="647.23" y2="314.24" gradientTransform="translate(-96.1 -170)" xlink:href="#linear-gradient-4"/>
    <linearGradient id="linear-gradient-11" x1="649.12" y1="365.74" x2="625.58" y2="354.91" gradientTransform="translate(-96.1 -170)" xlink:href="#linear-gradient"/>
    <linearGradient id="linear-gradient-12" x1="558.74" y1="367.59" x2="627.81" y2="367.59" gradientTransform="translate(-96.1 -170)" xlink:href="#linear-gradient-4"/>
    <linearGradient id="linear-gradient-13" x1="582.22" y1="48.83" x2="581.94" y2="22.93" gradientTransform="matrix(1, 0, 0, -1, 0, 598)" xlink:href="#linear-gradient"/>
    <linearGradient id="linear-gradient-14" x1="355.3" y1="358.47" x2="56.14" y2="361.76" gradientTransform="translate(-96.1 -170)" xlink:href="#linear-gradient"/>
    <linearGradient id="linear-gradient-15" x1="378.56" y1="589.77" x2="361.32" y2="375.89" gradientTransform="translate(-96.1 -170)" xlink:href="#linear-gradient"/>
    <linearGradient id="linear-gradient-16" x1="391.19" y1="185.64" x2="354.92" y2="419.63" gradientTransform="translate(-96.1 -170)" xlink:href="#linear-gradient-4"/>
    <linearGradient id="linear-gradient-17" x1="357.64" y1="373.22" x2="404.84" y2="449.18" gradientTransform="translate(-96.1 -170)" xlink:href="#linear-gradient-4"/>
    <linearGradient id="linear-gradient-18" x1="464.65" y1="440.97" x2="513.61" y2="440.97" gradientTransform="translate(-96.1 -170)" xlink:href="#linear-gradient-4"/>
  </defs>
  <title>8. Content Digital</title>
  <path d="M87.22,273.91c-15.39,26.55-31,53.65-37.49,83.65s-2.43,63.91,17.94,86.86c11.47,12.92,27,21.35,42.26,29.51,71.21,38.2,144.59,77.1,224.86,86.47A323.56,323.56,0,0,0,468,548c47.13-14.69,93.61-43.58,111.69-89.51,8.64-22,10.09-46,14.66-69.13,11.36-57.58,41.92-118.58,16.33-171.4-28-57.9-104.8-68-169.09-70.36-80.72-3-163.74-6.39-243.53,9.22C134.33,169.26,118.21,220.51,87.22,273.91Z" transform="translate(0)" fill="#68e1fd" opacity="0.18" style="isolation: isolate"/>
  <path d="M540.56,504.14c8.06-1.05,12.92-14.49-69.32-11.17-40-3.27-80.08-3.3-120.17-3.32-100.82-.07-238,6.67-338.81,6.61-6,0-14.69,4-11.63,9.22,1.18,2,3.7,2.72,6,3.24,121.27,27.71,284.06,12.21,407.51,27.53,25.45,1.3,35.29,11.15-2.92,35.41,9.37,25.45,41.2,25.42,51.62,25.33l180.45-1.47c8-.07,16.45-.24,23.41-4.23s11.63-13.17,7.88-20.27c-3.35-6.34-11.43-8.23-18.56-9-32.4-3.36-65.11,3-97.61,1-28.69-1.84-51.94-12.28-78.26-22.26C467.13,535.83,459.28,514.68,540.56,504.14Z" transform="translate(0)" opacity="0.56" fill="url(#linear-gradient)"/>
  <path d="M620.22,20.48V362a20.46,20.46,0,0,1-20.44,20.48H26.61A20.43,20.43,0,0,1,6.13,362.1V20.48A20.49,20.49,0,0,1,26.61,0H599.74A20.48,20.48,0,0,1,620.22,20.48Z" transform="translate(0)" fill="#68e1fd"/>
  <path d="M428,368.73s1.08,3.3,0,5.76a80.13,80.13,0,0,0-2.58,8l-29.33-.83s-.82-7.5,4.45-10.78,16.25-5.14,17.62-7.14Z" transform="translate(0)" fill="#25233a"/>
  <path d="M620.22,225.87V362a20.46,20.46,0,0,1-20.44,20.48H455.58V247.16a21.37,21.37,0,0,1,19.15-21.26c-1-1.15-1.91-2.33-2.79-3.56-5.87-8.07-16.11-26.83-13-37.2.88-2.92,3.46-5.5,6.5-5.53,3.76,0,6.46,3.48,8.51,6.64l8.76,13.46c2,3.11,4.13,6.3,7.26,8.3,6.09,3.9,14.51,2,20.17-2.46s9.19-11.09,12.57-17.49l7.61-14.43a14.29,14.29,0,0,1,3.28-4.6,29.36,29.36,0,0,0,3.13-2.31c1.24-1.34,1.57-3.25,1.85-5.06l3.24-20.75c.74-4.69,1.52-9.53,4-13.56s7.17-7.12,11.84-6.27c4.29.77,7.47,4.65,8.74,8.83s1,8.63.63,13l-1.65,22.57,4.4-.42c2.12,5.61-1.11,11.73-1.38,17.73-.33,7,3.2,14.8-.88,20.47-2.75,3.82-8.45,5.58-9.42,10.19-.73,3.48,1.71,7.22.44,10.55a6.05,6.05,0,0,1-1.1,1.8h60.91A14.62,14.62,0,0,1,620.22,225.87Z" transform="translate(0)" opacity="0.19" fill="url(#linear-gradient-2)" style="isolation: isolate"/>
  <path d="M596.77,318H172.06a5.16,5.16,0,0,1-5.16-5.15h0a5.16,5.16,0,0,1,5.16-5.16H596.77a5.16,5.16,0,0,1,5.16,5.16h0A5.16,5.16,0,0,1,596.77,318Z" transform="translate(0)" fill="#fff" opacity="0.18" style="isolation: isolate"/>
  <path d="M642,563.58H500.53c-4.12,0-2.56,15.1-5.83,13.07-.67-.42-10-10.6-10.65-11.09-5-3.91-4.88-16.52-4.88-23.35V303.05a21.36,21.36,0,0,1,21.35-21.37H642c14.72.56,18.94,10.81,19.13,11.84s9.44,17.52,9.44,18.62l-7.21,230.07A21.36,21.36,0,0,1,642,563.58Z" transform="translate(0)" fill="#25233a"/>
  <rect x="490.5" y="303.39" width="184.16" height="281.9" rx="21.37" fill="#68e1fd"/>
  <rect x="502.29" y="335.01" width="165.33" height="212.39" rx="17.58" fill="url(#linear-gradient-3)"/>
  <path d="M493.84,405.81s2.52,2.38,2.75,5.06a82.44,82.44,0,0,0,1.55,8.24L472,432.42s-4.31-6.2-1.25-11.6,11.8-12.28,12-14.7Z" transform="translate(0)" fill="#25233a"/>
  <polygon points="481.45 398.57 483.22 408.42 493.66 407.24 491.95 397.08 481.45 398.57" fill="url(#linear-gradient-4)"/>
  <path d="M620.22,20.48v12H6.13v-12A20.49,20.49,0,0,1,26.61,0H599.74A20.48,20.48,0,0,1,620.22,20.48Z" transform="translate(0)" fill="url(#linear-gradient-5)"/>
  <rect x="167.91" y="59.64" width="296.59" height="231.1" fill="#fff" opacity="0.57" style="isolation: isolate"/>
  <path d="M348.81,209.55a58.45,58.45,0,0,1-1.16,12.17c-1.64,6.78-5.65,12.73-9.59,18.5a19.29,19.29,0,0,0-16.4-8c-9.3-.38-18.52,1.1-27.71,2.91-14.21,2.78-28.36,6.34-42.68,5.05-7.25-.66-14.37-2.55-21.65-2.81-14.14-.53-27.67,5.08-41.16,9.35-2.12.67-5.12.92-5.89-1.17a4.38,4.38,0,0,1,.2-2.79,144.1,144.1,0,0,0,5.13-23.42c1.56-13.48.2-27.11-1.18-40.61-1.49-14.73-3-29.47-5.09-44.13-2.17-15.16-4.94-30.93-.35-45.54a25.91,25.91,0,0,1,6-10.72,31,31,0,0,1,8.08-5.42A78.7,78.7,0,0,1,213.2,66.1a114.1,114.1,0,0,1,16.47-2.19l28.48-2.39c7.36-.62,14.84-1.23,22.08.2A40.07,40.07,0,0,1,300.84,72.9c.9.91,1.87,1.94,3.14,2.07a5.59,5.59,0,0,0,3-.85c8.51-4.08,17.73-4,26.6-1.25,8.32,2.58,10.32,8.67,10.63,17.13q.33,7.92.32,15.83a405.45,405.45,0,0,1-3,49.26c-1.17,9.5-2.63,19.43.72,28.4,1.58,4.2,4.16,8,5.45,12.29S348.9,204.93,348.81,209.55Z" transform="translate(0)" fill="#3f3d56"/>
  <path d="M348.81,209.55a58.45,58.45,0,0,1-1.16,12.17c-1.64,6.78-5.65,12.73-9.59,18.5a19.29,19.29,0,0,0-16.4-8c-9.3-.38-18.52,1.1-27.71,2.91L259.77,224.4l7.46-55.82L298.79,96s33.5-16.77,41.31-3.64c1.49,2.5,3,7.33,4.43,13.52a405.45,405.45,0,0,1-3,49.26c-1.17,9.5-2.63,19.43.72,28.4,1.58,4.2,4.16,8,5.45,12.29S348.9,204.93,348.81,209.55Z" transform="translate(0)" fill="#25233a"/>
  <rect x="22.69" y="59.64" width="129.55" height="122.89" fill="#fff" opacity="0.57" style="isolation: isolate"/>
  <rect x="22.69" y="196.75" width="129.55" height="122.89" fill="#fff" opacity="0.57" style="isolation: isolate"/>
  <path d="M606.11,87.3H499.39a5.16,5.16,0,0,1-5.15-5.16h0A5.16,5.16,0,0,1,499.39,77H606.11a5.16,5.16,0,0,1,5.16,5.15h0A5.16,5.16,0,0,1,606.11,87.3Z" transform="translate(0)" fill="#fff" opacity="0.18" style="isolation: isolate"/>
  <path d="M606.11,115H499.39a5.16,5.16,0,0,1-5.15-5.16h0a5.17,5.17,0,0,1,5.15-5.15H606.11a5.16,5.16,0,0,1,5.16,5.15h0A5.16,5.16,0,0,1,606.11,115Z" transform="translate(0)" fill="#fff" opacity="0.18" style="isolation: isolate"/>
  <path d="M606.11,142.64H499.39a5.16,5.16,0,0,1-5.15-5.16h0a5.17,5.17,0,0,1,5.15-5.15H606.11a5.16,5.16,0,0,1,5.16,5.15h0A5.16,5.16,0,0,1,606.11,142.64Z" transform="translate(0)" fill="#fff" opacity="0.18" style="isolation: isolate"/>
  <path d="M606.11,170.31H499.39a5.16,5.16,0,0,1-5.15-5.16h0a5.17,5.17,0,0,1,5.15-5.15H606.11a5.16,5.16,0,0,1,5.16,5.15h0A5.16,5.16,0,0,1,606.11,170.31Z" transform="translate(0)" fill="#fff" opacity="0.18" style="isolation: isolate"/>
  <path d="M606.11,198H499.39a5.16,5.16,0,0,1-5.15-5.16h0a5.17,5.17,0,0,1,5.15-5.15H606.11a5.16,5.16,0,0,1,5.16,5.15h0A5.16,5.16,0,0,1,606.11,198Z" transform="translate(0)" fill="#fff" opacity="0.18" style="isolation: isolate"/>
  <path d="M606.11,225.65H499.39a5.16,5.16,0,0,1-5.15-5.16h0a5.17,5.17,0,0,1,5.15-5.15H606.11a5.16,5.16,0,0,1,5.16,5.15h0A5.16,5.16,0,0,1,606.11,225.65Z" transform="translate(0)" fill="#fff" opacity="0.18" style="isolation: isolate"/>
  <path d="M518.12,241.62s-47.61,1.88-55.33,9.82-42.2,105-42.2,105l16.89,6.33s35.1-68.81,37.95-72,40.76-2.17,53.45-6.92S555.27,265,555.27,265Z" transform="translate(0)" fill="#25233a"/>
  <path d="M547.11,179.06l-29,62.56s12.25,26,37.15,23.33l8.44-1.84,17.2-42.62,13.71-32.82s.23-12.29-9.15-12.88S561.9,163.59,547.11,179.06Z" transform="translate(0)" fill="#68e1fd"/>
  <path d="M547.11,179.06l-29,62.56s12.25,26,37.15,23.33l8.44-1.84,17.2-42.62,13.71-32.82s.23-12.29-9.15-12.88S561.9,163.59,547.11,179.06Z" transform="translate(0)" fill="url(#linear-gradient-6)"/>
  <path d="M478.51,295.16l47.92-41.81,37.28,9.76s-6.55,34.65-18.8,41S502.29,322,502.29,322l-7.49,77.77-13.25.65s-12.42-87.07-10.31-92.74S478.51,295.16,478.51,295.16Z" transform="translate(0)" fill="#3f3d56"/>
  <polygon points="420.6 356.44 417.44 365.94 427.17 369.9 433.42 361.25 420.6 356.44" fill="url(#linear-gradient-7)"/>
  <path d="M589.68,176.11s6.51,3.48,9.56,15.12,6.87,34.42,6.87,34.42L585.53,236l-4.63-35S580.34,181.91,589.68,176.11Z" transform="translate(0)" fill="#68e1fd"/>
  <path d="M589.68,176.11s6.51,3.48,9.56,15.12,6.87,34.42,6.87,34.42L585.53,236l-4.63-35S580.34,181.91,589.68,176.11Z" transform="translate(0)" fill="url(#linear-gradient-8)"/>
  <path d="M601.9,298.43,585.53,236l16.55-8.33s11.87,68.51,12.6,69.21,8.62,4.33,17.62,7.24c10.08,3.25,1.53,4.25-7.09,4.49S604.61,310.29,601.9,298.43Z" transform="translate(0)" fill="url(#linear-gradient-9)"/>
  <path d="M561.42,129.86s-6.84,16.17-8.58,16.69,1.87,3.37,1.87,3.37-.14,4.33,0,6,2.47,3,6.36,3.48-1,13.21-1,13.21-2.1,5,12.32,1.3l3.93-.47s10.58-32.28,10.48-36S568.9,117.69,561.42,129.86Z" transform="translate(0)" fill="url(#linear-gradient-10)"/>
  <path d="M553.41,114.14a6.71,6.71,0,0,0-.29,6.71,33.27,33.27,0,0,1,2,3A12.74,12.74,0,0,0,556,126c.78,1.22,2.28,1.41,3.61,1.5l7.39.5a11,11,0,0,1,5.48,1.33c3.45,2.24,4.13,7.71,3.16,12.09-.43,1.92-.91,4.41.55,5.49a5.73,5.73,0,0,1,.91-2.52,1.5,1.5,0,0,1,2.06-.45h0l.1.07a2.23,2.23,0,0,1,.54,1.11,5.19,5.19,0,0,1-2.3,5.55c-.55.29-1.21.5-1.51,1.11-.57,1.15.63,2.33,1.45,3.27a7.06,7.06,0,0,1,1.44,6.06c3.38-1.83,4-6.89,5.68-10.67s5.18-7,5.61-11.4a8.74,8.74,0,0,0-2.2-6.73,3.72,3.72,0,0,1-1.22-1.75,6.63,6.63,0,0,1,.43-2.41c.48-2.52-1.68-4.61-3.66-5.86a3.86,3.86,0,0,1-1.62-1.53c-1.71-3.66-1.45-5.17-5.56-6.3a17.2,17.2,0,0,0-7.34-.58c-3.52.55-4.84,1-8.1-.75C558.26,111.74,555.41,111.19,553.41,114.14Z" transform="translate(0)" fill="#3f3d56"/>
  <path d="M560,172.59s-13.92,1.66-25.48,15.08-13.44,12.16-13.44,12.16l10.61,12.47S546.12,178.48,560,172.59Z" transform="translate(0)" fill="#68e1fd"/>
  <path d="M560,172.59s-13.92,1.66-25.48,15.08-13.44,12.16-13.44,12.16l10.61,12.47S546.12,178.48,560,172.59Z" transform="translate(0)" fill="url(#linear-gradient-11)"/>
  <path d="M531.71,212.3l-6.5,15.38s-11.88,8.16-25.82-2S478.51,178,478.51,178s-7.15-7.07-14-9.32,6.74-5.89,14-3.29,8.51,1.83,8.51,1.83,3.42-3.44,5.32-2.73-3.44,10.3-3.44,10.3,9.74,35.9,17.16,37.51,12.39,1.51,15.87-3l3.47-4.49Z" transform="translate(0)" fill="url(#linear-gradient-12)"/>
  <rect x="560.55" y="556.89" width="43.02" height="14.77" rx="7.38" fill="#68e1fd"/>
  <rect x="560.55" y="556.89" width="43.02" height="14.77" rx="7.38" fill="url(#linear-gradient-13)"/>
  <path d="M52.46,0C49.3,0,22.69.93,22.69,32.46V382.1A20.5,20.5,0,0,1,6.13,362V20.48A20.49,20.49,0,0,1,26.61,0Z" transform="translate(0)" fill="url(#linear-gradient-14)"/>
  <path d="M187.9,231.05l-20,10.57v49.12h220s-20.3-57.48-102.28-63.06c-54.72-3.68-48.09-4.1-68.72-3.94A63,63,0,0,0,187.9,231.05Z" transform="translate(0)" fill="#68e1fd"/>
  <path d="M175.53,290.74s5.53-41.87,49.89-48.1,97.65,6.62,105.29,10.71c39.08,20.88,37.84,37.39,37.84,37.39Z" transform="translate(0)" fill="url(#linear-gradient-15)"/>
  <path d="M301.5,212.29c-9.68,0-16.25-.16-20.73.09-8,.45-9.33,2.16-9.77,8.11-.58,7.8,9.61,29.85,6.32,38.17a4.66,4.66,0,0,1-3.48,3.07s-38.76,0-65.57-37.33c0,0,18.89-18.76,17.14-45.35s-11.29-70.2-1.79-74.89S316.4,81,328.9,114.48,328.61,212.37,301.5,212.29Z" transform="translate(0)" fill="url(#linear-gradient-16)"/>
  <path d="M258.55,117.64c-3.5,9-3.07,19.22-3.76,29s-3.14,20.48-10.26,26c-1.6,1.24-3.44,2.2-4.67,3.91-3.14,4.35-1,10.88-1.76,16.46-1.43,10.52-12.33,15.12-17.91,23.62-3.41,5.2-4.76,11.86-8.05,17.16s-10.13,8.94-14.57,4.88c-2.28-2.09-3.18-5.56-3.9-8.81a400.87,400.87,0,0,1-7.94-122.8c1.34-14.84,4.73-31.67,16.21-38.65,4.53-2.75,9.74-3.53,14.83-4.27,29.35-4.24,61.35-7.88,86.52,10,2.32,1.64,4.64,3.58,5.78,6.41,5.91,14.69-17.42,13.84-23.48,15.37C274.52,98.65,263.39,105.22,258.55,117.64Z" transform="translate(0)" fill="#3f3d56"/>
  <path d="M277.32,258.66a5.12,5.12,0,0,1-3.05,0c-2.07-.61-3.51-2.41-4.79-4.14-6.51-8.72-12.6-18.32-13.87-29.13-.49-4.16-.08-8.81,2.84-11.82,2.35-2.41,5.85-3.28,9.2-3.66,3.18-.36,2.52.27,9.51.64,1.27.07,13.36.87,14.5,1.64-18.12.25-20.22,2.3-20.66,8.25C270.42,228.29,280.61,250.34,277.32,258.66Z" transform="translate(0)" fill="url(#linear-gradient-17)"/>
  <path d="M368.55,290.74s14.19-27.14,23-29,11.66-8.86,17.76-10.29,6.79,3.14,8.08,13.51-7.93,25.79-7.93,25.79Z" transform="translate(0)" fill="url(#linear-gradient-18)"/>
  <rect x="510.11" y="356.44" width="149.15" height="49.37" rx="10.59" fill="#68e1fd"/>
  <rect x="541.57" y="417.22" width="106.9" height="7.82" rx="3.31" fill="#68e1fd"/>
  <rect x="541.57" y="450.14" width="106.9" height="7.82" rx="3.31" fill="#68e1fd"/>
  <rect x="541.57" y="483.06" width="106.9" height="7.82" rx="3.31" fill="#68e1fd"/>
  <rect x="541.57" y="514.68" width="106.9" height="7.82" rx="3.31" fill="#68e1fd"/>
</svg>
