<svg id="Layer_1" data-name="Layer 1" xmlns="http://www.w3.org/2000/svg" xmlns:xlink="http://www.w3.org/1999/xlink" width="608.4" height="600.75" viewBox="0 0 608.4 600.75">
  <defs>
    <linearGradient id="linear-gradient" x1="364.14" y1="284.23" x2="323.03" y2="274.1" gradientUnits="userSpaceOnUse">
      <stop offset="0.02" stop-color="#fff" stop-opacity="0"/>
      <stop offset="0.58" stop-color="#fff" stop-opacity="0.39"/>
      <stop offset="0.68" stop-color="#fff" stop-opacity="0.68"/>
      <stop offset="1" stop-color="#fff"/>
    </linearGradient>
    <linearGradient id="linear-gradient-2" x1="295.85" y1="255.71" x2="281.49" y2="255.85" xlink:href="#linear-gradient"/>
    <linearGradient id="linear-gradient-3" x1="278.63" y1="452.85" x2="374.93" y2="169.6" gradientUnits="userSpaceOnUse">
      <stop offset="0.01"/>
      <stop offset="0.13" stop-opacity="0.69"/>
      <stop offset="1" stop-opacity="0"/>
    </linearGradient>
    <clipPath id="clip-path" transform="translate(-88.87 -2.38)">
      <path d="M114.09,348.24c.32,17.92,9.46,35.2,7.54,53-1.22,11.27-6.77,21.58-9.75,32.52a73.89,73.89,0,0,0,16.79,68.3c27.3,29.45,72.85,31.37,108.07,50.67,14.51,8,27.32,18.93,42.44,25.66,18.53,8.24,39.28,9.58,59.54,10.42,47.25,1.95,96.73,1.33,138.72-20.43,17.86-9.25,34.08-22.21,53.46-27.61,17.5-4.88,36.06-3.16,54.17-4.62,41.73-3.37,83.91-27.28,98.75-66.42,6.66-17.56,7.49-36.71,8.24-55.48,2.21-54.71,4.08-111.38-16.59-162.07-6.9-16.92-16.27-33-20.27-50.83-5.78-25.78.14-53.06-5.26-78.92-.82-3.94-2-8-4.65-11-3.59-4.06-9.19-5.51-14.17-7.66-27.66-11.92-37.33-45.73-57.56-68C551,10.9,515.39,1.32,481.88,2.89s-65.7,12.9-97.33,24.1L200.18,92.34C191,95.61,181.41,99.08,174.49,106c-5.83,5.82-9.25,13.57-12.2,21.26a245.81,245.81,0,0,0-14.75,119.49C151.91,283.5,113.4,311,114.09,348.24Z" fill="none"/>
    </clipPath>
    <linearGradient id="linear-gradient-4" x1="374.12" y1="225.7" x2="427.73" y2="692.37" xlink:href="#linear-gradient-3"/>
    <linearGradient id="linear-gradient-5" x1="211.61" y1="137.83" x2="202.04" y2="169.74" gradientTransform="translate(245.46 -92.81) rotate(60)" xlink:href="#linear-gradient"/>
    <linearGradient id="linear-gradient-6" x1="235.55" y1="158.37" x2="215.09" y2="156.31" gradientTransform="translate(366.07 -96.79) rotate(82.97)" xlink:href="#linear-gradient"/>
    <linearGradient id="linear-gradient-7" x1="336.19" y1="544.5" x2="347.5" y2="544.5" gradientUnits="userSpaceOnUse">
      <stop offset="0" stop-color="#ecc4d7"/>
      <stop offset="0.42" stop-color="#efd4d1"/>
      <stop offset="1" stop-color="#f2eac9"/>
    </linearGradient>
    <linearGradient id="linear-gradient-8" x1="398.8" y1="541.11" x2="411" y2="541.11" xlink:href="#linear-gradient-7"/>
    <linearGradient id="linear-gradient-9" x1="492.4" y1="500.45" x2="484.03" y2="176.9" xlink:href="#linear-gradient-3"/>
    <linearGradient id="linear-gradient-10" x1="500.28" y1="270.69" x2="496.89" y2="393.55" xlink:href="#linear-gradient-3"/>
    <linearGradient id="linear-gradient-11" x1="360.05" y1="417.41" x2="410.61" y2="417.41" gradientTransform="matrix(1, 0, 0, -1, 0, 598)" xlink:href="#linear-gradient-7"/>
    <linearGradient id="linear-gradient-12" x1="381.26" y1="389.89" x2="405.71" y2="389.89" gradientTransform="matrix(1, 0, 0, -1, 0, 598)" xlink:href="#linear-gradient-7"/>
    <linearGradient id="linear-gradient-13" x1="371.29" y1="222.44" x2="411.75" y2="222.44" xlink:href="#linear-gradient-3"/>
    <linearGradient id="linear-gradient-14" x1="313.27" y1="204.06" x2="340.34" y2="204.06" gradientTransform="matrix(1, 0, 0, -1, 0, 598)" xlink:href="#linear-gradient-7"/>
    <linearGradient id="linear-gradient-15" x1="260.62" y1="236.39" x2="138.14" y2="229.64" xlink:href="#linear-gradient-3"/>
    <linearGradient id="linear-gradient-16" x1="223.71" y1="301.87" x2="222.58" y2="590.19" xlink:href="#linear-gradient-3"/>
    <linearGradient id="linear-gradient-17" x1="88.3" y1="356.25" x2="184.9" y2="356.25" xlink:href="#linear-gradient-3"/>
    <linearGradient id="linear-gradient-18" x1="138.14" y1="305.93" x2="137.01" y2="338.59" xlink:href="#linear-gradient"/>
    <linearGradient id="linear-gradient-19" x1="443" y1="160.12" x2="437.09" y2="377.2" xlink:href="#linear-gradient-3"/>
    <linearGradient id="linear-gradient-20" x1="534.23" y1="155.47" x2="528.32" y2="372.55" xlink:href="#linear-gradient-3"/>
    <linearGradient id="linear-gradient-21" x1="510.51" y1="455.7" x2="515.02" y2="214.68" xlink:href="#linear-gradient-3"/>
    <linearGradient id="linear-gradient-22" x1="516.02" y1="379.94" x2="514.33" y2="461.59" xlink:href="#linear-gradient-3"/>
    <linearGradient id="linear-gradient-23" x1="543.09" y1="360.87" x2="659.27" y2="360.87" xlink:href="#linear-gradient"/>
    <linearGradient id="linear-gradient-24" x1="465.43" y1="444.81" x2="708.88" y2="483.16" gradientUnits="userSpaceOnUse">
      <stop offset="0.01"/>
      <stop offset="0.46" stop-opacity="0.18"/>
      <stop offset="0.52" stop-opacity="0.13"/>
      <stop offset="1" stop-opacity="0"/>
    </linearGradient>
    <linearGradient id="linear-gradient-25" x1="332.24" y1="325.56" x2="388.84" y2="324.72" xlink:href="#linear-gradient-3"/>
    <linearGradient id="linear-gradient-26" x1="385.17" y1="291.41" x2="444.52" y2="273.86" xlink:href="#linear-gradient-3"/>
  </defs>
  <title>Convert</title>
  <path d="M347.06,270.7c1.69-9.29-2.89-21.08-2.89-21.08-.9-1.3-2.8.2-3.8,1.5-3.2,4.3-8.4,6.6-13.3,8.7-5.7,2.5-11.3,4.9-17,7.4-.5,5,2.9,9.4,5.9,13.4a159.69,159.69,0,0,1,15.7,25.6S345.37,280,347.06,270.7Z" transform="translate(-88.87 -2.38)" fill="#68e1fd"/>
  <path d="M347.06,270.7c1.69-9.29-2.89-21.08-2.89-21.08-.9-1.3-2.8.2-3.8,1.5-3.2,4.3-8.4,6.6-13.3,8.7-5.7,2.5-11.3,4.9-17,7.4-.5,5,2.9,9.4,5.9,13.4a159.69,159.69,0,0,1,15.7,25.6S345.37,280,347.06,270.7Z" transform="translate(-88.87 -2.38)" opacity="0.69" fill="url(#linear-gradient)" style="isolation: isolate"/>
  <path d="M277.37,294.9v-72s1.6-17.6,16.5-20.9v11.9s-5.5,4-5.5,10.1v82.4S280.67,319,277.37,294.9Z" transform="translate(-88.87 -2.38)" fill="#68e1fd"/>
  <path d="M277.65,294.83v-72s1.6-17.6,16.5-20.9v11.9s-5.5,4-5.5,10.1v82.4S281,318.93,277.65,294.83Z" transform="translate(-88.87 -2.38)" opacity="0.69" fill="url(#linear-gradient-2)" style="isolation: isolate"/>
  <rect x="197.37" y="300.25" width="222.63" height="128.4" fill="#68e1fd"/>
  <rect x="197.37" y="300.25" width="222.63" height="128.4" fill="url(#linear-gradient-3)"/>
  <rect x="375.7" y="299.65" width="213.7" height="169.71" fill="#68e1fd"/>
  <g clip-path="url(#clip-path)">
    <rect y="425.55" width="608.4" height="175.2" fill="#68e1fd" opacity="0.18" style="isolation: isolate"/>
    <path d="M124.79,437.74a14,14,0,0,0-5,3.56c-2.82,3.62-1.62,9.17,1.44,12.58s7.49,5.21,11.76,6.89c-7.18,3.2-6.36,14.68-.33,19.71s14.56,5.42,22.42,5.57L275,488.35c16.74.32,36.94-1.27,44.75-16.08,6.5,17,.19,37.93-14.59,48.48-6,4.27-13.52,7.43-16.37,14.19-3.08,7.32.93,15.95,6.83,21.26,9.44,8.49,22.71,11,35.32,12.45a348.77,348.77,0,0,0,70.7,1c7.45-.66,15.57-1.89,20.61-7.41,5.78-6.34,5.45-16.2,2.92-24.39S418.3,522,417,513.53c-1.59-10.16,1.35-20.42,4.25-30.28,1.09-3.72,2.54-7.87,6.07-9.5,2.12-1,4.57-.8,6.9-.62a1944,1944,0,0,0,246.37,4.14c5.45-5.43,2.47-15.45-3.84-19.85s-14.49-4.77-22.17-5.07c-71.36-2.77-76.11-34.77-147-42.84S299.33,417.19,228,419.7C193,420.92,156.65,421.75,124.79,437.74Z" transform="translate(-88.87 -2.38)" fill="url(#linear-gradient-4)"/>
  </g>
  <rect x="177.96" y="144.58" width="50.3" height="43.2" transform="translate(-131.23 256.6) rotate(-60)" fill="#68e1fd"/>
  <rect x="177.96" y="144.58" width="50.3" height="43.2" transform="translate(-131.23 256.6) rotate(-60)" opacity="0.69" fill="url(#linear-gradient-5)" style="isolation: isolate"/>
  <rect x="210.77" y="139" width="54" height="39.2" transform="translate(-37.61 372.79) rotate(-82.97)" fill="#68e1fd"/>
  <rect x="210.77" y="139" width="54" height="39.2" transform="translate(-37.61 372.79) rotate(-82.97)" opacity="0.69" fill="url(#linear-gradient-6)" style="isolation: isolate"/>
  <path d="M337.07,540a2.69,2.69,0,0,1,.5-1.5,2.56,2.56,0,0,1,1.9-.8,16.84,16.84,0,0,1,6.7.3,1.64,1.64,0,0,1,1.2.7,1.73,1.73,0,0,1,.1,1c-.3,3.4-.7,6.7-1,10.1a.73.73,0,0,1-.2.6c-.2.3-.5.3-.8.4a13.21,13.21,0,0,1-4.8.6C334.07,550.92,336.57,544.42,337.07,540Z" transform="translate(-88.87 -2.38)" fill="url(#linear-gradient-7)"/>
  <path d="M399.77,536.32a4.8,4.8,0,0,1,.5-1.7,3.08,3.08,0,0,1,2-.9,18,18,0,0,1,7.3.3,1.65,1.65,0,0,1,1.3.8c.2.3.1.7.1,1.1-.4,3.7-.7,7.4-1.1,11.1,0,.2,0,.5-.2.6a1,1,0,0,1-.9.4,18.82,18.82,0,0,1-5.3.7C396.47,548.22,399.27,541.12,399.77,536.32Z" transform="translate(-88.87 -2.38)" fill="url(#linear-gradient-8)"/>
  <path d="M338.67,380.52q-3.45,81.45-3,163c3.3-.2,16.61-1.36,17.31-2s.4-3.1.6-3.9c12.1-44.3,5-75.5,23.09-132.54,3.1,45.2,6.9,63.5,15.6,131.5a5.19,5.19,0,0,0,1.6,3.1,7.94,7.94,0,0,0,3.7,1.4c5.1.8,10.6,1.6,15.3-.5a3.33,3.33,0,0,0,1.9-1.6,3.75,3.75,0,0,0,0-2.1c-2.3-12.4-3.9-47.7-3.9-62.7,0-45.8,6-65.3,3-111-.8-11.7-2.1-23.6-.4-35.2-4.1-9.2-15.9-10.7-25.9-10.9a43,43,0,0,0-12.4,1.4c-11.7,3.3-20.3,13.1-28.2,22.3-2.3,2.7-4.6,5.4-5.8,8.7s-1.2,7-1.3,10.6C339.67,367.82,339,372.82,338.67,380.52Z" transform="translate(-88.87 -2.38)" fill="#3f3d56"/>
  <path d="M428.67,8.62c-7.1.2-14.3.4-20.8,3.3s-12,9.1-11.7,16.2c.1,3.8,1.8,7.3,2.5,11s-.1,8.2-3.4,10c-1.6.9-3.4,1-5.2,1.3a17.48,17.48,0,0,0-13.5,16.2c-.1,7.6-1,18,6.4,19.7-4.6-1.9-9.7,2.8-10.2,7.7s2.1,9.6,4.7,13.9c-8.7-1.1-18.1-1.8-25.7,2.6-11,6.3-13.6,23.5-5,32.8a19.7,19.7,0,0,0-19.2,32.7c-9.2,1.4-18.6,4.1-25.5,10.3s-11.86,18.63-8.36,27.23c5.49,1.26,4.36-6.13,6.86-5.33s4.6,2.5,6.9,3.6c7.3,3.6,17.1.5,21-6.5.7-1.2,1.6-2.8,3-2.6a3.9,3.9,0,0,1,2,1.3c5.9,5.8,16.9,5.2,22.1-1.2,2.5,4.4,8.8,4.2,13.8,3.4,22-3.4,57.3,10.5,79.5,11.7,7.6.4,15.4.4,22.4-2.5,20-8.1,24.7-33.8,26.4-55.4,5.1,14.9,25.6,20.5,39.6,13.2s21.4-23.7,21.9-39.5-4.6-31.2-10.2-45.9c-.2,9.1,13.1,13.4,20.5,8.1s9.1-15.7,8.2-24.7c-2.5-26-25.3-49.9-51.4-49.2,4.6,3.2,8,1.8,10.8-3s2.8-10.8,2.7-16.4" transform="translate(-88.87 -2.38)" fill="#68e1fd" opacity="0.18" style="isolation: isolate"/>
  <path d="M461.09,6.6c-7.08-.53-25.2,16.87-32,19.08s-12.88,7.82-13.31,14.91c-.29,3.79,1,7.45,1.36,11.2s-.95,8.15-4.41,9.6c-1.69.73-3.49.64-5.31.76a17.49,17.49,0,0,0-15.1,14.72c-.88,7.55-2.84,17.8,4.34,20.25-4.38-2.36-9.93,1.79-10.93,6.61s1.1,9.77,3.24,14.31c-8.54-2-17.82-3.65-25.83-.06-11.59,5.14-15.95,22-8.35,32.12a19.69,19.69,0,0,0-22.46,30.55c-9.3.44-18.93,2.16-26.43,7.62s-13.72,17.3-11.12,26.21c5.33,1.83,5-5.64,7.38-4.58s4.31,3,6.49,4.29c6.89,4.33,17,2.26,21.56-4.31.82-1.12,1.88-2.62,3.25-2.27a3.9,3.9,0,0,1,1.85,1.49c5.28,6.38,16.28,6.92,22.11,1.09,2,4.63,8.32,5.08,13.38,4.8,22.23-1.12,55.91,16.34,77.87,19.82,7.52,1.18,15.28,2,22.54-.18,20.73-6,28.05-31.08,32-52.39,3.54,15.34,23.35,23,38,17.2s23.73-21.37,25.85-37-1.36-31.5-5.42-46.7c-1.14,9,11.65,14.68,19.56,10.17s10.66-14.68,10.69-23.73c.19-26.12-20-52.24-46.06-54.23,4.25,3.66,7.77,2.62,11-1.87S580.56,8,581,2.38" transform="translate(-88.87 -2.38)" fill="#68e1fd" opacity="0.18" style="isolation: isolate"/>
  <rect x="418.1" y="176.15" width="139.4" height="292.93" fill="#68e1fd"/>
  <rect x="418.1" y="176.15" width="139.4" height="292.93" fill="url(#linear-gradient-9)"/>
  <rect x="418.1" y="300.71" width="158.25" height="161.31" fill="url(#linear-gradient-10)"/>
  <path d="M361.77,175.62c-.9,1.8-2.1,3.8-1.6,5.8a10.34,10.34,0,0,0,1.2,2.6c3.6,7,.5,17,6.3,22.2,2.6,2.3,6.3,2.9,9.7,2.8,10.2-.5,19.3-7,25.4-15.2,4.2-5.6,7.4-12.2,7.8-19.1s-2.3-14.3-7.9-18.5c-5.8-4.3-13.7-4.6-20.8-3.6-5.6.8-13,2.9-16.3,8C362.77,165,364.07,170.82,361.77,175.62Z" transform="translate(-88.87 -2.38)" fill="url(#linear-gradient-11)"/>
  <path d="M360,139.12c-3.3,7-2.1,15.7,2.5,21.9,3,4.1,8,7.4,13.1,6.4,1.3-.2,2.8-.7,3.7.2a6.08,6.08,0,0,1,.9,1.8c1.4,3.1,5.7,3.5,9,2.7a6.13,6.13,0,0,1,3-.2c1.4.5,2,2,2.3,3.4a17.65,17.65,0,0,1-.4,9.4c1.4.6,2.6-1.3,3.2-2.7s2.5-3,3.5-1.8c1.6,1.8,1.1,4.7-.2,6.7s-3.4,3.4-5,5.1c-2.6,2.7-4.1,7.8-1,10,2.6,1.8,6.1.3,8.7-1.4,9-5.8,17.6-14.3,18.4-25,.3-4.7-.9-9.4-.3-14,.5-3.6,2-7.2,1.2-10.8-.7-3.2-3.4-5.8-6.5-7.2s-6.4-1.7-9.8-1.8a12.42,12.42,0,0,1-4.8-.8c-2.3-1.2-3.4-3.9-4.9-6C388.47,123.32,365.87,126.72,360,139.12Z" transform="translate(-88.87 -2.38)" fill="#3f3d56"/>
  <path d="M405.17,199.32V214a5.58,5.58,0,0,1-.3,2.2,7.49,7.49,0,0,1-1.3,1.8c-2.6,2.7-5.5,5.6-9.3,6.3a13.31,13.31,0,0,1-9-2.3,9.75,9.75,0,0,1-3.4-3.3c-1.2-2.3-.6-5-.1-7.4a12.81,12.81,0,0,1,1.3-3.9,8.81,8.81,0,0,1,2.2-2.5c1.6-1.4,3.3-2.7,5-4,2.1-1.5,4.1-3.1,6.2-4.6,1.5-1.1,6.3-5.4,8.3-4.4C406.57,192.62,405.17,197.72,405.17,199.32Z" transform="translate(-88.87 -2.38)" fill="url(#linear-gradient-12)"/>
  <path d="M382.89,215.86a15.68,15.68,0,0,0-5.3.5c-3.1,1.2-4.8,4.4-6.3,7.4,4.9,4.8,11.1,8.8,18,8.9,6,.1,11.6-2.7,16.5-6.2a14,14,0,0,0,5.1-5.7c2.7-7-1.3-9.7-7.3-8.1C396.59,214.46,390,216,382.89,215.86Z" transform="translate(-88.87 -2.38)" fill="#68e1fd"/>
  <path d="M382.89,215.86a15.68,15.68,0,0,0-5.3.5c-3.1,1.2-4.8,4.4-6.3,7.4,4.9,4.8,11.1,8.8,18,8.9,6,.1,11.6-2.7,16.5-6.2a14,14,0,0,0,5.1-5.7c2.7-7-1.3-9.7-7.3-8.1C396.59,214.46,390,216,382.89,215.86Z" transform="translate(-88.87 -2.38)" fill="url(#linear-gradient-13)"/>
  <path d="M438.67,275.12c-2.2-6.2-4.4-12.5-6.6-18.7-3.6-10.2-7.2-20.5-12.8-29.9-1.1-1.9-2.4-3.9-4.3-5-2.7-1.7-6.1-1.5-9.3-1.2-9.1.8-18.2,1.5-27.3,2.3-7,.6-14.3,1.3-20.1,5.3-7.2,4.9-10.5,13.7-13.3,21.9-5.1,14.7-7.8,29.6-10.6,44.9-5.1,27.4-10.2,54.7-15.3,82.1,3.6,2.4,7.3,4.9,11.5,5.8s9.2,0,11.9-3.4A16.67,16.67,0,0,0,345,374l72.2-.83-.49-53.47.09-.1c5.8-6.9,11.6-13.7,17.3-20.6,3-3.5,6-7.3,6.7-11.8C441.37,283.12,440,279,438.67,275.12ZM361.27,328l0,.05C361.05,327.82,361,327.73,361.27,328Z" transform="translate(-88.87 -2.38)" fill="#68e1fd"/>
  <path d="M361.27,328l0,.05C361.05,327.82,361,327.73,361.27,328Z" transform="translate(-88.87 -2.38)" fill="#68e1fd"/>
  <path d="M322,378a57.88,57.88,0,0,0-6.5,11,18.79,18.79,0,0,0-2.2,8,8.83,8.83,0,0,0,3.4,7.3l1.8-2.4a15.42,15.42,0,0,0,12.2,7.9,7.29,7.29,0,0,0,4.6-1c2.3-1.6,2.6-4.9,2.4-7.6s-.8-5.7.4-8.3c.5-1,1.2-1.8,1.6-2.8a6.87,6.87,0,0,0-2.7-8.6" transform="translate(-88.87 -2.38)" fill="url(#linear-gradient-14)"/>
  <path d="M336.17,547.92a7.57,7.57,0,0,0-1.5.1,6.19,6.19,0,0,0-1.9.7c-2.9,1.3-6,2-9,3.1a11.67,11.67,0,0,0-5.3,3.3c-1.3,1.7-1.7,4.2-.5,5.9,1.1,1.5,3.1,2,5,2.3a73.86,73.86,0,0,0,13.3.1c2-.1,4-.2,6.1-.4,1.8-.1,3.7-.3,5-1.4,1.6-1.4,1.9-3.7,1.9-5.9s.3-6-2.1-7.1C344.07,547.32,339.27,548,336.17,547.92Z" transform="translate(-88.87 -2.38)" fill="#3f3d56"/>
  <path d="M398.77,544.92a9.7,9.7,0,0,0-1.7.1,9,9,0,0,0-2.1.8c-3.2,1.5-6.6,2.2-9.9,3.3-2.2.8-4.4,1.8-5.8,3.7s-1.9,4.6-.6,6.5c1.2,1.7,3.4,2.2,5.4,2.5a71.2,71.2,0,0,0,14.6.1c2.2-.1,4.4-.3,6.6-.4,1.9-.1,4-.3,5.5-1.5,1.8-1.5,2.1-4.1,2.1-6.4,0-2.5.3-6.5-2.4-7.8C407.47,544.22,402.17,545,398.77,544.92Z" transform="translate(-88.87 -2.38)" fill="#3f3d56"/>
  <path d="M177,158.22c24.9-.2,62.8.1,87.3.4a13,13,0,0,1,10.7,20.2l-37.8,56.7a13,13,0,0,0-2.2,7.2v56.5a13,13,0,0,1-13,13h0a13,13,0,0,1-13-12.7l-1.3-59.2a13.8,13.8,0,0,0-2.4-7.3l-38.7-54.2A13,13,0,0,1,177,158.22Z" transform="translate(-88.87 -2.38)" fill="#68e1fd"/>
  <path d="M177,158.22c24.9-.2,62.8.1,87.3.4a13,13,0,0,1,10.7,20.2l-37.8,56.7a13,13,0,0,0-2.2,7.2v56.5a13,13,0,0,1-13,13h0a13,13,0,0,1-13-12.7l-1.3-59.2a13.8,13.8,0,0,0-2.4-7.3l-38.7-54.2A13,13,0,0,1,177,158.22Z" transform="translate(-88.87 -2.38)" fill="url(#linear-gradient-15)"/>
  <path d="M267,484.82h-87.2a26.33,26.33,0,0,1-26.3-26.3V317.82a26.33,26.33,0,0,1,26.3-26.3H267a26.33,26.33,0,0,1,26.3,26.3v140.7A26.33,26.33,0,0,1,267,484.82Z" transform="translate(-88.87 -2.38)" fill="#68e1fd"/>
  <path d="M267,484.82h-87.2a26.33,26.33,0,0,1-26.3-26.3V317.82a26.33,26.33,0,0,1,26.3-26.3H267a26.33,26.33,0,0,1,26.3,26.3v140.7A26.33,26.33,0,0,1,267,484.82Z" transform="translate(-88.87 -2.38)" fill="url(#linear-gradient-16)"/>
  <rect x="64.6" y="255.36" width="139.8" height="193.3" rx="26.3" fill="#68e1fd"/>
  <circle cx="136.6" cy="356.25" r="48.3" fill="url(#linear-gradient-17)"/>
  <circle cx="136.4" cy="356.35" r="42.1" fill="#68e1fd"/>
  <circle cx="136.4" cy="356.35" r="42.1" opacity="0.69" fill="url(#linear-gradient-18)" style="isolation: isolate"/>
  <rect x="433.3" y="203.75" width="14.4" height="96.6" fill="#68e1fd"/>
  <rect x="524.4" y="203.75" width="14.4" height="96.6" fill="#68e1fd"/>
  <rect x="433.3" y="203.75" width="14.4" height="96.6" fill="url(#linear-gradient-19)"/>
  <rect x="524.4" y="203.75" width="14.4" height="96.6" fill="url(#linear-gradient-20)"/>
  <rect x="447.8" y="323.25" width="128.3" height="111.3" fill="url(#linear-gradient-21)"/>
  <rect x="492.1" y="378.55" width="46.9" height="48.5" fill="#68e1fd"/>
  <rect x="492.1" y="378.55" width="46.9" height="48.5" fill="url(#linear-gradient-22)"/>
  <path d="M543.27,325.92c-.4,0,0,70.3,0,70.3h32.4v-27.3l4.3,25.6h45.6l5.1-27.7,1.3,27.3h27.3v-68.6" transform="translate(-88.87 -2.38)" fill="#68e1fd"/>
  <path d="M543.27,325.92c-.4,0,0,70.3,0,70.3h32.4v-27.3l4.3,25.6h45.6l5.1-27.7,1.3,27.3h27.3v-68.6" transform="translate(-88.87 -2.38)" opacity="0.69" fill="url(#linear-gradient-23)" style="isolation: isolate"/>
  <rect x="450" y="434.73" width="124.4" height="34.82" fill="#68e1fd"/>
  <rect x="447.68" y="434.73" width="128.53" height="34.82" fill="url(#linear-gradient-24)"/>
  <rect x="492.7" y="386.45" height="0.9" fill="none" stroke="#000" stroke-miterlimit="10" stroke-width="1.3"/>
  <g>
    <g>
      <path d="M250.77,351.42a1.52,1.52,0,0,1-1.21-.6c-5.63-7.64-12.35-11.89-20-12.65-14.63-1.46-28,10.45-28.11,10.57a1.5,1.5,0,0,1-2-2.23c.58-.52,14.44-12.92,30.41-11.33,8.5.85,15.94,5.51,22.11,13.85a1.5,1.5,0,0,1-.32,2.1A1.48,1.48,0,0,1,250.77,351.42Z" transform="translate(-88.87 -2.38)" fill="#fff"/>
      <path d="M200.47,349.12a1.47,1.47,0,0,1-1.17-.56,1.5,1.5,0,0,1-.29-1.29l2.1-8.6a1.5,1.5,0,0,1,2.92.71l-1.64,6.72,6-.08a1.5,1.5,0,0,1,0,3l-7.9.1Z" transform="translate(-88.87 -2.38)" fill="#fff"/>
    </g>
    <g>
      <path d="M223.6,381h-.8c-8.7-.24-16.59-4.34-23.46-12.2a1.5,1.5,0,0,1,2.26-2c6.3,7.2,13.45,11,21.28,11.17,15.14.44,27.89-12.5,28-12.63a1.5,1.5,0,1,1,2.14,2.09C252.5,368,239.64,381,223.6,381Z" transform="translate(-88.87 -2.38)" fill="#fff"/>
      <path d="M250.47,376.72a1.06,1.06,0,0,1-.25,0A1.5,1.5,0,0,1,249,375l1.18-6.88-6.17.53a1.5,1.5,0,0,1-.26-3l8.1-.7a1.51,1.51,0,0,1,1.61,1.75l-1.5,8.8A1.5,1.5,0,0,1,250.47,376.72Z" transform="translate(-88.87 -2.38)" fill="#fff"/>
    </g>
  </g>
  <path d="M361.27,328l0,.05C361.05,327.82,361,327.73,361.27,328Z" transform="translate(-88.87 -2.38)" fill="#68e1fd"/>
  <path d="M345,374l19.55-97.59s7.51,5.25,3,36S372,372.91,372,372.91Z" transform="translate(-88.87 -2.38)" fill="url(#linear-gradient-25)"/>
  <path d="M416.68,319.72l.77-75.48s14.93,32.38,15.21,43.92S421,313.56,416.68,319.72Z" transform="translate(-88.87 -2.38)" fill="url(#linear-gradient-26)"/>
</svg>
