<svg id="Layer_1" data-name="Layer 1" xmlns="http://www.w3.org/2000/svg" xmlns:xlink="http://www.w3.org/1999/xlink" width="824.2" height="596.04" viewBox="0 0 824.2 596.04">
  <defs>
    <linearGradient id="linear-gradient" x1="383.3" y1="629.66" x2="381.11" y2="173.47" gradientTransform="translate(0.03 -172.61)" gradientUnits="userSpaceOnUse">
      <stop offset="0.01" stop-color="#fff" stop-opacity="0.4"/>
      <stop offset="1" stop-color="#fff" stop-opacity="0"/>
    </linearGradient>
    <linearGradient id="linear-gradient-2" x1="609.02" y1="595.9" x2="752.61" y2="556.49" gradientTransform="translate(0.03 -172.61)" gradientUnits="userSpaceOnUse">
      <stop offset="0" stop-color="#68e1fd" stop-opacity="0"/>
      <stop offset="0.02" stop-color="#66daf6" stop-opacity="0.04"/>
      <stop offset="0.18" stop-color="#58a1bc" stop-opacity="0.39"/>
      <stop offset="0.35" stop-color="#4d758f" stop-opacity="0.66"/>
      <stop offset="0.53" stop-color="#45566f" stop-opacity="0.85"/>
      <stop offset="0.73" stop-color="#40435c" stop-opacity="0.96"/>
      <stop offset="0.99" stop-color="#3f3d56"/>
    </linearGradient>
    <linearGradient id="linear-gradient-3" x1="693.35" y1="296.1" x2="594.24" y2="291.59" gradientTransform="matrix(1, 0, 0, -1, -0.04, 598)" gradientUnits="userSpaceOnUse">
      <stop offset="0" stop-opacity="0"/>
      <stop offset="0.91" stop-opacity="0.8"/>
      <stop offset="1"/>
    </linearGradient>
    <linearGradient id="linear-gradient-4" x1="685.91" y1="424.27" x2="702.23" y2="424.27" gradientTransform="translate(0.03 -172.61)" gradientUnits="userSpaceOnUse">
      <stop offset="0" stop-color="#ecc4d7"/>
      <stop offset="0.42" stop-color="#efd4d1"/>
      <stop offset="1" stop-color="#f2eac9"/>
    </linearGradient>
    <linearGradient id="linear-gradient-5" x1="693.68" y1="415.48" x2="710.76" y2="486.81" xlink:href="#linear-gradient-4"/>
    <linearGradient id="linear-gradient-6" x1="671.1" y1="401.61" x2="705.8" y2="401.61" xlink:href="#linear-gradient-4"/>
    <linearGradient id="linear-gradient-7" x1="661.97" y1="337.09" x2="664.6" y2="265.57" xlink:href="#linear-gradient-3"/>
    <linearGradient id="linear-gradient-8" x1="680.05" y1="475.38" x2="704.61" y2="475.38" xlink:href="#linear-gradient-4"/>
    <linearGradient id="linear-gradient-9" x1="687.82" y1="469.21" x2="693.18" y2="469.21" xlink:href="#linear-gradient-4"/>
    <linearGradient id="linear-gradient-10" x1="655.85" y1="485.27" x2="680.63" y2="485.27" xlink:href="#linear-gradient-4"/>
    <linearGradient id="linear-gradient-11" x1="680.34" y1="640.98" x2="673.02" y2="627.18" gradientTransform="translate(0.03 -172.61)" gradientUnits="userSpaceOnUse">
      <stop offset="0.36" stop-color="#00272e"/>
      <stop offset="1" stop-color="#69b9eb" stop-opacity="0"/>
    </linearGradient>
    <linearGradient id="linear-gradient-12" x1="708.89" y1="642.99" x2="698.47" y2="630.6" xlink:href="#linear-gradient-11"/>
    <linearGradient id="linear-gradient-13" x1="702.04" y1="474.93" x2="709.73" y2="495.86" xlink:href="#linear-gradient-4"/>
    <linearGradient id="linear-gradient-14" x1="244.33" y1="630.62" x2="242.12" y2="174.14" xlink:href="#linear-gradient"/>
    <linearGradient id="linear-gradient-15" x1="627.93" y1="455.89" x2="646.81" y2="455.89" gradientTransform="translate(0.03 -172.61)" gradientUnits="userSpaceOnUse">
      <stop offset="0" stop-color="#68e1fd"/>
      <stop offset="1" stop-color="#69b9eb"/>
    </linearGradient>
  </defs>
  <title>12. innovation_technology</title>
  <path d="M445.59,72.18c-74.87,12-151.08,12.1-226.55,19.36C180,95.3-38.82,206.29,6,442.32c16.45,86.95,103.6,157.43,192,153.57,75.11-3.28,83.38-52.77,217.23-55.58,101.64-2.13,180,70.39,297.74,28.53,52.18-18.55,93.75-65.36,107.07-119.1s-6-115.82-51.47-147.52c-23.57-16.49-53.68-25.43-70.47-48.83-32.91-45.86,33.74-116.79,4.09-164.81C643.26-6.95,508.43,62.14,445.59,72.18Z" transform="translate(-0.01)" fill="#68e1fd" opacity="0.18" style="isolation: isolate"/>
  <path d="M146,448.39s-79.07,19.67-10.6,48S521.71,556,638.07,491.9c0,0,79.81-2.22,82-13.41s-9.48-20.24-9.48-20.24l-40.47-1.37s-7.45,16.13-44.74-13.17S146,448.39,146,448.39Z" transform="translate(-0.01)" fill="#000405" opacity="0.05" style="isolation: isolate"/>
  <path d="M712.15,465.22a26.91,26.91,0,0,1-19.47,10.17c-10.6,0-5.48-9.92-2-9.92a12.64,12.64,0,0,0,2.94-.28l4.36-3.8,4.31-3.85,1.13-2.44s6,1.38,7.07-.21l.78,6.74v1.31A5,5,0,0,1,712.15,465.22Z" transform="translate(-0.01)" fill="#3f3d56"/>
  <path d="M628.09,448.56c0,34.52-107.56,62.49-240.23,62.49s-240.25-28-240.25-62.49a19.45,19.45,0,0,1,4-11.4c20.58-29.07,118.52-51.1,236.25-51.1s215.65,22,236.23,51.1A19.45,19.45,0,0,1,628.09,448.56Z" transform="translate(-0.01)" fill="#68e1fd"/>
  <path d="M622.43,437.16c-20.61,29.07-118.53,51.08-236.23,51.08s-215.63-22-236.24-51.08c20.57-29.07,118.51-51.1,236.24-51.1S601.85,408.09,622.43,437.16Z" transform="translate(-0.01)" fill="#000405" opacity="0.05" style="isolation: isolate"/>
  <ellipse cx="386.85" cy="429.46" rx="196.17" ry="35.77" fill="#000405" opacity="0.05" style="isolation: isolate"/>
  <path d="M556.42,425.75S570.17,455.83,393.33,457H383.09c-47.14,0-81.24-2.48-105.91-6h-.07c-63.15-9-64.32-25.17-64.32-25.17L98.66,2.22l183.13-.73L663.62,0Z" transform="translate(-0.01)" fill="url(#linear-gradient)"/>
  <path d="M686.14,464.69c0,1-10.6,7.06-21,7.06s-5.48-10-1.94-9.92h3.53l2-1,7.6-3.88,1.13-2.44s6,1.38,7.07-.21l.78,6.85v1.24A4.75,4.75,0,0,1,686.14,464.69Z" transform="translate(-0.01)" fill="#3f3d56"/>
  <path d="M685.4,462.39a4.86,4.86,0,0,1,.56,2.33c0,1-10.6,7.06-21,7.06s-5.48-10-1.94-9.92h3.53l2-1,16.69.28Z" transform="translate(-0.01)" fill="#3f3d56"/>
  <path d="M670.8,467.94a15.53,15.53,0,0,1-7.78,0c-2.33-1.27-3.07-2.23-3-3.21s1.49-3.82,7.07-2.48,6.61,4.35,6.61,4.35Z" transform="translate(-0.01)" fill="#3f3d56"/>
  <path d="M712.15,465.22a26.91,26.91,0,0,1-19.47,10.17c-10.6,0-5.48-9.92-2-9.92a12.64,12.64,0,0,0,2.94-.28l4.36-3.8,13.39.24v1.31A4.79,4.79,0,0,1,712.15,465.22Z" transform="translate(-0.01)" fill="#3f3d56"/>
  <path d="M698.58,471.08a15.49,15.49,0,0,1-7.77,0c-2.34-1.27-3.08-2.22-3-3.21s1.48-3.82,7.07-2.47,6.75,4.2,6.75,4.2Z" transform="translate(-0.01)" fill="#3f3d56"/>
  <path d="M664.44,349.55,675,454.27s7.07,2.55,10.22,0l4.38-82.48L702,455s5.79,3.74,9.36-.49L716,349S679,356.61,664.44,349.55Z" transform="translate(-0.01)" fill="#68e1fd"/>
  <path d="M664.44,348.65,675,453.39s7.07,2.54,10.22,0l4.38-82.48L702,454.08s5.79,3.74,9.36-.5L716,348.08S679,355.71,664.44,348.65Z" transform="translate(-0.01)" fill="url(#linear-gradient-2)"/>
  <path d="M701.55,250.47A27.56,27.56,0,0,0,706,253.3a38.79,38.79,0,0,0,12,4.45c5.55.6,7.88,11,8.62,15.89s5.83,29.2,5.83,29.2a9.87,9.87,0,0,1-7.84,10.41c-9,2.93-8.77,4.38-8.77,4.38l.18,31.21s-40.55,9.85-51.5.57l1.59-42.23,6-45.9,17.18-8Z" transform="translate(-0.01)" fill="#68e1fd"/>
  <path d="M701.55,250.47A27.56,27.56,0,0,0,706,253.3a38.79,38.79,0,0,0,12,4.45c5.55.6,7.88,11,8.62,15.89s5.83,29.2,5.83,29.2a9.87,9.87,0,0,1-7.84,10.41c-9,2.93-8.77,4.38-8.77,4.38l.18,31.21s-40.55,9.85-51.5.57l1.59-42.23,6-45.9,17.18-8Z" transform="translate(-0.01)" fill="url(#linear-gradient-3)"/>
  <path d="M701.62,249.56a10.6,10.6,0,0,1-14.08,5.14l-.41-.2s-8.77,15.22,3.78,13.42c6.65-1,11-11.51,12-16.49Z" transform="translate(-0.01)" fill="#3f3d56"/>
  <path d="M704.48,302a87.55,87.55,0,0,0,9.65-2.86c1.1-.74-1.59-20.66-1.59-20.66s-1,16-21.49,23.66c-10,3.74,6.86,8.86,6.86,8.86Z" transform="translate(-0.01)" fill="#000405" opacity="0.05" style="isolation: isolate"/>
  <path d="M702.5,315.09s11.07,4.09,13.26,2.65V342.1s-28.28-18.33-28.28-21.19-21.63-3.52-21.63-3.52v-6.67l32.84-3.88S705.79,300.68,702.5,315.09Z" transform="translate(-0.01)" fill="#000405" opacity="0.05" style="isolation: isolate"/>
  <path d="M704.38,301.64s0,10-1.52,12.85-2.48-7.06-2.48-7.06Z" transform="translate(-0.01)" fill="#033b4b"/>
  <path d="M702.26,237.39s-.12,2.25-.28,5.2c-.14,2.47-.31,5.43-.43,7.9a16.59,16.59,0,0,1-5.06,11.06,18.78,18.78,0,0,1-6.18,4.2,3.29,3.29,0,0,1-4.19-2,3.36,3.36,0,0,1-.08-1.91,23,23,0,0,0,1.14-5.8,20.55,20.55,0,0,0,0-2.22,21.45,21.45,0,0,0-.49-4.07c-1.9-4.78,13.52-11.5,15.35-12.29Z" transform="translate(-0.01)" fill="url(#linear-gradient-4)"/>
  <path d="M702.09,237.44c-.82,2.23-1,6.66-4.37,11-1.53,2-5.65,6.51-10.54,7.59a16.45,16.45,0,0,0,0-2.22,21.45,21.45,0,0,0-.49-4.07C684.84,245,700.26,238.23,702.09,237.44Z" transform="translate(-0.01)" fill="url(#linear-gradient-5)"/>
  <path d="M687,207.57a16.74,16.74,0,0,0-15.88,17.56h0a10.71,10.71,0,0,0,.11,1.26A56.41,56.41,0,0,0,676.42,246c5.48,9.32,19.3,1.66,21.49-2.19s10.6-21.18,7.07-26.09C702.68,214.5,696,207.22,687,207.57Z" transform="translate(-0.01)" fill="url(#linear-gradient-6)"/>
  <path d="M672.39,201.08l2.76,1.45a10.62,10.62,0,0,0-8.66,4.09,14.11,14.11,0,0,0-4.1,9.75l4.84-2.3s-.35,5.93,8.77,6.39,18.8.81,18.8.81L691.69,217s5.76,2.3,6.68,4.38a69.41,69.41,0,0,1,1.91,10.2s2.3-5.82,3.18-4.55-1,6.57-2.19,7.77-1,4.66-1.1,4.94,5.66-4.48,5.94-6.11,6-18.25,2.3-21.71l2.3-.18a11,11,0,0,0-4.49-1.73S691.19,190.39,672.39,201.08Z" transform="translate(-0.01)" fill="#3f3d56"/>
  <path d="M672.11,261.53s-7.07,3.1-8,17A135.31,135.31,0,0,1,659.17,305a160.22,160.22,0,0,1-16.09.81l7.85,6a23.73,23.73,0,0,0,10,4.48l5.41,1.2Z" transform="translate(-0.01)" fill="#68e1fd"/>
  <path d="M698.33,309.26a2.54,2.54,0,0,1,0,.39,2.89,2.89,0,0,1-3,2.51l-53-3a2.77,2.77,0,0,1-1.31-.39,2.82,2.82,0,0,1-1.52-1.55l-11.57-33a2.88,2.88,0,0,1,.38-2.65,2.93,2.93,0,0,1,2.41-1.2l36.79.64a2.89,2.89,0,0,1,2.72,2.12l8.06,28.95a2.89,2.89,0,0,0,2.37,2.08l15.06,2.23A2.88,2.88,0,0,1,698.33,309.26Z" transform="translate(-0.01)" fill="#68e1fd"/>
  <path d="M698.33,309.26a2.54,2.54,0,0,1,0,.39,2.89,2.89,0,0,1-3,2.51l-53-3a2.77,2.77,0,0,1-1.31-.39,2.82,2.82,0,0,1-1.52-1.55l-11.57-33a2.88,2.88,0,0,1,.38-2.65,2.93,2.93,0,0,1,2.41-1.2l36.79.64a2.89,2.89,0,0,1,2.72,2.12l8.06,28.95a2.89,2.89,0,0,0,2.37,2.08l15.06,2.23A2.88,2.88,0,0,1,698.33,309.26Z" transform="translate(-0.01)" fill="url(#linear-gradient-7)"/>
  <path d="M704,307.6a4,4,0,0,1-2.64,0,10.31,10.31,0,0,1-2.52-.87c-1.45-.79-4.61-3.69-7.57-2.86a22,22,0,0,1-8,.42c-1.09-.25-1.09-.54-2.15-.42s-1-1.28-1-1.28a44.38,44.38,0,0,1,10.27-4.88A30.85,30.85,0,0,1,701,299.87l2.3,1.32.14.07,1.24.72S704.73,307.05,704,307.6Z" transform="translate(-0.01)" fill="url(#linear-gradient-8)"/>
  <path d="M693.21,297.79l-4.88-2.65s-.81,1.31-.32,2a5.54,5.54,0,0,0,.89.92A10.45,10.45,0,0,1,693.21,297.79Z" transform="translate(-0.01)" fill="url(#linear-gradient-9)"/>
  <path d="M655.88,309.93a13.7,13.7,0,0,0,7.36,5c5.3,1.69,14.81-1.77,14.81-1.77s3.11-1.41,2.54-1.73-15.83-.92-15.83-.92Z" transform="translate(-0.01)" fill="url(#linear-gradient-10)"/>
  <path d="M666.73,461.83s3.54,1.8,3.75,4.59l.28,1.52s13.27-2.55,14.78-5.55l-.64-4.66a6.85,6.85,0,0,1-6.08,2.19c-3.14-.95-2.54-3-2.54-3Z" transform="translate(-0.01)" fill="#68e1fd"/>
  <path d="M694.83,465.82l-1.16-.6,8.66-7.73s1.87,4.52,8.45.88l.77,4.52a30.44,30.44,0,0,1-13.85,8.37A7,7,0,0,0,694.83,465.82Z" transform="translate(-0.01)" fill="#68e1fd"/>
  <path d="M666.73,461.83s3.54,1.8,3.75,4.59l.28,1.52s13.27-2.55,14.78-5.55l-.64-4.66a6.85,6.85,0,0,1-6.08,2.19c-3.14-.95-2.54-3-2.54-3Z" transform="translate(-0.01)" opacity="0.61" fill="url(#linear-gradient-11)" style="isolation: isolate"/>
  <path d="M694.83,465.82l-1.16-.6,8.66-7.73s1.87,4.52,8.45.88l.77,4.52a30.44,30.44,0,0,1-13.85,8.37A7,7,0,0,0,694.83,465.82Z" transform="translate(-0.01)" opacity="0.61" fill="url(#linear-gradient-12)" style="isolation: isolate"/>
  <path d="M679.5,310.72l-20-1.06-18.73-1a2.89,2.89,0,0,1-1.31-1.49l-1.13-3.28-4.11-11.76L628,274.27a3,3,0,0,1,.46-1l18.42.24,19.47.26a2.26,2.26,0,0,1,2,1.94c.28,1.84,8,31.28,8,31.28A5.87,5.87,0,0,0,679.5,310.72Z" transform="translate(-0.01)" fill="#68e1fd"/>
  <path d="M679.5,310.72l-20-1.06-18.73-1a2.89,2.89,0,0,1-1.31-1.49l-1.13-3.28-4.11-11.76L628,274.27a3,3,0,0,1,.46-1l18.42.24,19.47.26a2.26,2.26,0,0,1,2,1.94c.28,1.84,8,31.28,8,31.28A5.87,5.87,0,0,0,679.5,310.72Z" transform="translate(-0.01)" fill="#000405" opacity="0.05" style="isolation: isolate"/>
  <path d="M679.42,304.78s2.51,5.47,0,5.93l16.12.67s1.77-.42,1.59-1.73a5.33,5.33,0,0,0-1.59-2.61l-15.37-2Z" transform="translate(-0.01)" fill="#000405" opacity="0.05" style="isolation: isolate"/>
  <path d="M679.36,309.61c.38-.09.54-.82.36-1.64s-.65-1.41-1-1.32-.54.82-.35,1.64S679,309.7,679.36,309.61Z" transform="translate(-0.01)" fill="#c7fdfb"/>
  <path d="M676.31,310.72l-16.26-.67-18.73-1a2.84,2.84,0,0,1-1.31-1.52l-1.13-3.28,34.74.81A13.73,13.73,0,0,0,676.31,310.72Z" transform="translate(-0.01)" fill="#68e1fd"/>
  <path d="M684,354.67s1.74,14.12,5.59,17.05l-1.2-16.59Z" transform="translate(-0.01)" fill="#3f3d56"/>
  <polygon points="709 350.32 710.66 454.84 715.92 348.85 709 350.32" fill="#3f3d56"/>
  <rect x="258.97" y="57.8" width="257.95" height="318.8" rx="18.18" fill="#68e1fd"/>
  <rect x="281.42" y="79.02" width="213.28" height="263.82" fill="#fff"/>
  <g opacity="0.29">
    <rect x="314.41" y="216.14" width="154.65" height="1" fill="#68e1fd"/>
  </g>
  <g opacity="0.29">
    <rect x="314.41" y="196.02" width="154.65" height="1" fill="#68e1fd"/>
  </g>
  <g opacity="0.29">
    <rect x="314.41" y="175.9" width="154.65" height="1" fill="#68e1fd"/>
  </g>
  <g opacity="0.29">
    <rect x="314.41" y="155.77" width="154.65" height="1" fill="#68e1fd"/>
  </g>
  <g opacity="0.29">
    <rect x="314.41" y="135.65" width="154.65" height="1" fill="#68e1fd"/>
  </g>
  <path d="M175.65,417.82l-.49.37c-.39.29-.82.64-1.29,1a43.4,43.4,0,0,0-3.89,3.66c-3.57,3.82-5.73,7.66-5.75,11.32a8.63,8.63,0,0,0,1.37,4.71l.09-.74-5.8,5.58-.46.44.48.42L174,457.29l.28.25.35-.15,16.79-7.06H191l.29.13.84.35,3,1.26c3.17,1.3,6.44,2.6,9.65,3.81,1.12.43,2.23.84,3.3,1.23,6.43,2.34,11.4,3.85,14.36,4.24l-.49-.76-7.46,23.48-.17.55.54.19,12.87,4.48-.4-.54.18,6.71h1.18l-.18-6.71v-.41l-.38-.13-12.87-4.48.37.73L223.11,461l.22-.67-.7-.09c-2.84-.38-7.75-1.87-14.11-4.19l-3.29-1.22c-3.19-1.21-6.46-2.51-9.62-3.8l-3-1.26-.83-.35-.29-.12-.23-.1-.23.1-16.79,7.06.62.1-14.14-12.67v.86l5.79-5.58.35-.33-.26-.41a7.43,7.43,0,0,1-1.18-4.07c0-3.29,2-6.9,5.43-10.52a42.46,42.46,0,0,1,3.78-3.57c.46-.38.88-.71,1.25-1l.47-.35Z" transform="translate(-0.01)" fill="#fff"/>
  <path d="M232.88,471.77l.74.12,2.14.33c2.31.37,4.92.77,7.79,1.21,8.18,1.24,16.72,2.48,25.19,3.64q6.45.89,12.49,1.65c19.22,2.44,33.75,3.78,41.74,3.65h.39l.15-.36,4-9.67-.58.36h.31l.92.06,3.37.22c3.56.22,7.34.45,11.17.66,3.13.17,6.15.32,9,.45,8.95.41,15.95.59,20.24.46l-.61-.54,1.88,27.92v.56h3.11l6.74-.09c7-.11,13.94-.27,20.45-.48,16.29-.53,26.85-1.3,29.41-2.42l.38-.17v-.41l-.74-11.19-.26.53,19.76-13-.29.1h.55l1.55-.12,5.51-.42c5.71-.47,11.41-1,16.74-1.57,11.35-1.24,19.4-2.53,22.8-3.86l-.78-.41L501,480.33l.08.33.33.1,32.83,9.32h.29l27.6-6-.49-.12,6,4.84.74-.91-6-4.84-.22-.18-.27.06-27.61,6h.29l-32.84-9.33.41.43-2.86-11.44-.17-.65-.62.24c-3.26,1.28-11.27,2.57-22.5,3.78-5.31.58-11,1.11-16.71,1.57-2,.17-3.84.31-5.5.43l-1.54.11h-.55l-.28.1-19.76,13-.29.18v.35l.74,11.19.35-.58c-2.34,1-13,1.8-29,2.32-6.5.22-13.46.37-20.43.48l-6.73.09h-2.55l.59.55-1.87-27.93v-.57H372c-4.25.12-11.22-.06-20.15-.46-2.88-.13-5.9-.29-9-.46-3.83-.21-7.61-.43-11.17-.65l-3.36-.22-.92-.06h-.74l-.16.39-4,9.68.53-.37c-7.91.13-22.41-1.21-41.57-3.64-4-.51-8.19-1.06-12.48-1.65-8.46-1.15-17-2.4-25.18-3.64-2.86-.43-5.47-.84-7.78-1.2l-2.13-.34-.75-.11Z" transform="translate(-0.01)" fill="#fff"/>
  <path d="M351.28,510.1l-11.8-15.71-.2-.27H339c-4.25.49-18.5-.42-39.48-2.34l-8.81-.83c-7.51-.72-15.14-1.49-22.5-2.26l-7-.75-1.93-.21-.68-.07h-.23l-.18.13-13.2,9.6.69.95,13.18-9.53-.41.11.68.07,1.93.21,7,.75c7.36.77,15,1.54,22.5,2.27l8.82.82c21.12,1.93,35.36,2.85,39.73,2.34l-.54-.23,11.8,15.67Z" transform="translate(-0.01)" fill="#fff"/>
  <path d="M605,474.2l.25-12.18-.31.51.64-.37c.51-.3,1.07-.65,1.67-1.06a40.71,40.71,0,0,0,5.07-4c4.12-3.84,6.81-8.1,7.34-12.7l-.54.52,6.47-.49-.09-1.18-6.47.5h-.48l-.06.48c-.5,4.28-3,8.31-7,12a38.08,38.08,0,0,1-4.91,3.86c-.59.39-1.13.74-1.62,1-.29.18-.49.29-.6.35l-.3.16v.4l-.25,12.18Z" transform="translate(-0.01)" fill="#fff"/>
  <path d="M193.15,410.59c-.12.07-.33.2-.62.4-.49.32-1,.7-1.63,1.13a42.05,42.05,0,0,0-4.87,4.27c-5.86,5.92-8.63,12.44-6.53,19.24l1.12-.34c-1.94-6.3.66-12.43,6.25-18.07a39.75,39.75,0,0,1,4.77-4.11c.57-.42,1.1-.79,1.57-1.1.28-.19.48-.31.59-.37Z" transform="translate(-0.01)" fill="#fff"/>
  <path d="M152.67,432.12a8.81,8.81,0,0,0-.88,1.83,15.48,15.48,0,0,0,.12,10.59c1.89,5.54,6.47,11.27,14.3,17.06a139.92,139.92,0,0,0,22.67,12.07l-.33-.36L192.61,486l1.12-.36L189.67,473l-.09-.26-.25-.1a138.24,138.24,0,0,1-22.45-12c-7.62-5.64-12-11.17-13.85-16.47a14.29,14.29,0,0,1-.14-9.8,9.78,9.78,0,0,1,.53-1.19c.07-.13.14-.26.22-.38Z" transform="translate(-0.01)" fill="#fff"/>
  <path d="M604.47,423.9c0,.05.11.13.21.27s.37.48.58.77a28.75,28.75,0,0,1,1.78,2.84c2.34,4.33,3.27,8.73,2,12.81-1.56,5.05-6.4,9.22-15.28,12.17-12.39,4.13-23.44,7.62-33,10.49q-5,1.5-8.73,2.57l-2.24.63-.76.21.57.15-8.41-8.22-.2-.2h-.28l-18.91,2.23.47.15-6-5.48-.79.87,6,5.47.2.19H522l18.91-2.22-.48-.16,8.41,8.22.24.24.33-.09.76-.21,2.25-.64c2.48-.71,5.4-1.57,8.74-2.57,9.56-2.88,20.62-6.37,33-10.5,9.21-3.06,14.35-7.49,16-12.94,1.36-4.44.37-9.14-2.11-13.72a27.16,27.16,0,0,0-1.85-3c-.22-.31-.43-.59-.62-.82a1.76,1.76,0,0,0-.24-.3Z" transform="translate(-0.01)" fill="#fff"/>
  <path d="M704,307.6a4,4,0,0,1-2.64,0c2.45-.62,1.93-6.41,1.93-6.41l.14.07,1.24.72S704.73,307.05,704,307.6Z" transform="translate(-0.01)" fill="url(#linear-gradient-13)"/>
  <path d="M685.38,362l-2.83,93.14a5.34,5.34,0,0,0,2.71-.87l4.38-82.55Z" transform="translate(-0.01)" fill="#3f3d56"/>
  <g opacity="0.71" style="isolation: isolate">
    <polygon points="469.06 238.2 310.39 238.2 310.39 119.29 313.39 119.29 313.39 235.2 469.06 235.2 469.06 238.2" fill="#68e1fd"/>
  </g>
  <path d="M333.51,154.22h9a4,4,0,0,1,4,4v77.07h-17v-77a4,4,0,0,1,4-4Z" transform="translate(-0.01)" fill="#68e1fd"/>
  <path d="M366.19,181.46h9.29a3.88,3.88,0,0,1,3.88,3.88h0v50h-17v-50A3.89,3.89,0,0,1,366.19,181.46Z" transform="translate(-0.01)" fill="#68e1fd"/>
  <path d="M432.77,198.47h7.75a4.64,4.64,0,0,1,4.64,4.64h0v32.21h-17V203.11A4.64,4.64,0,0,1,432.77,198.47Z" transform="translate(-0.01)" fill="#68e1fd"/>
  <path d="M397.61,143.47h7.76a4.64,4.64,0,0,1,4.64,4.64h0v87.21H393v-87.2a4.64,4.64,0,0,1,4.63-4.65h0Z" transform="translate(-0.01)" fill="#68e1fd"/>
  <path d="M387.85,457.32l-75.53-2.58c-.9-.06-21.58-2.67-48.49-6.34-10.47-1.43-47.71-12.52-51-22.55h0L98.66,2.22l183.13-.73L387.79,457Z" transform="translate(-0.01)" fill="url(#linear-gradient-14)"/>
  <path d="M646.84,273.56l-.62,1.43-10.6,18.3-1.41-1.15L628,274.28a3,3,0,0,1,.46-1Z" transform="translate(-0.01)" opacity="0.13" fill="url(#linear-gradient-15)" style="isolation: isolate"/>
</svg>
