<svg id="Layer_1" data-name="Layer 1" xmlns="http://www.w3.org/2000/svg" xmlns:xlink="http://www.w3.org/1999/xlink" width="584.02" height="444.56" viewBox="0 0 584.02 444.56">
  <defs>
    <linearGradient id="linear-gradient" x1="141.79" y1="168.27" x2="150.05" y2="172.82" gradientUnits="userSpaceOnUse">
      <stop offset="0" stop-opacity="0"/>
      <stop offset="0.99"/>
    </linearGradient>
    <linearGradient id="linear-gradient-2" x1="298.73" y1="336.05" x2="304.13" y2="336.05" xlink:href="#linear-gradient"/>
    <linearGradient id="linear-gradient-3" x1="243.52" y1="408.16" x2="239.47" y2="526.82" gradientUnits="userSpaceOnUse">
      <stop offset="0.01"/>
      <stop offset="0.13" stop-opacity="0.69"/>
      <stop offset="1" stop-opacity="0"/>
    </linearGradient>
    <linearGradient id="linear-gradient-4" x1="187.8" y1="449.75" x2="201.23" y2="449.75" gradientUnits="userSpaceOnUse">
      <stop offset="0" stop-color="#ecc4d7"/>
      <stop offset="0.42" stop-color="#efd4d1"/>
      <stop offset="1" stop-color="#f2eac9"/>
    </linearGradient>
    <linearGradient id="linear-gradient-5" x1="174.86" y1="453.04" x2="191.05" y2="453.04" xlink:href="#linear-gradient-4"/>
    <linearGradient id="linear-gradient-6" x1="216.08" y1="244.39" x2="110.46" y2="293.39" xlink:href="#linear-gradient"/>
    <linearGradient id="linear-gradient-7" x1="242.08" y1="239.44" x2="236.79" y2="244.52" xlink:href="#linear-gradient"/>
    <linearGradient id="linear-gradient-8" x1="195.88" y1="265.89" x2="73.17" y2="308.03" xlink:href="#linear-gradient"/>
    <linearGradient id="linear-gradient-9" x1="161.12" y1="220.84" x2="176.34" y2="220.84" xlink:href="#linear-gradient-4"/>
    <linearGradient id="linear-gradient-10" x1="174.78" y1="214.41" x2="108.7" y2="229.35" xlink:href="#linear-gradient-4"/>
    <linearGradient id="linear-gradient-11" x1="155.94" y1="181.18" x2="176.84" y2="192.47" xlink:href="#linear-gradient"/>
    <linearGradient id="linear-gradient-12" x1="150.33" y1="197.4" x2="188.86" y2="197.4" xlink:href="#linear-gradient-4"/>
    <linearGradient id="linear-gradient-13" x1="159.18" y1="268.59" x2="84.13" y2="278.93" xlink:href="#linear-gradient"/>
    <linearGradient id="linear-gradient-14" x1="237.95" y1="233.45" x2="265.86" y2="233.45" xlink:href="#linear-gradient-4"/>
    <linearGradient id="linear-gradient-15" x1="180.46" y1="296.39" x2="204.4" y2="296.39" xlink:href="#linear-gradient-4"/>
    <linearGradient id="linear-gradient-16" x1="174.2" y1="496.42" x2="191.34" y2="496.42" xlink:href="#linear-gradient"/>
    <linearGradient id="linear-gradient-17" x1="187.97" y1="489.2" x2="208.17" y2="489.2" xlink:href="#linear-gradient"/>
    <linearGradient id="linear-gradient-18" x1="168.86" y1="241.36" x2="97.74" y2="165.85" xlink:href="#linear-gradient"/>
    <linearGradient id="linear-gradient-19" x1="199.32" y1="233.01" x2="90.99" y2="276.14" xlink:href="#linear-gradient"/>
    <linearGradient id="linear-gradient-20" x1="301.32" y1="413.64" x2="301.77" y2="431.17" xlink:href="#linear-gradient"/>
  </defs>
  <title>Lady offices presentation </title>
  <path d="M152.38,160.86c-1.79-1.11-3.74-2.27-5.85-2.13a7.84,7.84,0,0,0-2.55.68,6.78,6.78,0,0,0-3.18,2.29c-1.15,1.73-.84,4-.74,6.07a1.49,1.49,0,0,1-.06.56,1.35,1.35,0,0,1-.4.49,10.64,10.64,0,0,0-2.73,3.84,6.31,6.31,0,0,0-.06,4.64,7.84,7.84,0,0,0,4.59,3.95c2.14.84,4.82,1.09,6.56-.44a7.63,7.63,0,0,0,1.94-3.68c.84-2.87,1.49-5.86,3.14-8.35a10.78,10.78,0,0,0,2-4.72C155.27,162.41,153.65,161.65,152.38,160.86Z" transform="translate(-3.63 -75.17)" fill="#3f3d56"/>
  <path d="M152.38,160.86c-1.79-1.11-3.74-2.27-5.85-2.13a7.84,7.84,0,0,0-2.55.68,6.78,6.78,0,0,0-3.18,2.29c-1.15,1.73-.84,4-.74,6.07a1.49,1.49,0,0,1-.06.56,1.35,1.35,0,0,1-.4.49,10.64,10.64,0,0,0-2.73,3.84,6.31,6.31,0,0,0-.06,4.64,7.84,7.84,0,0,0,4.59,3.95c2.14.84,4.82,1.09,6.56-.44a7.63,7.63,0,0,0,1.94-3.68c.84-2.87,1.49-5.86,3.14-8.35a10.78,10.78,0,0,0,2-4.72C155.27,162.41,153.65,161.65,152.38,160.86Z" transform="translate(-3.63 -75.17)" fill="url(#linear-gradient)"/>
  <path d="M215.43,104.51c-22.7,18.33-38.67,43.46-57.25,66a345.18,345.18,0,0,1-65.45,61.05c-23.43,16.75-49.49,31-67.08,53.85-30,38.94-27.9,96.73-2.37,138.76s70.65,69.38,118,82.63,97.26,13.83,146.42,12.46q89.55-2.49,178.61-13.15c24.66-2.95,49.93-6.59,71.56-18.79,41.93-23.66,61.35-80.58,42.62-124.93-8-18.94-21.62-34.87-35.27-50.25-33-37.17-67.94-74.06-87.88-119.57C418.86,104.7,304.42,32.65,215.43,104.51Z" transform="translate(-3.63 -75.17)" fill="#68e1fd" opacity="0.18" style="isolation: isolate"/>
  <rect x="298.73" y="249.76" width="5.39" height="172.6" fill="#68e1fd"/>
  <rect x="298.73" y="249.76" width="5.39" height="172.6" fill="url(#linear-gradient-2)"/>
  <path d="M375.85,480.21c-9.25,3.44-17,6.55-18.79,8.36-2.52,2.6-5.11,5.25-8.41,6.78-3.84,1.77-8.22,1.8-12.45,1.82l-60.83.11c-4.31,0-8.69,0-12.8-1.29a15.4,15.4,0,0,1-8.24-5.86,29,29,0,0,1-5.64,2.29q-9.3,3-18.66,5.83c-18.25,5.46-37.21,10.33-56.13,8.13-13.41-1.56-26.14-6.6-38.68-11.61-6.11-2.43-12.26-4.9-17.81-8.43s-10.51-8.25-13.31-14.2a2,2,0,0,1-.26-1.46c.27-.79,1.3-.94,2.14-1,13.41-.22,27-.43,40,2.76,13.59,3.31,26.46,9.94,40.76,9.41,16.51-.6,33-1.51,49.52-2.28a69.38,69.38,0,0,1,7.9,0,4,4,0,0,1,1.54-1c2.53-1,40.83.57,43-.43,4.66-2.12,8.19-2.07,13.45-2.37,12-.68,24.18-.55,36.24-.82,2.29-.06,18.57-1.57,35.34-3.48C379.06,471,380.82,478.37,375.85,480.21Z" transform="translate(-3.63 -75.17)" fill="url(#linear-gradient-3)"/>
  <path d="M175.06,503.39a8.51,8.51,0,0,0,5.15,5.41,9.75,9.75,0,0,0,3.53.3,11.31,11.31,0,0,0,5-1.34,6,6,0,0,0,3-4.09c.42-2.69-1.44-5.59-.24-8A14.12,14.12,0,0,0,202.84,502a25.83,25.83,0,0,0,2.92-.13,2,2,0,0,0,2.1-2.58,2.16,2.16,0,0,0-.2-1.1,2.32,2.32,0,0,0-1.14-.82l-10.68-4.65c-2.34-1-4.89-2.06-7.38-1.51a10.36,10.36,0,0,0-3.76,1.9,13.17,13.17,0,0,1-2.78,1.73,5.68,5.68,0,0,1-3.08.32,5.47,5.47,0,0,0-2.39-.23c-1.55.44-2.41,1.34-2.35,2.86A18.53,18.53,0,0,0,175.06,503.39Z" transform="translate(-3.63 -75.17)" fill="#68e1fd"/>
  <path d="M193.81,464.71c-.23,5.17,3.15,10.9,4.27,15.62s-.89,9.78-4.27,11.35c-2.17,1-2.66-.12-3.52-.15a43.79,43.79,0,0,1-2.43-13c-.3-7.1.66-14.17,1.4-21.23a330.78,330.78,0,0,0,1.44-49.46l10.53-.38L199.43,420S194,459.55,193.81,464.71Z" transform="translate(-3.63 -75.17)" fill="url(#linear-gradient-4)"/>
  <path d="M187.86,478.48a43.79,43.79,0,0,0,2.43,13c-.47,0-3.36,4.78-4.4,6-2.92,3.37-11.92-5-10.95-9.77,2.52-12.47,2.52-15.85,2.52-15.85s-.28-26.74-1-36.85a99.18,99.18,0,0,1,1.34-21.91c.35-1.91-1.57-4.84-1.57-4.84l14.42-.51a330.78,330.78,0,0,1-1.44,49.46C188.52,464.31,187.56,471.38,187.86,478.48Z" transform="translate(-3.63 -75.17)" fill="url(#linear-gradient-5)"/>
  <path d="M203.25,314.59s8.54,18.2,9.22,27-7.19,50.79-6.75,65.62c0,0-22.92,4.05-34.16.45,0,0-6.74-24.94-9.43-31.46s-5.62-43.38,1.79-50.12S197.63,309.65,203.25,314.59Z" transform="translate(-3.63 -75.17)" fill="#3f3d56"/>
  <path d="M187.75,224,217,261.1l21.13-24.72,4.94,9.44s-20.68,30.57-23.82,30.57-19.78-9-19.78-9Z" transform="translate(-3.63 -75.17)" fill="#68e1fd"/>
  <path d="M187.75,224,217,261.1l21.13-24.72,4.94,9.44s-20.68,30.57-23.82,30.57-19.78-9-19.78-9Z" transform="translate(-3.63 -75.17)" fill="url(#linear-gradient-6)"/>
  <path d="M238.26,236.52c-.5-.07-.76.56-.83,1a19.41,19.41,0,0,0,0,5.22,3.37,3.37,0,0,0,1.3,2.63,6,6,0,0,0,2.56.39,2.18,2.18,0,0,0,1.41-.09c.59-.38.5-1.26.33-1.94a23.89,23.89,0,0,0-1.18-3.8,5.27,5.27,0,0,0-1.66-2.21C239.65,237.39,238.87,236.61,238.26,236.52Z" transform="translate(-3.63 -75.17)" fill="#68e1fd"/>
  <path d="M238.26,236.52c-.5-.07-.76.56-.83,1-.25,1.73.11,1.52.33,3.25.13,1,.05,4.09.93,4.6a6,6,0,0,0,2.56.39,2.18,2.18,0,0,0,1.41-.09c.59-.38.5-1.26.33-1.94a23.89,23.89,0,0,0-1.18-3.8,5.27,5.27,0,0,0-1.66-2.21C239.65,237.39,238.87,236.61,238.26,236.52Z" transform="translate(-3.63 -75.17)" fill="url(#linear-gradient-7)"/>
  <path d="M146.22,236.33c-1.55-.18.84-3,1.75-4.3a14.74,14.74,0,0,1,3.59-3.17,79.83,79.83,0,0,0,9.72-8.27s24.44,1.86,26.47,3.43,10.56,20.68,13,28.09,1.35,18.21-.22,20.9,5.16,40.46,5.16,40.46-2.13,5.39-8.2,1c0,0-12.81,18.2-30,15.51l-9.44-1.35s13.48-26.63,8.09-44.16-13.48-37.42-13.48-37.42L148,239S147.13,236.44,146.22,236.33Z" transform="translate(-3.63 -75.17)" fill="#68e1fd"/>
  <path d="M146.22,236.33c-1.55-.18.84-3,1.75-4.3a14.74,14.74,0,0,1,3.59-3.17,79.83,79.83,0,0,0,9.72-8.27s24.44,1.86,26.47,3.43,10.56,20.68,13,28.09,1.35,18.21-.22,20.9,5.16,40.46,5.16,40.46-2.13,5.39-8.2,1c0,0-12.81,18.2-30,15.51l-9.44-1.35s13.48-26.63,8.09-44.16-13.48-37.42-13.48-37.42L148,239S147.13,236.44,146.22,236.33Z" transform="translate(-3.63 -75.17)" fill="url(#linear-gradient-8)"/>
  <g opacity="0.21">
    <path d="M197.1,314.9c-7.82-7.82-6.73-25.44-4.44-38.84l1.18.2c-3.22,18.82-1.8,31.89,4.1,37.8Z" transform="translate(-3.63 -75.17)" fill="#fff"/>
  </g>
  <g opacity="0.21">
    <path d="M193.84,276.26l-1.18-.2c1.4-8.16-4.14-15.07-4.2-15.14l.93-.76C189.63,260.46,195.33,267.55,193.84,276.26Z" transform="translate(-3.63 -75.17)" fill="#fff"/>
  </g>
  <path d="M181.05,248.87c.51.42,7.24,11.87,7.88,11.67,1-.32-5.18-12.8-5.51-13.82q-2.88-9.16-6.3-18.15a4.33,4.33,0,0,0-1.27-2,3.29,3.29,0,0,0-2.68-.3A8.29,8.29,0,0,0,168,231c-1.15,2.44.56,4.13,2,6.13A62.06,62.06,0,0,0,181.05,248.87Z" transform="translate(-3.63 -75.17)" fill="#fff"/>
  <path d="M175.64,232c-1.2,1.71-3.7,2-5.71,1.36a11.76,11.76,0,0,1-6.92-6.49,24,24,0,0,1-1.87-9.52,19.24,19.24,0,0,1,.44-5.31,10.16,10.16,0,0,1,.65-1.85,3.72,3.72,0,0,1,1.7-1.92,3.58,3.58,0,0,1,1.87-.22,10.59,10.59,0,0,1,7.91,5c1.85,3,0,6.49.71,9.93a5,5,0,0,0,.16.64c.45,1.41,1.14,2.72,1.51,4.15A5.1,5.1,0,0,1,175.64,232Z" transform="translate(-3.63 -75.17)" fill="url(#linear-gradient-9)"/>
  <path d="M174.42,223a6,6,0,0,1-4.49.27,11.73,11.73,0,0,1-6.92-6.49,18.73,18.73,0,0,1-1.43-4.71,10.16,10.16,0,0,1,.65-1.85,3.72,3.72,0,0,1,1.7-1.92,3.58,3.58,0,0,1,1.87-.22,10.59,10.59,0,0,1,7.91,5C175.56,216.08,173.67,219.53,174.42,223Z" transform="translate(-3.63 -75.17)" fill="url(#linear-gradient-10)"/>
  <path d="M186.8,177c-.34-3.34-3.46-5.62-6.32-7.38-6.65-4.09-14.09-7.92-21.86-7.14a25.81,25.81,0,0,0-7,1.81,15.34,15.34,0,0,0-5.43,3.3,7,7,0,0,0-2.08,5.81c.37,2.21,2.11,4.17,1.86,6.39a11.43,11.43,0,0,1-1.14,3,11.15,11.15,0,0,0,.32,9.38c.48.95,1.11,1.82,1.52,2.8s.59,2,.92,3a11.85,11.85,0,0,0,5.83,6.83,6.39,6.39,0,0,0,3.95.78,8.75,8.75,0,0,0,4-2.4l15.88-14.11C181.21,185.58,186.8,183,186.8,177Z" transform="translate(-3.63 -75.17)" fill="#3f3d56"/>
  <path d="M186.8,177c-.34-3.34-3.46-5.62-6.32-7.38-6.65-4.09-14.09-7.92-21.86-7.14a25.81,25.81,0,0,0-7,1.81,15.34,15.34,0,0,0-5.43,3.3,7,7,0,0,0-2.08,5.81c.37,2.21,2.11,4.17,1.86,6.39a11.43,11.43,0,0,1-1.14,3,11.15,11.15,0,0,0,.32,9.38c.48.95,1.11,1.82,1.52,2.8s.59,2,.92,3a11.85,11.85,0,0,0,5.83,6.83,6.39,6.39,0,0,0,3.95.78,8.75,8.75,0,0,0,4-2.4l15.88-14.11C181.21,185.58,186.8,183,186.8,177Z" transform="translate(-3.63 -75.17)" fill="url(#linear-gradient-11)"/>
  <polygon points="371.88 266.27 240.41 266.27 243.45 258.52 243.45 99.41 240.41 88.29 371.88 88.29 369.52 99.41 369.52 258.52 371.88 266.27" fill="#cacccc"/>
  <rect x="243.45" y="99.41" width="126.08" height="159.11" fill="#fff"/>
  <path d="M187.07,189.3c2,6.62,2.58,14.27.51,20.85-1.67,5.31-4.09,8.26-9.64,8.73a19.15,19.15,0,0,1-15-6,5,5,0,0,0-2.61-1.82,6.9,6.9,0,0,0-1.81.12,8.21,8.21,0,0,1-6-2c-1.3-1.08-2.39-2.67-2.16-4.35s2.38-3,3.71-1.94c-.7-6.33-1.25-13.3,2.43-18.5,3.35-4.72,9.34-6.7,15-7.86a20.74,20.74,0,0,1,7.35-.5C186.18,177.17,185.37,183.58,187.07,189.3Z" transform="translate(-3.63 -75.17)" fill="url(#linear-gradient-12)"/>
  <path d="M159.1,185.89a15.64,15.64,0,0,0-2.34,9.07,79.07,79.07,0,0,0,1.08,9.44c.07.6,0,1.42-.59,1.54-.38.08-.73-.21-1-.49a19.45,19.45,0,0,1-5.61-13.38,14.14,14.14,0,0,1,1.4-6.57c1.54-3.05,5.91-7.13,9.49-7.57C166.89,177.27,159.81,184.84,159.1,185.89Z" transform="translate(-3.63 -75.17)" fill="#3f3d56"/>
  <path d="M161.23,249.42l-9.44,41.8,30.56,1.8-2.25,6.74s-43.59,3.14-44.49.9,10.61-64.33,10.61-64.33S156.73,237.73,161.23,249.42Z" transform="translate(-3.63 -75.17)" fill="#68e1fd"/>
  <path d="M182.35,293l-.44,1.32-1.45,4.36-.36,1.06s-43.59,3.15-44.49.9,10.61-64.33,10.61-64.33,10.51,1.4,15,13.09l-9.43,41.8Z" transform="translate(-3.63 -75.17)" fill="url(#linear-gradient-13)"/>
  <path d="M239,239c.39-.77.74-1.54,1.09-2.32l2.69-5.9a8.14,8.14,0,0,1,1.88-2.95c1.86-1.61,4.84-1.33,6.7-3a1.65,1.65,0,0,1-.75,2.42,83.59,83.59,0,0,1,15-6.2c.82.86-.25,2.19-1.23,2.86l-5.83,4a11.68,11.68,0,0,1,6.7-3.76,25.88,25.88,0,0,1-7.58,8.51l2.44-2.14a7.29,7.29,0,0,1-1,1.9c-3.12,4.59-8.28,7.3-13.22,9.83l-7,3.58C237.38,244,237.9,241.06,239,239Z" transform="translate(-3.63 -75.17)" fill="url(#linear-gradient-14)"/>
  <polygon points="189.63 200.99 181.2 232.79 203.78 232.12 215.58 201.21 189.63 200.99" fill="#fff"/>
  <path d="M204,293.4a18.46,18.46,0,0,1-11.94,7.51,8.88,8.88,0,0,1-5.87-.68,17.86,17.86,0,0,0-1.82-1.09,8.59,8.59,0,0,0-3.35-.42l-.58,0,1.45-4.36a10.17,10.17,0,0,0,1.62-.28,33,33,0,0,0,6.37-2.38,1.77,1.77,0,0,1,.08,1.46l13.28-1.29a1.12,1.12,0,0,1,1,.21C204.57,292.42,204.31,293,204,293.4Z" transform="translate(-3.63 -75.17)" fill="url(#linear-gradient-15)"/>
  <path d="M193.92,498.58a30.37,30.37,0,0,1-3.63-7.05" transform="translate(-3.63 -75.17)" fill="none"/>
  <path d="M190.7,407.79c0-.65,0-1.31-.09-2" transform="translate(-3.63 -75.17)" fill="none"/>
  <path d="M186.45,492.11c-1.07,1.68-2.84,2.89-4.58,2.49a5.22,5.22,0,0,1-1.49-.67c-2.66-1.65-4-4.71-5.11-8-1.05,5.27-1.45,9.28-.63,12.27s1.1,5.46,3.08,7.54,6.71,1,9.33.79a3.92,3.92,0,0,0,2.38-.88c1.13-1,1.49-2.84,1.72-4.52a17.56,17.56,0,0,0,.19-2.51,17.32,17.32,0,0,0-.42-3.13c-.53-2.63-.95-5.81-2-8.24-.6-1.43-.87.93-1.1,1.66A13.4,13.4,0,0,1,186.45,492.11Z" transform="translate(-3.63 -75.17)" fill="#68e1fd"/>
  <path d="M194.28,484.24c-1.06-.25-5.57-5.92-6.31-6.72.32,2.19.11,9.61,2.33,15.07a14.47,14.47,0,0,0,1.58,3.72,8.86,8.86,0,0,0,3.23,2.37,24.59,24.59,0,0,0,5.26,1.87c2.24.52,4.91.6,6.52-1.05a5.11,5.11,0,0,0,1.26-4,12.17,12.17,0,0,0-1.32-4.13c-2.13-4.42-4.93-7.09-8.75-11C197.93,482.59,197.18,484.94,194.28,484.24Z" transform="translate(-3.63 -75.17)" fill="#68e1fd"/>
  <path d="M186.45,492.11c-1.07,1.68-2.84,2.89-4.58,2.49a5.22,5.22,0,0,1-1.49-.67c-2.66-1.65-4-4.71-5.11-8-1.05,5.27-1.45,9.28-.63,12.27s1.1,5.46,3.08,7.54,6.71,1,9.33.79a3.92,3.92,0,0,0,2.38-.88c1.13-1,1.49-2.84,1.72-4.52a17.56,17.56,0,0,0,.19-2.51,17.32,17.32,0,0,0-.42-3.13c-.53-2.63-.95-5.81-2-8.24-.6-1.43-.87.93-1.1,1.66A13.4,13.4,0,0,1,186.45,492.11Z" transform="translate(-3.63 -75.17)" fill="url(#linear-gradient-16)"/>
  <path d="M194.28,484.24c-1.06-.25-5.57-5.92-6.31-6.72.32,2.19.11,9.61,2.33,15.07a14.47,14.47,0,0,0,1.58,3.72,8.86,8.86,0,0,0,3.23,2.37,24.59,24.59,0,0,0,5.26,1.87c2.24.52,4.91.6,6.52-1.05a5.11,5.11,0,0,0,1.26-4,12.17,12.17,0,0,0-1.32-4.13c-2.13-4.42-4.93-7.09-8.75-11C197.93,482.59,197.18,484.94,194.28,484.24Z" transform="translate(-3.63 -75.17)" fill="url(#linear-gradient-17)"/>
  <path d="M157.63,224l4.05,17.31,7.19,2.92-1.13,9.21,21.8,9-8.49-13.58L166.17,231s-4.75-7.16-4.89-10.4S157.63,224,157.63,224Z" transform="translate(-3.63 -75.17)" fill="#68e1fd"/>
  <path d="M157.63,224l4.05,17.31,7.19,2.92-1.13,9.21,21.8,9-8.49-13.58L166.17,231s-4.75-7.16-4.89-10.4S157.63,224,157.63,224Z" transform="translate(-3.63 -75.17)" fill="url(#linear-gradient-18)"/>
  <path d="M174.26,219.58a7.24,7.24,0,0,1,3.37,2.36c1.18,1.69,8.09,12,8.09,12l-1,3.88,3.88,6.07.34,16.68-6.24-16s-6.39-17.85-7.25-19.38S173.76,220.76,174.26,219.58Z" transform="translate(-3.63 -75.17)" fill="#68e1fd"/>
  <path d="M174.26,219.58a7.24,7.24,0,0,1,3.37,2.36c1.18,1.69,12.31,13.49,12.31,13.49L186.23,240l5.56,3.37-2.86,17.19-6.24-16s-6.39-17.85-7.25-19.38S173.76,220.76,174.26,219.58Z" transform="translate(-3.63 -75.17)" fill="url(#linear-gradient-19)"/>
  <path d="M197.52,314.48" transform="translate(-3.63 -75.17)" fill="none" stroke="#68e1fd" stroke-miterlimit="10" stroke-width="1.2"/>
  <path d="M193.25,276.16" transform="translate(-3.63 -75.17)" fill="none" stroke="#68e1fd" stroke-miterlimit="10" stroke-width="1.2"/>
  <path d="M188.93,260.54" transform="translate(-3.63 -75.17)" fill="none" stroke="#68e1fd" stroke-miterlimit="10" stroke-width="1.2"/>
  <line x1="149.97" y1="127.38" x2="164.86" y2="123.23" fill="none" stroke="#fff" stroke-miterlimit="10" stroke-width="1.2"/>
  <circle cx="169.18" cy="122.54" r="4.97" fill="none" stroke="#fff" stroke-miterlimit="10" stroke-width="1.2"/>
  <circle cx="181.32" cy="119.22" r="4.97" fill="none" stroke="#fff" stroke-miterlimit="10" stroke-width="1.2"/>
  <line x1="173.95" y1="121.32" x2="176.7" y2="120.7" fill="none" stroke="#fff" stroke-miterlimit="10" stroke-width="1.2"/>
  <rect x="276.48" y="412.91" width="49.89" height="10.11" rx="5.06" fill="#68e1fd"/>
  <rect x="276.48" y="412.91" width="49.89" height="10.11" rx="5.06" fill="url(#linear-gradient-20)"/>
  <path d="M314.48,200.48A37.42,37.42,0,1,1,276.38,238c0-1.27.07-2.51.19-3.75l37.24,3.68Z" transform="translate(-3.63 -75.17)" fill="#68e1fd" opacity="0.18" style="isolation: isolate"/>
  <path d="M310.94,197.14a6,6,0,0,1,.73,0l-.67,37.4-37.24-3.67A37.43,37.43,0,0,1,310.94,197.14Z" transform="translate(-3.63 -75.17)" fill="#68e1fd" opacity="0.47" style="isolation: isolate"/>
  <path d="M350.66,297.3H264.09a4.34,4.34,0,0,1-4.45-5h0a5.93,5.93,0,0,1,5.74-5H352a4.33,4.33,0,0,1,4.44,5h0A5.91,5.91,0,0,1,350.66,297.3Z" transform="translate(-3.63 -75.17)" fill="#68e1fd" opacity="0.18" style="isolation: isolate"/>
  <path d="M350.66,321.57H264.09a4.34,4.34,0,0,1-4.45-5h0a5.93,5.93,0,0,1,5.74-5H352a4.33,4.33,0,0,1,4.44,5h0A5.91,5.91,0,0,1,350.66,321.57Z" transform="translate(-3.63 -75.17)" fill="#68e1fd" opacity="0.18" style="isolation: isolate"/>
</svg>
