<svg id="Layer_1" data-name="Layer 1" xmlns="http://www.w3.org/2000/svg" xmlns:xlink="http://www.w3.org/1999/xlink" width="560.99" height="577.6" viewBox="0 0 560.99 577.6">
  <defs>
    <linearGradient id="linear-gradient" x1="112.58" y1="205.76" x2="146.49" y2="205.76" gradientUnits="userSpaceOnUse">
      <stop offset="0" stop-color="#ecc4d7"/>
      <stop offset="0.42" stop-color="#efd4d1"/>
      <stop offset="1" stop-color="#f2eac9"/>
    </linearGradient>
    <linearGradient id="linear-gradient-2" x1="222.24" y1="532.81" x2="289.71" y2="355.99" gradientUnits="userSpaceOnUse">
      <stop offset="0.02" stop-color="#fff" stop-opacity="0"/>
      <stop offset="0.58" stop-color="#fff" stop-opacity="0.39"/>
      <stop offset="0.68" stop-color="#fff" stop-opacity="0.68"/>
      <stop offset="1" stop-color="#fff"/>
    </linearGradient>
    <linearGradient id="linear-gradient-3" x1="279.98" y1="187.79" x2="269.14" y2="518.26" gradientUnits="userSpaceOnUse">
      <stop offset="0" stop-opacity="0"/>
      <stop offset="0.99"/>
    </linearGradient>
    <linearGradient id="linear-gradient-4" x1="140.13" y1="-461.99" x2="171.47" y2="-461.99" gradientTransform="translate(-22.21 663.93) rotate(16.97)" xlink:href="#linear-gradient"/>
    <linearGradient id="linear-gradient-5" x1="263.21" y1="167.2" x2="209.44" y2="201.19" gradientTransform="translate(10.66 78.72) rotate(2.06)" xlink:href="#linear-gradient"/>
    <linearGradient id="linear-gradient-6" x1="-45.01" y1="1371.45" x2="-4.94" y2="1371.45" gradientTransform="translate(-347.21 -993.85) rotate(-26.86)" xlink:href="#linear-gradient"/>
    <linearGradient id="linear-gradient-7" x1="277.69" y1="233.05" x2="299.49" y2="233.05" xlink:href="#linear-gradient"/>
    <linearGradient id="linear-gradient-8" x1="302.67" y1="200.08" x2="286.39" y2="211.45" gradientTransform="translate(198.37 -145.22) rotate(39.74)" xlink:href="#linear-gradient-3"/>
    <linearGradient id="linear-gradient-9" x1="280.88" y1="504.45" x2="468.57" y2="144.14" xlink:href="#linear-gradient-3"/>
    <linearGradient id="linear-gradient-10" x1="500.84" y1="136.78" x2="330.22" y2="202.96" xlink:href="#linear-gradient-3"/>
    <linearGradient id="linear-gradient-11" x1="533.45" y1="249.43" x2="474.51" y2="397.36" xlink:href="#linear-gradient-3"/>
    <linearGradient id="linear-gradient-12" x1="285.93" y1="327.82" x2="-16.5" y2="400.38" xlink:href="#linear-gradient-3"/>
    <linearGradient id="linear-gradient-13" x1="338.26" y1="255.11" x2="335.39" y2="342.74" xlink:href="#linear-gradient-3"/>
  </defs>
  <title>Marketing</title>
  <path d="M196,42.36c-23.23,33.74-29.32,80.88-60.22,110.53-15.57,15-35.67,24.11-53.85,35.81C44.46,212.8,14.16,250,4.93,293.51-3.24,331.46,6.45,379.62,37,406c15.72,13.54,29.1,20.81,40.42,39.61,12.25,20.35,18.79,39,37.43,54.31,18,14.82,38.37,26.6,58.49,38.32,21,12.22,42.26,24.56,65.57,31.44,24.29,7.18,49.94,8.16,75.27,8.25,36.2.13,74.67-2.2,104.31-23,26.08-18.28,38.45-46.16,52.61-73.44s30.79-51,48.21-76.54c16.53-24.1,33.33-48.89,39.53-77.4a114.76,114.76,0,0,0-1.61-53.83c-3.92-14.59-2.66-30.77-10.57-43.84a154.66,154.66,0,0,0-43.22-46.26c-17.42-12.24-37.2-20.75-54.74-32.82s-33.37-29-36.94-50c-1.35-7.91-.89-16-1.9-24C406.92,53.45,391.15,33,371.21,20.41S327.53,2.51,304,.83C278.93-1,253,1.38,230.28,12.28,215.22,19.53,204.46,30.05,196,42.36Z" transform="translate(-2.16 -0.29)" fill="#68e1fd" opacity="0.18" style="isolation: isolate"/>
  <path d="M139.77,208.53c-2.28-3.54-2.84-7.88-4.26-11.85s-4.3-8-8.48-8.45-7.88,2.82-10.49,6.16a19.15,19.15,0,0,0-3.44,6,11.64,11.64,0,0,0,8.73,14.85c2.1.44,4.36.32,6.28,1.27a15.77,15.77,0,0,1,3.51,2.86c2.43,2.27,5.54,4.17,8.86,3.95,2.94-.2,6.75-3.19,5.89-6.51C145.57,213.74,141.48,211.18,139.77,208.53Z" transform="translate(-2.16 -0.29)" fill="url(#linear-gradient)"/>
  <path d="M107.14,279.22V497.15s0,14.73,14.73,16.29,308.66,0,308.66,0,10.86.77,16.29-14,0-220.26,0-220.26Z" transform="translate(-2.16 -0.29)" fill="#68e1fd"/>
  <path d="M107.14,279.22V497.15s0,14.73,14.73,16.29,308.66,0,308.66,0,10.86.77,16.29-14,0-220.26,0-220.26Z" transform="translate(-2.16 -0.29)" opacity="0.69" fill="url(#linear-gradient-2)" style="isolation: isolate"/>
  <path d="M281.63,130.32,107.14,279.22,223.81,379.63A40.14,40.14,0,0,0,250,389.35h58.57a27.7,27.7,0,0,0,18.08-6.71L446.82,279.22Z" transform="translate(-2.16 -0.29)" fill="#68e1fd"/>
  <path d="M281.63,130.32,107.14,279.22l115,99a46,46,0,0,0,30,11.13H306a34.78,34.78,0,0,0,22.67-8.41L446.82,279.22Z" transform="translate(-2.16 -0.29)" fill="url(#linear-gradient-3)"/>
  <path d="M357.24,246c-.05.27-.1.55-.14.82a55.16,55.16,0,0,1-19.87,33.41c-5.73,4.55-12.62,8.18-16.09,14.62-2.18,4-2.74,8.71-3.18,13.29-2.6,26.76-3.71,52.92-.79,79.65l-8,1.56H276.28c-3.18,0-13.09.85-21.94.83h-.05c-7,0-13.41-.64-15.15-2.68a1.12,1.12,0,0,1-.16-.22,2,2,0,0,1-.21-.34c-.08-.14-.17-.28-.25-.44s-.18-.36-.27-.55l-.09-.18c-2.34-5.3-2.13-14.49-2.67-19.65-.76-7.34-1.24-14.73-2.06-22.07-1.7-14.87-5.1-30.13-14.19-42-1.31-1.7-3.71-4.37-6.75-7.58-10.8-11.41-29.75-29.68-37-36.07-1.17-1-42.2-32.71-42.57-34.21-1-4.34,11.07-10.17,13-14.17,13.5,7.76,66.79,46.09,80.27,53.86,6.54,3.76,13.18,7.57,20.51,9.38,15.41,3.81,31.44-1.67,46.38-7.08,10.25-3.71,23.94-9.38,34.71-16,4.65-2.85,11.73-8.44,5.13-8.18-11.08.43-22.94-.4-32.07.07a3.3,3.3,0,0,1-2.73-.65,3.16,3.16,0,0,1-.52-2.35c.41-8.06-.93-8.28,1.59-15.95,9.74,2.4,21.38.28,31.4.4,10.73.12,15.21-1.45,22.05,5.87a18.59,18.59,0,0,1,4.16,6.37C358,239,357.77,242.58,357.24,246Z" transform="translate(-2.16 -0.29)" fill="#68e1fd"/>
  <path d="M252.92,274.37c2.6,4.24,1.87,7,5.78,10.07,1.84,1.45,9.66,3,12.72.68,3.82-2.93,3.37-11.29,3.44-11.86a5.59,5.59,0,0,0-.62-2.72,82.68,82.68,0,0,1-3.34-8.44,16.34,16.34,0,0,1-.39-9,8.63,8.63,0,0,0-6.38-2.46,13.75,13.75,0,0,0-6.19,2.45c-1.43,1-5.88-6.16-6.8-4.7C250.34,249.71,252.85,270.88,252.92,274.37Z" transform="translate(-2.16 -0.29)" fill="url(#linear-gradient-4)"/>
  <path d="M250.89,244.55s4.18,20.58,12.28,25.27,11.58,1.84,11.58,1.84l-6.16-15.61Z" transform="translate(-2.16 -0.29)" fill="url(#linear-gradient-5)"/>
  <path d="M265.63,262.29a12.91,12.91,0,0,0,4.94-.32c4-1.31,5.92-6.24,5.42-11s-2.92-9.35-5.6-13.53a95.32,95.32,0,0,0-11.45-14.57,30.66,30.66,0,0,0-8-6.48,15.8,15.8,0,0,0-12.93-.71,18,18,0,0,0-9.09,8.61,20.67,20.67,0,0,0-2.18,12.8C229.45,254,253.11,261.28,265.63,262.29Z" transform="translate(-2.16 -0.29)" fill="url(#linear-gradient-6)"/>
  <path d="M278.68,234.68c-1.41.87-3.27.48-4.73-.3a9.55,9.55,0,0,1-4.57-5.38,8.48,8.48,0,0,1,.81-7c1-1.54,2.48-2.82,2.8-4.6,0,0,11.74-9.3,13.81-22.48s15.51-1,15.51-1,14.88,13.21,7.86,21.34a5.86,5.86,0,0,1-5.6,1.72c-3-.58-8.91-.12-17.42,7.87Z" transform="translate(-2.16 -0.29)" fill="#fff"/>
  <path d="M287.15,224.85a9.58,9.58,0,0,0-4.55.47,8.69,8.69,0,0,0-3.6,3.79,8.07,8.07,0,0,0-1.3,3.75c-.05,1.79.91,3.43,1.85,4.95a7.17,7.17,0,0,0,2.2,2.58,7.28,7.28,0,0,0,3.16.79c1.8.18,3.75.31,5.29-.65a13.06,13.06,0,0,1,1.88-1.29c1.89-.78,4.44.73,5.92-.67a4,4,0,0,0,.88-2.73l.37-5.81c.11-1.64.83-3.36-.91-3.95C295.15,225,290.52,224.85,287.15,224.85Z" transform="translate(-2.16 -0.29)" fill="url(#linear-gradient-7)"/>
  <path d="M289.9,236.57s11.64,11.89,15,11.89-4.66,11.38-8.53,9.31-11.46-16.59-11.46-16.59,2.15-4.48,3.25-4.87A1.67,1.67,0,0,1,289.9,236.57Z" transform="translate(-2.16 -0.29)" fill="#fff"/>
  <ellipse cx="300.11" cy="201.86" rx="6.2" ry="15.06" transform="translate(-61.88 238.19) rotate(-39.74)" fill="#68e1fd"/>
  <ellipse cx="300.11" cy="201.86" rx="6.2" ry="15.06" transform="translate(-61.88 238.19) rotate(-39.74)" fill="url(#linear-gradient-8)"/>
  <path d="M251.5,212.87a17.16,17.16,0,0,1-5.92,9.19c-1.68,1.43-3.56,2.63-5.21,4.1a11.19,11.19,0,0,0-3.68,5.4,10.72,10.72,0,0,0,1.51,7.82,60.14,60.14,0,0,0,4.88,6.52,2,2,0,0,1,.59,1.79c-.25.7-1.15.9-1.89.85a5.84,5.84,0,0,1-2.55-.78,3.53,3.53,0,0,0-1.39-.61,1.72,1.72,0,0,0-1.64,1.66,3.79,3.79,0,0,0,.85,2.4,10.26,10.26,0,0,0,7.54,4.23,1.16,1.16,0,0,1-.8,1.44,3.11,3.11,0,0,1-1.83-.12c-1.55-.44-3.06-1-4.56-1.57L231.59,253c-2.32-.86-4.64-1.72-6.92-2.67a12.17,12.17,0,0,1-4.74-2.94c-1.43-1.64-2-3.88-2.32-6a13,13,0,0,1,.06-6.32c.64-1.92,2.1-3.57,2.25-5.58s-1.14-4-2.11-5.84c-1.12-2.16-1.85-4.7-1.12-7a7.75,7.75,0,0,1,3.65-4.22,16.15,16.15,0,0,1,5.4-1.75c1.64-.29,3.41-.52,4.66-1.63,2.86-2.52,1.35-8,4.36-10.3,3.21-2.49,8.36.66,11.35,2.31A10.56,10.56,0,0,1,251.5,212.87Z" transform="translate(-2.16 -0.29)" fill="#3f3d56"/>
  <path d="M121.87,513.44l92.27-101.12a70.48,70.48,0,0,1,52.06-23h21.27a70.5,70.5,0,0,1,52.39,23.33l90.67,100.76Z" transform="translate(-2.16 -0.29)" fill="#68e1fd"/>
  <path d="M121.87,513.44l91.85-100.66a71.9,71.9,0,0,1,53.1-23.43h20a71.91,71.91,0,0,1,53.44,23.8l90.25,100.29Z" transform="translate(-2.16 -0.29)" fill="url(#linear-gradient-9)"/>
  <path d="M487.15,178.4A46.53,46.53,0,1,1,437.51,132V178.4Z" transform="translate(-2.16 -0.29)" fill="#68e1fd"/>
  <path d="M492.19,173H442.55V126.55c1-.08,2.06-.11,3.1-.11A46.54,46.54,0,0,1,492.19,173Z" transform="translate(-2.16 -0.29)" fill="#68e1fd"/>
  <path d="M492.19,173H442.55V126.55c1-.08,2.06-.11,3.1-.11A46.54,46.54,0,0,1,492.19,173Z" transform="translate(-2.16 -0.29)" fill="url(#linear-gradient-10)"/>
  <rect x="482.92" y="255.67" width="78.07" height="54.8" rx="12.79" fill="#68e1fd"/>
  <polygon points="509.02 271.7 509.02 296 535.91 282.3 509.02 271.7" fill="url(#linear-gradient-11)"/>
  <polygon points="524.73 189.17 523.95 201 513.29 207.2 524.92 213.02 526.09 225.81 536.75 213.99 548.58 215.15 542.95 206.42 545.09 193.82 534.04 198.28 524.73 189.17" fill="#68e1fd"/>
  <polygon points="132.89 106.96 132.12 118.79 121.45 124.99 133.09 130.81 134.25 143.6 144.91 131.78 156.74 132.94 151.12 124.22 153.25 111.61 142.2 116.07 132.89 106.96" fill="#68e1fd"/>
  <rect x="11.91" y="171.52" width="10.86" height="34.9" fill="#68e1fd"/>
  <rect x="27.22" y="185.42" width="10.86" height="21" fill="#68e1fd"/>
  <rect x="42.54" y="177.69" width="10.86" height="28.73" fill="#68e1fd"/>
  <line x1="310.88" y1="167.65" x2="304.67" y2="178.89" fill="none" stroke="#fff" stroke-linecap="round" stroke-miterlimit="10" stroke-width="4.13"/>
  <line x1="323.87" y1="178.12" x2="312.43" y2="186.26" fill="none" stroke="#fff" stroke-linecap="round" stroke-miterlimit="10" stroke-width="4.13"/>
  <line x1="332.4" y1="192.46" x2="318.05" y2="196.34" fill="none" stroke="#fff" stroke-linecap="round" stroke-miterlimit="10" stroke-width="4.13"/>
  <path d="M262.24,388.83a73.79,73.79,0,0,1-7.9,1.35h-.05c-5.65.63-12.66.63-15.15-2.68a1.12,1.12,0,0,1-.16-.22,2,2,0,0,1-.21-.34c-.08-.14-.17-.28-.25-.44s-.18-.36-.27-.55l-.09-.18c-2.34-5.3-2.13-14.49-2.67-19.65-.76-7.34-1.24-14.73-2.06-22.07-1.7-14.87-5.1-30.13-14.19-42-1.31-1.7-6.82-8-9.86-11.17l4.27,1.81s33.6,14.47,36.7,27.92S262.24,388.83,262.24,388.83Z" transform="translate(-2.16 -0.29)" fill="url(#linear-gradient-12)"/>
  <path d="M357.1,246.82a55.16,55.16,0,0,1-19.87,33.41c-5.73,4.55-12.62,8.18-16.09,14.62-2.18,4-2.74,8.71-3.18,13.29,0,0,1.09-21.87,8.85-29.11s28-28.76,29.53-38.58A38.54,38.54,0,0,1,357.1,246.82Z" transform="translate(-2.16 -0.29)" fill="url(#linear-gradient-13)"/>
</svg>
