<svg id="Layer_1" data-name="Layer 1" xmlns="http://www.w3.org/2000/svg" xmlns:xlink="http://www.w3.org/1999/xlink" viewBox="0 0 823.96 587.75"><defs><linearGradient id="linear-gradient" x1="586.27" y1="293.65" x2="685.94" y2="332.18" gradientUnits="userSpaceOnUse"><stop offset="0" stop-opacity="0"/><stop offset="0.99"/></linearGradient><linearGradient id="linear-gradient-2" x1="407.83" y1="454.97" x2="410.21" y2="720.2" xlink:href="#linear-gradient"/><linearGradient id="linear-gradient-3" x1="636.95" y1="427.83" x2="722.53" y2="459.53" xlink:href="#linear-gradient"/><linearGradient id="linear-gradient-4" x1="614.06" y1="403.78" x2="651.19" y2="523.77" xlink:href="#linear-gradient"/><linearGradient id="linear-gradient-5" x1="629.89" y1="330.6" x2="731.78" y2="332.83" xlink:href="#linear-gradient"/><linearGradient id="linear-gradient-6" x1="-777.14" y1="238.38" x2="-744.11" y2="238.38" gradientTransform="matrix(-1, 0, 0, 1, -133.07, 0)" gradientUnits="userSpaceOnUse"><stop offset="0" stop-color="#ecc4d7"/><stop offset="0.42" stop-color="#efd4d1"/><stop offset="1" stop-color="#f2eac9"/></linearGradient><linearGradient id="linear-gradient-7" x1="-792.78" y1="384.28" x2="-774.69" y2="384.28" xlink:href="#linear-gradient-6"/><linearGradient id="linear-gradient-8" x1="662.72" y1="395.53" x2="647.82" y2="392.69" xlink:href="#linear-gradient"/><linearGradient id="linear-gradient-9" x1="639.08" y1="395.38" x2="648.77" y2="393.34" gradientUnits="userSpaceOnUse"><stop offset="0.19" stop-opacity="0"/><stop offset="0.99"/></linearGradient><linearGradient id="linear-gradient-10" x1="646.54" y1="409.34" x2="705.86" y2="462.77" xlink:href="#linear-gradient"/><linearGradient id="linear-gradient-11" x1="636.51" y1="257.75" x2="616.83" y2="373.75" xlink:href="#linear-gradient"/><linearGradient id="linear-gradient-12" x1="622.92" y1="255.45" x2="603.24" y2="371.44" xlink:href="#linear-gradient"/><linearGradient id="linear-gradient-13" x1="525.83" y1="299.94" x2="549.72" y2="299.94" gradientTransform="matrix(1, 0, 0, 1, 0, 0)" xlink:href="#linear-gradient-6"/><linearGradient id="linear-gradient-14" x1="523.13" y1="290.08" x2="550.36" y2="296.86" xlink:href="#linear-gradient"/></defs><title>21. Navigation</title><path d="M11.46,497.27S-90,155.45,311.74,28.79c347-109.37,582.7,258.12,493.15,468.48C770.82,577.28,11.46,497.27,11.46,497.27Z" transform="translate(-0.02 -8.89)" fill="#68e1fd" opacity="0.18"/><path d="M606.93,220.72c.05-3.26,2.36-6.58,5.59-7.05a1.86,1.86,0,0,1,.94.06,1.7,1.7,0,0,1,.61.49c1.81,2.11,1.09,5.36-.16,7.84a50.54,50.54,0,0,0-3,6.49C608.34,227.85,606.9,223.2,606.93,220.72Z" transform="translate(-0.02 -8.89)" fill="#25233a"/><path d="M606.81,265.49l-20.36,44.72-36.75-7.79-6.13,10.8s40.09,15.92,44.55,14.81,19.49-14.81,19.49-14.81Z" transform="translate(-0.02 -8.89)" fill="#68e1fd"/><path d="M606.81,265.49l-20.36,44.72-36.75-7.79-6.13,10.8s40.09,15.92,44.55,14.81,19.49-14.81,19.49-14.81Z" transform="translate(-0.02 -8.89)" fill="url(#linear-gradient)" style="isolation:isolate"/><path d="M168.28,220.33a85.52,85.52,0,0,0-77.78,121l5.12,9.55,65,121.15,71.46-109.33,14-21.37a85.52,85.52,0,0,0-77.78-121Zm0,39.33a40.16,40.16,0,1,1-40.17,40.16A40.16,40.16,0,0,1,168.28,259.66Z" transform="translate(-0.02 -8.89)" fill="#68e1fd"/><rect x="108.68" y="469.76" width="92.43" height="17.82" fill="#68e1fd"/><path d="M804.91,495.42a138.49,138.49,0,0,1-46.82,45.3C674.83,589.1,535.82,558,425.19,562.15c-73.87,2.78-176.95,66.66-329.09,13.28-27.18-9.53-81.79-65.51-84.62-80Z" transform="translate(-0.02 -8.89)" fill="#68e1fd"/><path d="M804.91,495.42a138.49,138.49,0,0,1-46.82,45.3C674.83,589.1,535.82,558,425.19,562.15c-73.87,2.78-176.95,66.66-329.09,13.28-27.18-9.53-81.79-65.51-84.62-80Z" transform="translate(-0.02 -8.89)" fill="url(#linear-gradient-2)" style="isolation:isolate"/><path d="M531.92,503.12l7.4,7.38a9.57,9.57,0,0,0-6.79,4.2c-1.39,2.37-1.1,5.79,1.07,7.48s5.44,1.17,8.22.58c42.35-9.11,86.21-5.91,129.52-6.51,8.76-.12,18-.53,25.44-5.12,1.62-1,3.3-2.51,3.18-4.42-.16-2.49-3.19-3.7-5.68-3.69-6.69,0-14.64,4.12-19.26-.71-1.58-1.66-2.32-4.1-4.24-5.34-3.15-2-7.17.26-10.42,2.11-15.75,8.91-35.1,7.3-53.1,5.43a70.07,70.07,0,0,1-12.81-2.13c-4.62-1.37-8.91-3.67-13.47-5.22-9.48-3.21-19.52-2.87-29.36-2C549.28,495.31,529.94,501.14,531.92,503.12Z" transform="translate(-0.02 -8.89)" fill="#1d2741" opacity="0.18"/><polygon points="603.42 353.99 621.48 419.73 659.07 471.96 670.85 463.98 644.73 412.78 649.11 361.13 612.08 345.25 603.42 353.99" fill="#25233a"/><path d="M572.25,474.48l13.18,8s13.5-45.84,22.84-59.63c21.74-32.07,39.57-53.32,39.57-53.32l-31.25-15.18-.39-.2-6.16,14-24.91,43.2L582,425.24Z" transform="translate(-0.02 -8.89)" fill="#3f3d56"/><polygon points="678.11 415.37 681.39 442.99 627.6 449.43 616.34 448.05 621.13 398.32 623.92 395.15 678.11 415.37" fill="#68e1fd"/><polygon points="678.11 415.37 681.39 442.99 627.6 449.43 616.34 448.05 621.13 398.32 623.92 395.15 678.11 415.37" fill="url(#linear-gradient-3)" style="isolation:isolate"/><polygon points="627.09 448.34 624 405.09 621.32 399.73 617.87 446.9 627.09 448.34" fill="url(#linear-gradient-4)" style="isolation:isolate"/><path d="M659.05,389.77s4.57,2.66,4.8,10.37H660.4s-.23-5.64-2.88-6.21Z" transform="translate(-0.02 -8.89)" fill="#68e1fd"/><path d="M602.67,369.67l9-15.53L622,372.08s17.19-.17,27.66-2.27l1.37-.29c4.07-.94,6.79-2.23,6.5-4-.27-1.61-1.33-6.53-2.1-13.1a106.54,106.54,0,0,1-.53-21.43c.48-5.64,3-11.37,4.84-16.56a36.09,36.09,0,0,0,2-7.52,103.32,103.32,0,0,1,2-12.11,38.25,38.25,0,0,0,.93-10.85c-.21-8.15-1.74-17-2.65-18.82s-9.12-5.61-14.1-7.72c-2.25-1-3.84-1.59-3.84-1.59h-20l-17.25,9.66s-3.37,21-3.83,25.42,5.09,22.33,5.56,27.13C609.69,330,602.67,369.67,602.67,369.67Z" transform="translate(-0.02 -8.89)" fill="#68e1fd"/><path d="M637.15,324.71l10.69,44.81H651c4.07-.94,6.79-2.23,6.5-4-.52-3.1-4-18.68-2.64-34.52.75-8.6,6.07-17.28,6.9-24.09L648.89,292.5Z" transform="translate(-0.02 -8.89)" fill="url(#linear-gradient-5)" style="isolation:isolate"/><path d="M644.07,255.83l-24,39.1s1-29,2.53-34S644.07,255.83,644.07,255.83Z" transform="translate(-0.02 -8.89)" fill="#fff"/><path d="M638.78,242.26s3.15,12.7,5.29,13.57a16.73,16.73,0,0,1-10.66,6.79c-2.45.47-12.34,1.38-10.84-1.73a13,13,0,0,0,1.49-5.06v-5.06s-8,2.53-8.85-1-4.83-9.81-4.07-25,24.07-11.19,27.29-8.74S644,233.1,638.78,242.26Z" transform="translate(-0.02 -8.89)" fill="url(#linear-gradient-6)"/><path d="M649.65,369.81l-.75,2.27,10.85,4.22,1.57.61s19-38.29,20-43.12-6.91-48-19.32-68.65a32.74,32.74,0,0,0-3.26,2c-4.35,3-11.71,9.17-13.49,18l14.47,29.29,4.95,10-9.26,27.95Z" transform="translate(-0.02 -8.89)" fill="#68e1fd"/><path d="M650.41,372.67s-7.95,7.35-8.53,9,0,5.86,0,5.86h1.5l.34,4.6s.69,3.22,2.3,3.1a17.14,17.14,0,0,1,4.39.69s5.62-.46,7.11-1.95,2.3-8.51,2.19-10.46,0-7.71,0-7.71Z" transform="translate(-0.02 -8.89)" fill="url(#linear-gradient-7)"/><path d="M641.88,387.49s-2.83-.23-4.37,6.21-1.22,8.74-1.22,8.74h4.14s1-10.36,3.21-11.43l-.26-3.52Z" transform="translate(-0.02 -8.89)" fill="#68e1fd"/><path d="M659.05,389.77s4.57,2.66,4.8,10.37H660.4s-.23-5.64-2.88-6.21Z" transform="translate(-0.02 -8.89)" fill="url(#linear-gradient-8)" style="isolation:isolate"/><path d="M641.88,387.49s-2.83-.23-4.37,6.21-1.22,8.74-1.22,8.74h4.14s1-10.36,3.21-11.43l-.26-3.52Z" transform="translate(-0.02 -8.89)" fill="url(#linear-gradient-9)" style="isolation:isolate"/><path d="M621.15,407.22l2.44,17.87a4.48,4.48,0,0,0,4.86,3.85l49.68-4.68a4.45,4.45,0,0,0,3.41-2.12,4.5,4.5,0,0,0,.61-3l-2.35-16.32a4.47,4.47,0,0,0-4.71-3.83l-49.78,3.12a4.43,4.43,0,0,0-2.28.79A4.48,4.48,0,0,0,621.15,407.22Z" transform="translate(-0.02 -8.89)" fill="#68e1fd"/><path d="M621.15,407.22l2.44,17.87a4.48,4.48,0,0,0,4.86,3.85l49.68-4.68a4.45,4.45,0,0,0,3.41-2.12,4.5,4.5,0,0,0,.61-3l-2.35-16.32a4.47,4.47,0,0,0-4.71-3.83l-49.78,3.12a4.43,4.43,0,0,0-2.28.79A4.48,4.48,0,0,0,621.15,407.22Z" transform="translate(-0.02 -8.89)" fill="url(#linear-gradient-10)" style="isolation:isolate"/><path d="M580.37,489l3.18-7.69-10.12-6.13-4.28,10s-14.2.46-20.64,6.67l-2.75,5.29h34.49Z" transform="translate(-0.02 -8.89)" fill="#25233a"/><path d="M674.42,480.74l-5.18-6.67-7.87,5.11,3.32,7-5.1,9.77s-3.77-.15-7.94,3.37-2.77,4.45-2.77,4.45h20.68l11.85-17.59S677.14,481,674.42,480.74Z" transform="translate(-0.02 -8.89)" fill="#25233a"/><path d="M641.93,252.39s5.82,0,6.16,3.44l-1.84,12.76-7,2.88,1.38,7.13-22.54,19.55,26-42.32A13,13,0,0,1,641.93,252.39Z" transform="translate(-0.02 -8.89)" fill="#68e1fd"/><path d="M620.44,256.87l3.62-3.11a13.33,13.33,0,0,1-.51,4.66c-.71,1.89-4.09,30.76-3.51,36.51l-4.14-20.59,3.56-6.09-1.38-4.37Z" transform="translate(-0.02 -8.89)" fill="#68e1fd"/><path d="M641.93,252.39s5.82,0,6.16,3.44l-1.84,12.76-7,2.88,1.38,7.13-22.54,19.55,26-42.32A13,13,0,0,1,641.93,252.39Z" transform="translate(-0.02 -8.89)" fill="url(#linear-gradient-11)" style="isolation:isolate"/><path d="M620.44,256.87l3.62-3.11a13.33,13.33,0,0,1-.51,4.66c-.71,1.89-4.09,30.76-3.51,36.51l-4.14-20.59,3.56-6.09-1.38-4.37Z" transform="translate(-0.02 -8.89)" fill="url(#linear-gradient-12)" style="isolation:isolate"/><polygon points="628.29 254.22 629.9 258.48 626.8 261.77 627.54 273.82 620.01 286.03 620.56 273.91 624.96 261.31 624.07 257.63 625.99 254.18 628.29 254.22" fill="#3f3d56"/><path d="M538.37,288.54c-.76,1.41.63,2.95,1.57,4.24a8.86,8.86,0,0,1,1.66,4.16,28.93,28.93,0,0,1-9.46-3.76c-1.43-.88-3.16-1.93-4.65-1.16a3.7,3.7,0,0,0-1.64,3.19,12.36,12.36,0,0,0,3.62,9,29.34,29.34,0,0,0,8.14,5.66c2.34,1.2,5.31,2.27,7.43.71a7.33,7.33,0,0,0,2-2.72c1-1.9,2.89-4.26,2.68-6.42a14.16,14.16,0,0,0-2.27-5.59C545.86,293.31,541.74,288.54,538.37,288.54Z" transform="translate(-0.02 -8.89)" fill="url(#linear-gradient-13)"/><path d="M519,281.81,533,304.86a2.22,2.22,0,0,0,2.93.8l2.83-1.48a2.23,2.23,0,0,0,.9-3.05l-12.43-22.27a2.2,2.2,0,0,0-2.29-1.11l-2.11-.43C519.49,278.38,518.12,280.46,519,281.81Z" transform="translate(-0.02 -8.89)" fill="#68e1fd"/><path d="M519,281.81,533,304.86a2.22,2.22,0,0,0,2.93.8l2.83-1.48a2.23,2.23,0,0,0,.9-3.05l-12.43-22.27a2.2,2.2,0,0,0-2.29-1.11l-2.11-.43C519.49,278.38,518.12,280.46,519,281.81Z" transform="translate(-0.02 -8.89)" fill="url(#linear-gradient-14)" style="isolation:isolate"/><path d="M521.73,280.56l14.07,23a2.22,2.22,0,0,0,2.94.81l2.82-1.49a2.22,2.22,0,0,0,.9-3.05L530,277.6a2.23,2.23,0,0,0-2.29-1.11l-4.47.72A2.22,2.22,0,0,0,521.73,280.56Z" transform="translate(-0.02 -8.89)" fill="#fff"/><polygon points="523.92 271.67 530.57 269.7 541.74 289.72 536.03 291.85 523.92 271.67" fill="#68e1fd"/><path d="M159,511a59.62,59.62,0,0,1-9.4-10.31l10.71-7.12a49,49,0,0,0,7.3,7.89Z" transform="translate(-0.02 -8.89)" fill="#68e1fd"/><path d="M244.49,539.55c-5.12,0-10.19-.21-15.08-.63l1.11-12.81a170.83,170.83,0,0,0,23.4.34l.66,12.84C251.18,539.47,247.78,539.55,244.49,539.55Zm34.84-2.91-1.83-12.72c7-1,14.82-2.17,24-3.55l1.9,12.72C294.08,534.49,286.42,535.62,279.33,536.64Zm-74.94-2a121.55,121.55,0,0,1-24-9l5.82-11.46a108.79,108.79,0,0,0,21.44,8.08Zm123.11-5.19-1.93-12.71,2.41-.37,21.64-3.27,1.91,12.71-21.62,3.27Zm48.08-7.23-1.87-12.72c8.71-1.28,16.6-2.41,24.12-3.47l1.78,12.73C392.13,519.81,384.26,520.94,375.58,522.22Zm48.07-6.71L422,502.76c8.57-1.11,16.72-2.11,24.24-3l1.46,12.77C440.25,513.41,432.15,514.4,423.65,515.51Zm48.09-5.41-1.14-12.81c9-.8,17.26-1.38,24.54-1.72l.6,12.85C488.63,508.74,480.56,509.31,471.74,510.1Z" transform="translate(-0.02 -8.89)" fill="#68e1fd"/><path d="M530.78,509.44a93.71,93.71,0,0,0-11.47-1.18l.64-12.84a106.28,106.28,0,0,1,13.1,1.37Z" transform="translate(-0.02 -8.89)" fill="#68e1fd"/><path d="M610.36,216.86a9.36,9.36,0,0,1,2.5-5.8c4.27-4.84,11.49-5.71,17.92-5.19s12.93,2.1,19.27.87c1.12-.21,2.61-.34,3.07.7.68,1.54-1.82,2.4-2.82,3.75l3.58.4a6.18,6.18,0,0,1-2.52,3.77l1.63.73-2.86,5,1.43,1.09c-3.41,1-5.38,4.5-6.69,7.8s-2.49,6.93-5.35,9a13,13,0,0,0-1.95-5,3.45,3.45,0,1,0-4.53-4.41c-2.09-3.58-5-6.86-8.75-8.57a12.71,12.71,0,0,0-9.08-.51C612,221.57,610.22,221.14,610.36,216.86Z" transform="translate(-0.02 -8.89)" fill="#3f3d56"/></svg>