<svg id="Layer_1" data-name="Layer 1" xmlns="http://www.w3.org/2000/svg" xmlns:xlink="http://www.w3.org/1999/xlink" viewBox="0 0 393.18 437.13"><defs><linearGradient id="linear-gradient" x1="121" y1="326.95" x2="183.29" y2="326.95" gradientUnits="userSpaceOnUse"><stop offset="0" stop-opacity="0"/><stop offset="0.91" stop-opacity="0.8"/><stop offset="1"/></linearGradient><linearGradient id="linear-gradient-2" x1="121" y1="334.06" x2="163.34" y2="334.06" xlink:href="#linear-gradient"/><linearGradient id="linear-gradient-3" x1="204.11" y1="340.87" x2="170.7" y2="337.49" xlink:href="#linear-gradient"/><linearGradient id="linear-gradient-4" x1="239.21" y1="318.57" x2="170.88" y2="343.72" xlink:href="#linear-gradient"/><linearGradient id="linear-gradient-5" x1="201.12" y1="283.9" x2="183.29" y2="292.54" gradientUnits="userSpaceOnUse"><stop offset="0" stop-color="#ecc4d7"/><stop offset="0.42" stop-color="#efd4d1"/><stop offset="1" stop-color="#f2eac9"/></linearGradient><linearGradient id="linear-gradient-6" x1="197.94" y1="262.38" x2="205.45" y2="281.34" xlink:href="#linear-gradient-5"/><linearGradient id="linear-gradient-7" x1="207.63" y1="250.46" x2="181.54" y2="270.35" xlink:href="#linear-gradient"/><linearGradient id="linear-gradient-8" x1="244.21" y1="348.51" x2="226.75" y2="372.72" xlink:href="#linear-gradient"/><linearGradient id="linear-gradient-9" x1="217.23" y1="369.8" x2="181.19" y2="426.11" xlink:href="#linear-gradient"/><linearGradient id="linear-gradient-10" x1="177.06" y1="335.22" x2="142.14" y2="328.84" xlink:href="#linear-gradient"/><linearGradient id="linear-gradient-11" x1="178.43" y1="336.53" x2="198.68" y2="336.53" xlink:href="#linear-gradient-5"/><linearGradient id="linear-gradient-12" x1="243.71" y1="311.29" x2="262.84" y2="311.29" xlink:href="#linear-gradient-5"/><linearGradient id="linear-gradient-13" x1="221.83" y1="420.33" x2="237.7" y2="420.33" xlink:href="#linear-gradient-5"/><linearGradient id="linear-gradient-14" x1="250.91" y1="395.38" x2="267.7" y2="395.38" xlink:href="#linear-gradient-5"/><linearGradient id="linear-gradient-15" x1="269.21" y1="399.38" x2="272.59" y2="412.89" xlink:href="#linear-gradient"/><linearGradient id="linear-gradient-16" x1="239.38" y1="425.58" x2="240.22" y2="438.11" xlink:href="#linear-gradient"/><linearGradient id="linear-gradient-17" x1="255.31" y1="399.31" x2="267.38" y2="399.31" xlink:href="#linear-gradient"/><linearGradient id="linear-gradient-18" x1="282.97" y1="281.13" x2="315.63" y2="-36.47" xlink:href="#linear-gradient"/><linearGradient id="linear-gradient-19" x1="217.78" y1="274.43" x2="250.45" y2="-43.17" xlink:href="#linear-gradient"/><linearGradient id="linear-gradient-20" x1="75.79" y1="260.08" x2="108.45" y2="-57.52" xlink:href="#linear-gradient"/><linearGradient id="linear-gradient-21" x1="131.36" y1="265.54" x2="164.02" y2="-52.06" xlink:href="#linear-gradient"/><linearGradient id="linear-gradient-22" x1="182.75" y1="270.83" x2="215.41" y2="-46.77" xlink:href="#linear-gradient"/><linearGradient id="linear-gradient-23" x1="259.51" y1="278.97" x2="292.17" y2="-38.63" xlink:href="#linear-gradient"/><linearGradient id="linear-gradient-24" x1="215.57" y1="0.28" x2="124.35" y2="419.25" xlink:href="#linear-gradient"/><linearGradient id="linear-gradient-25" x1="185.06" y1="273.69" x2="194.25" y2="272.84" xlink:href="#linear-gradient"/><linearGradient id="linear-gradient-26" x1="205.62" y1="268.84" x2="211.34" y2="287.61" xlink:href="#linear-gradient"/><linearGradient id="linear-gradient-27" x1="207.57" y1="254.67" x2="209.26" y2="275.93" xlink:href="#linear-gradient"/><linearGradient id="linear-gradient-28" x1="180.24" y1="296.04" x2="200.8" y2="296.04" xlink:href="#linear-gradient"/><linearGradient id="linear-gradient-29" x1="89.07" y1="69.05" x2="67.39" y2="335.4" xlink:href="#linear-gradient"/><linearGradient id="linear-gradient-30" x1="134.89" y1="33.87" x2="105.61" y2="393.62" xlink:href="#linear-gradient"/><linearGradient id="linear-gradient-31" x1="187.97" y1="14.1" x2="157.33" y2="390.5" xlink:href="#linear-gradient"/><linearGradient id="linear-gradient-32" x1="256.1" y1="32.26" x2="197.91" y2="139.25" xlink:href="#linear-gradient"/><linearGradient id="linear-gradient-33" x1="320.21" y1="22.25" x2="249.26" y2="238.49" xlink:href="#linear-gradient"/></defs><title>69. Parachute</title><path d="M56.53,164c-1.92,12.58-1.38,25.83-6.54,37.46-4,9-11,16.19-16.71,24.23A90,90,0,0,0,55.84,351.86c5.55,3.81,11.68,7.15,15.64,12.59,4.5,6.18,5.53,14.14,8.15,21.32,6.08,16.62,21.21,29,38.14,34.21s35.38,3.72,52.28-1.53c10.1-3.14,19.9-7.61,30.4-8.92,11.69-1.45,23.46,1.14,35.12,2.87,19.13,2.85,39,3.38,57.53-2.07s35.78-17.5,44.32-34.85c19.84-40.33-11.6-93.31,11.1-132.09,4.92-8.41,12-15.3,17.62-23.27A76.84,76.84,0,0,0,380,175.51c-.12-11.12-2.91-22.62-10.12-31.09-3.35-3.93-7.54-7.11-10.66-11.23-5.27-7-7-15.9-9.14-24.37-4.8-18.64-13.46-37.48-29.51-48.11-15-9.91-33.89-11.16-51.84-11.36-15.35-.16-30.84.23-45.78,3.76C193.49,60.07,168,78.67,138,83.66A99.34,99.34,0,0,0,74.2,122.34,94.33,94.33,0,0,0,56.53,164Z" transform="translate(-2.42 0)" fill="#68e1fd" opacity="0.27"/><path d="M369.39,77.86l-154,235-.91-3.21,148-228.41S365.36,76.17,369.39,77.86Z" transform="translate(-2.42 0)" fill="#68e1fd"/><path d="M181.07,284.77s-10.57-6.38-22.38-2.06-26.61,14.47-26.61,14.47.61.54,0,11.05-18.05,45.93-7.92,54.64S151,372.69,151,372.69,193.31,302.6,181.07,284.77Z" transform="translate(-2.42 0)" fill="#68e1fd"/><path d="M151,372.69s-1.85-.12-4.69-.61c-5.71-1-15.42-3.4-22.19-9.21-8.38-7.2,2.1-32.67,6.32-47.21a36.92,36.92,0,0,0,1.6-7.43c.61-10.51,0-11.05,0-11.05s14.79-10.16,26.61-14.47,22.38,2.06,22.38,2.06C193.31,302.6,151,372.69,151,372.69Z" transform="translate(-2.42 0)" fill="url(#linear-gradient)"/><path d="M163.34,299.51S152,312.46,150.06,339.2c-1.92,26.08-3.62,32.57-3.71,32.88-5.71-1-15.42-3.4-22.19-9.21-8.38-7.2,2.1-32.67,6.32-47.21a7.62,7.62,0,0,0,4.05-3.77c3.3-6.78,1.88-16.07,7.51-15.85S163.34,299.51,163.34,299.51Z" transform="translate(-2.42 0)" fill="url(#linear-gradient-2)"/><path d="M182.76,287.55S159.37,300.94,159.37,316s-8.66,12.3-9.75,30-.09,36.92,12.84,41.5,32.91-15.91,41.9-20.23c5.09-2.45-4.93-17.73,4.52-30.85,7.78-10.82,4.74-17.55,5.39-18.24,1.51-1.59,4.08-17.95-9.3-22.17A186,186,0,0,1,182.76,287.55Z" transform="translate(-2.42 0)" fill="#68e1fd"/><path d="M182.76,287.55a75,75,0,0,0-7.26,4.92c-6.86,5.23-16.13,14-16.13,23.52,0,15.05-8.66,12.3-9.75,30s-.09,36.92,12.84,41.5,32.91-15.91,41.9-20.23c5.09-2.45-4.93-17.73,4.52-30.85,7.78-10.82,4.74-17.55,5.39-18.24,1.51-1.59,4.08-17.95-9.3-22.17A186,186,0,0,1,182.76,287.55Z" transform="translate(-2.42 0)" fill="url(#linear-gradient-3)"/><path d="M214.27,304.36,224.09,322a4.66,4.66,0,0,0,7.52.86l11.07-12.21,11.24,15.5s-15.26,18.23-25.12,19.24-19.92-9-19.92-9Z" transform="translate(-2.42 0)" fill="#68e1fd"/><path d="M214.27,304.36,224.09,322a4.66,4.66,0,0,0,7.52.86l11.07-12.21,11.24,15.5s-15.26,18.23-25.12,19.24-19.92-9-19.92-9Z" transform="translate(-2.42 0)" fill="url(#linear-gradient-4)"/><path d="M266.92,91.86,182.19,291.2l1.92,1.69,85.4-199.72S272.84,89.88,266.92,91.86Z" transform="translate(-2.42 0)" fill="#68e1fd"/><path d="M200.36,294.09l-.72,6.31s-6.33,4.84-10.37-1.13-7.08-8.07-7.08-8.07l2-15.07Z" transform="translate(-2.42 0)" fill="url(#linear-gradient-5)"/><path d="M340.42,81.69s-12.29,20.81-55.19,8.59c0,0-5.12,12.74-55.14-3.26,0,0-18.2,30.69-60.54,21,0,0-17.47,28-37.85,24.84,0,0-7.68,23.22-46,20.51L3,132.83a41.67,41.67,0,0,1-.45-11.28c.87-10.36,5.52-25.66,23.62-36.26,0,0,1.68-30.19,42.71-32.58,0,0,9.38-29,50.67-22.28,0,0,20-26.17,59.22-16.89,0,0,46-27,76.91-4.73,0,0,34.46-18.23,66.33-.67,0,0,58.77,40.5,64.41,56.71a0,0,0,0,1,0,0C392.08,81.08,360.22,82.48,340.42,81.69Z" transform="translate(-2.42 0)" fill="#68e1fd"/><polygon points="3.95 128.85 149.58 331.27 153.87 330.63 10.34 132.35 3.95 128.85" fill="#68e1fd"/><path d="M102.42,147.29,162.6,324.64l4-2.52L107.12,147.29S104.48,144.13,102.42,147.29Z" transform="translate(-2.42 0)" fill="#68e1fd"/><path d="M218.61,266.1S221.73,300.2,205,296s-20.78-19.38-22.15-24.55S205.44,232.65,218.61,266.1Z" transform="translate(-2.42 0)" fill="url(#linear-gradient-6)"/><path d="M182.82,271.46s3.22-1.65,7.79-3.65c7.66-3.35,19.1-7.68,25.58-6.91,10.36,1.23-.79-8.62-3.88-9.44,0,0-9.69-10.52-17.54-6.8S174.88,246.13,182.82,271.46Z" transform="translate(-2.42 0)" fill="#68e1fd"/><path d="M182.82,271.46s3.22-1.65,7.79-3.65c7.66-3.35,19.1-7.68,25.58-6.91,10.36,1.23-.79-8.62-3.88-9.44,0,0-9.69-10.52-17.54-6.8S174.88,246.13,182.82,271.46Z" transform="translate(-2.42 0)" fill="url(#linear-gradient-7)"/><polygon points="188.67 279.46 188.19 267.81 185.03 269.23 188.67 279.46"/><path d="M163.34,387.93s-.68-7.69,17.33-13.71,31.14-20.46,31.14-20.46,27.52-19.22,39.42-10,16.69,46.61,16.69,46.61-11.3,3.87-17,4.55-12.58-26.09-12.58-26.09l-26.43,19.27S185.13,410.12,163.34,387.93Z" transform="translate(-2.42 0)" fill="#68e1fd"/><path d="M163.34,387.93s-.68-7.69,17.33-13.71,31.14-20.46,31.14-20.46,27.52-19.22,39.42-10,16.69,46.61,16.69,46.61-11.3,3.87-17,4.55-12.58-26.09-12.58-26.09l-26.43,19.27S185.13,410.12,163.34,387.93Z" transform="translate(-2.42 0)" fill="url(#linear-gradient-8)"/><path d="M160.54,392.14a18.42,18.42,0,0,0,16,8.66c8.87-.11,22.18-5.08,29-6.34,7.18-1.31,7,11.61,8.66,19.85.68,3.43,8,5.92,11.38,5.11L238,414.54s-2.42-46.51-12.27-50.19-45.94,7.8-45.94,7.8S151.27,377,160.54,392.14Z" transform="translate(-2.42 0)" fill="#68e1fd"/><path d="M160.54,392.14a18.42,18.42,0,0,0,16,8.66c8.87-.11,22.18-5.08,29-6.34,7.18-1.31,7,11.61,8.66,19.85.68,3.43,8,5.92,11.38,5.11L238,414.54s-2.42-46.51-12.27-50.19-45.94,7.8-45.94,7.8S151.27,377,160.54,392.14Z" transform="translate(-2.42 0)" fill="url(#linear-gradient-9)"/><path d="M163.59,304.36s-9.2,12.18-11.58,26.91c-1,6.38.08,13.44,1.68,19.39,2.62,9.8,7.57,14.68,17,11,4.07-1.6,10.37-3.82,15.54-8.07l-8.83-19.46-6.71,4.44s6.45-18.47,3.46-28.42S163.59,304.36,163.59,304.36Z" transform="translate(-2.42 0)" fill="#68e1fd"/><path d="M163.59,304.36s-9.2,12.18-11.58,26.91c-1,6.38.08,13.44,1.68,19.39,2.62,9.8,7.57,14.68,17,11,4.07-1.6,10.37-3.82,15.54-8.07l-8.83-19.46-6.71,4.44s6.45-18.47,3.46-28.42S163.59,304.36,163.59,304.36Z" transform="translate(-2.42 0)" fill="url(#linear-gradient-10)"/><path d="M178.43,336.33a22.76,22.76,0,0,0,4.47-5c2-3.13,4.56-8.68,8.61-6.66a10.47,10.47,0,0,1,5.24,6,33.79,33.79,0,0,1,1.93,5.79c0,4-3.68,7.84-6.93,8.55l-.41.09-7.23,3.8Z" transform="translate(-2.42 0)" fill="url(#linear-gradient-11)"/><path d="M243.71,312.09s4.45-5.56,5.24-7.73,2.07-5.88,5-6,6.1,2.49,7.63,6c3,6.93.12,12.47-2.7,13.82s-7.2,6-7.2,6Z" transform="translate(-2.42 0)" fill="url(#linear-gradient-12)"/><path d="M221.83,415.91l3.43,11.5s10-.25,12.44-2.68l-1.11-11.48Z" transform="translate(-2.42 0)" fill="url(#linear-gradient-13)"/><path d="M223.2,428a2,2,0,0,1,2-2.57,6.77,6.77,0,0,1,2.07.24c1.69.55,8.52-.56,10.34-2.41s15.9,2.55,15.9,2.55A6.2,6.2,0,0,1,256,429.4c.76,2.61-27.58,10.46-31.74,6.75Z" transform="translate(-2.42 0)" fill="#68e1fd"/><path d="M250.91,392.06l4.74,11s9.9-1.42,12-4.11l-2.44-11.28Z" transform="translate(-2.42 0)" fill="url(#linear-gradient-14)"/><path d="M253.67,403.88a2,2,0,0,1,1.64-2.79,6.9,6.9,0,0,1,2.08,0c1.75.35,8.4-1.54,10-3.6s16.09.68,16.09.68a6.18,6.18,0,0,1,2.95,3.29c1.06,2.51-26.16,13.62-30.73,10.41Z" transform="translate(-2.42 0)" fill="#68e1fd"/><path d="M253.67,403.88a2,2,0,0,1,1.64-2.79,6.9,6.9,0,0,1,2.08,0c1.75.35,8.4-1.54,10-3.6s16.09.68,16.09.68a6.18,6.18,0,0,1,2.95,3.29c1.06,2.51-26.16,13.62-30.73,10.41Z" transform="translate(-2.42 0)" fill="url(#linear-gradient-15)"/><path d="M223.2,428a2,2,0,0,1,2-2.57,6.77,6.77,0,0,1,2.07.24c1.69.55,8.52-.56,10.34-2.41s15.9,2.55,15.9,2.55A6.2,6.2,0,0,1,256,429.4c.76,2.61-27.58,10.46-31.74,6.75Z" transform="translate(-2.42 0)" fill="url(#linear-gradient-16)"/><path d="M255.31,401.09a6.9,6.9,0,0,1,2.08,0c1.75.35,8.4-1.54,10-3.6" transform="translate(-2.42 0)" fill="url(#linear-gradient-17)"/><path d="M220.51,207.77,95.3,251.72l49.29,5.66,133.61-45.3Zm-76.9,46.72-39.19-4.23,115-39.86,51.74,2.7Z" transform="translate(-2.42 0)" fill="#68e1fd"/><polygon points="141.18 254.49 184.25 325.79 186.13 324.2 144.54 254.49 141.18 254.49" fill="#68e1fd"/><polygon points="271.67 213.48 247.91 300.48 251.86 298.37 275.78 212.08 271.67 213.48" fill="#68e1fd"/><path d="M369.39,77.86l-154,235-.91-3.21,148-228.41S365.36,76.17,369.39,77.86Z" transform="translate(-2.42 0)" fill="url(#linear-gradient-18)"/><path d="M266.92,91.86,182.19,291.2l1.92,1.69,85.4-199.72S272.84,89.88,266.92,91.86Z" transform="translate(-2.42 0)" fill="url(#linear-gradient-19)"/><polygon points="3.95 128.85 149.58 331.27 153.87 330.63 10.34 132.35 3.95 128.85" fill="url(#linear-gradient-20)"/><path d="M102.42,147.29,162.6,324.64l4-2.52L107.12,147.29S104.48,144.13,102.42,147.29Z" transform="translate(-2.42 0)" fill="url(#linear-gradient-21)"/><path d="M220.51,207.77,95.3,251.72l49.29,5.66,133.61-45.3Zm-76.9,46.72-39.19-4.23,115-39.86,51.74,2.7Z" transform="translate(-2.42 0)" fill="url(#linear-gradient-22)"/><polygon points="271.67 213.48 247.91 300.48 251.86 298.37 275.78 212.08 271.67 213.48" fill="url(#linear-gradient-23)"/><path d="M255.34,320.68s-.2,12.94,9.25,22.33,14.71,9.92,14.71,9.92l5.1-2.85s-7.91,1.59-17.48-8.58-8.07-23.32-8.07-23.32Z" transform="translate(-2.42 0)" fill="#68e1fd"/><path d="M194.4,343.77s9.63,28.41-.55,40l4.83-.86s3.72-7.27,2.62-19.13a84,84,0,0,0-5.07-21.58Z" transform="translate(-2.42 0)" fill="#68e1fd"/><path d="M340.42,81.69s-12.29,20.81-55.19,8.59c0,0-5.12,12.74-55.14-3.26,0,0-18.2,30.69-60.54,21,0,0-17.47,28-37.85,24.84,0,0-7.68,23.22-46,20.51L3,132.83a41.67,41.67,0,0,1-.45-11.28c19.75,7.25,74.52,26,92.26,17.75,0,0,4.27-25.55,28.3-29.65,0,0,18.75-21.52,35.52-17.79,0,0,36.85-29.87,61.65-21.76,0,0,29.66-10.47,43.95-5.07s16.65,8.52,16.65,8.52,30.05-18,46.26-10.39l11.14,5.24s19.43-19.22,32.42-13.84c12.58,5.22,15.55,10,15.72,10.29a0,0,0,0,1,0,0C392.08,81.08,360.22,82.48,340.42,81.69Z" transform="translate(-2.42 0)" fill="#68e1fd"/><path d="M340.42,81.69s-12.29,20.81-55.19,8.59c0,0-5.12,12.74-55.14-3.26,0,0-18.2,30.69-60.54,21,0,0-17.47,28-37.85,24.84,0,0-7.68,23.22-46,20.51L3,132.83a41.67,41.67,0,0,1-.45-11.28c19.75,7.25,74.52,26,92.26,17.75,0,0,4.27-25.55,28.3-29.65,0,0,18.75-21.52,35.52-17.79,0,0,36.85-29.87,61.65-21.76,0,0,29.66-10.47,43.95-5.07s16.65,8.52,16.65,8.52,30.05-18,46.26-10.39l11.14,5.24s19.43-19.22,32.42-13.84c12.58,5.22,15.55,10,15.72,10.29a0,0,0,0,1,0,0C392.08,81.08,360.22,82.48,340.42,81.69Z" transform="translate(-2.42 0)" fill="url(#linear-gradient-24)"/><polygon points="178.65 270.23 190.02 270.23 190.87 277.2 179.89 277.2 178.65 270.23" fill="#68e1fd"/><polygon points="178.65 270.23 190.02 270.23 190.87 277.2 179.89 277.2 178.65 270.23" fill="url(#linear-gradient-25)"/><path d="M200.11,265.5s-8.12,1.06-7.67,4.73-.23,12.12,4.95,10.79,9.73-8.9,14.92-6.3,4.89,6.48,6.92,3.42,2-12.3-.39-13.09S200.11,265.5,200.11,265.5Z" transform="translate(-2.42 0)" fill="#68e1fd"/><path d="M200.11,265.5s-8.12,1.06-7.67,4.73-.23,12.12,4.95,10.79,9.73-8.9,14.92-6.3,4.89,6.48,6.92,3.42,2-12.3-.39-13.09S200.11,265.5,200.11,265.5Z" transform="translate(-2.42 0)" fill="url(#linear-gradient-26)"/><path d="M201.56,266.1a6.54,6.54,0,0,0-3.56,1c-1.28,1.06-1.07,9.67.24,11s8.21-3.87,10.63-4.43a8.68,8.68,0,0,1,7.88,1.58c2.48,2.14,3.47-.57,3.47-.57s1.28-7.94-.78-9.26S201.56,266.1,201.56,266.1Z" transform="translate(-2.42 0)" fill="#68e1fd"/><path d="M201.56,266.1a6.54,6.54,0,0,0-3.56,1c-1.28,1.06-1.07,9.67.24,11s8.21-3.87,10.63-4.43a8.68,8.68,0,0,1,7.88,1.58c2.48,2.14,3.47-.57,3.47-.57s1.28-7.94-.78-9.26S201.56,266.1,201.56,266.1Z" transform="translate(-2.42 0)" fill="url(#linear-gradient-27)"/><path d="M182.76,287.55s6.91,6.23,8.74,9.42,4.62,4.69,5.64,4a19.52,19.52,0,0,0,2.73-2.63l.93,2.58s-2.17,4.51-6.15,3.4-14.41-13.86-14.41-13.86Z" transform="translate(-2.42 0)" fill="#68e1fd"/><path d="M182.76,287.55s6.91,6.23,8.74,9.42,4.62,4.69,5.64,4a19.52,19.52,0,0,0,2.73-2.63l.93,2.58s-2.17,4.51-6.15,3.4-14.41-13.86-14.41-13.86Z" transform="translate(-2.42 0)" fill="url(#linear-gradient-28)"/><path d="M34.44,86l87.28,20.83s16.8-14.39,20.46-15.59S45,68.91,45,68.91,28.62,71.54,34.44,86Z" transform="translate(-2.42 0)" fill="url(#linear-gradient-29)"/><path d="M72.35,51.73l90.1,31.82s27-14.85,30.69-16S91.36,35,91.36,35,76.16,36.53,72.35,51.73Z" transform="translate(-2.42 0)" fill="url(#linear-gradient-30)"/><path d="M125,29.77l95.44,36.6s17.74-7.11,25.34-6.21c3.83.45-94.22-44.16-94.22-44.16S132.8,17.1,125,29.77Z" transform="translate(-2.42 0)" fill="url(#linear-gradient-31)"/><path d="M185.12,13.72,281,68.91s13.23-12.46,41.39-9.65c3.83.39-107.74-56.77-107.74-56.77S192.91,1.05,185.12,13.72Z" transform="translate(-2.42 0)" fill="url(#linear-gradient-32)"/><path d="M264.27,13,338.32,68.4s2.91-19.48,31.07-16.67c3.83.39-75.6-49.93-75.6-49.93S272.06.36,264.27,13Z" transform="translate(-2.42 0)" fill="url(#linear-gradient-33)"/><path d="M293,236a13,13,0,0,0,4.57,10.78,21.92,21.92,0,0,0,11,4.82A33.9,33.9,0,0,0,328,249.12c2-.91,4.16-2.05,6.32-1.58,1.61.35,2.88,1.53,4.21,2.51,7.47,5.46,17.64,4.64,26.86,3.8,5.52-.5,11.13-.94,16.37-2.76s10.17-5.26,12.54-10.28,1.53-11.73-2.83-15.16c-2.15-1.7-5.11-2.69-6.21-5.21-.74-1.71-.39-3.7-.78-5.53-1.09-5-7-7-12-8-3.47-.69-7.2-1.28-10.42.15-4.6,2.05-7,7.73-11.91,9-5.36,1.45-10.31-3.1-15.62-4.71a15.55,15.55,0,0,0-16.26,5.1c-1.17,1.47-2.27,3.31-4.12,3.65-2.45.45-4.43-1.55-6.85-.38-1.33.65-3,3.33-4.41,4.34C298.5,227.27,293.69,230.07,293,236Z" transform="translate(-2.42 0)" fill="#fff"/><path d="M134.57,163.81a9.75,9.75,0,0,0,3.43,8.08,16.4,16.4,0,0,0,8.24,3.6,25.28,25.28,0,0,0,14.51-1.88c1.51-.68,3.12-1.54,4.74-1.19a9.11,9.11,0,0,1,3.15,1.88c5.59,4.09,13.2,3.48,20.1,2.85,4.14-.38,8.34-.7,12.26-2.07s7.62-3.94,9.39-7.69,1.15-8.78-2.12-11.36c-1.61-1.26-3.83-2-4.64-3.89-.56-1.29-.3-2.77-.59-4.14-.82-3.75-5.25-5.27-9-6-2.59-.52-5.38-1-7.8.11-3.44,1.53-5.27,5.78-8.91,6.76-4,1.08-7.72-2.32-11.7-3.53a11.65,11.65,0,0,0-12.17,3.82c-.87,1.1-1.7,2.48-3.08,2.73-1.83.34-3.32-1.16-5.13-.28-1,.49-2.28,2.49-3.31,3.25C138.66,157.25,135.06,159.35,134.57,163.81Z" transform="translate(-2.42 0)" fill="#fff"/><path d="M4.72,298.62A13,13,0,0,0,9.29,309.4a22,22,0,0,0,11,4.82,33.9,33.9,0,0,0,19.39-2.52c2-.91,4.16-2.05,6.32-1.58,1.61.35,2.88,1.54,4.21,2.51,7.47,5.46,17.64,4.64,26.86,3.8,5.53-.5,11.13-.93,16.37-2.76s10.18-5.26,12.54-10.28,1.54-11.73-2.83-15.16c-2.15-1.7-5.11-2.69-6.2-5.2-.75-1.72-.39-3.71-.79-5.54-1.09-5-7-7-12-8-3.46-.69-7.19-1.28-10.42.16-4.6,2-7,7.72-11.91,9-5.36,1.44-10.3-3.11-15.62-4.72A15.55,15.55,0,0,0,29.92,279c-1.16,1.48-2.27,3.31-4.12,3.65-2.44.46-4.43-1.55-6.85-.37-1.33.64-3,3.32-4.41,4.33C10.18,289.85,5.37,292.65,4.72,298.62Z" transform="translate(-2.42 0)" fill="#fff"/></svg>