<svg id="Layer_1" data-name="Layer 1" xmlns="http://www.w3.org/2000/svg" xmlns:xlink="http://www.w3.org/1999/xlink" width="581.04" height="466.59" viewBox="0 0 581.04 466.59">
  <defs>
    <linearGradient id="linear-gradient" x1="281.42" y1="247.07" x2="290.8" y2="610.46" gradientUnits="userSpaceOnUse">
      <stop offset="0.01"/>
      <stop offset="0.13" stop-opacity="0.69"/>
      <stop offset="1" stop-opacity="0"/>
    </linearGradient>
    <linearGradient id="linear-gradient-2" x1="341.82" y1="343.05" x2="350.61" y2="196.35" gradientUnits="userSpaceOnUse">
      <stop offset="0" stop-opacity="0"/>
      <stop offset="0.99"/>
    </linearGradient>
    <linearGradient id="linear-gradient-3" x1="364.34" y1="261.02" x2="414.95" y2="261.02" gradientUnits="userSpaceOnUse">
      <stop offset="0" stop-color="#ecc4d7"/>
      <stop offset="0.42" stop-color="#efd4d1"/>
      <stop offset="1" stop-color="#f2eac9"/>
    </linearGradient>
    <linearGradient id="linear-gradient-4" x1="430.65" y1="262.94" x2="453.89" y2="281.38" xlink:href="#linear-gradient-2"/>
    <linearGradient id="linear-gradient-5" x1="448.46" y1="240.16" x2="465.9" y2="235.56" gradientUnits="userSpaceOnUse">
      <stop offset="0.02" stop-color="#fff" stop-opacity="0"/>
      <stop offset="0.58" stop-color="#fff" stop-opacity="0.39"/>
      <stop offset="0.68" stop-color="#fff" stop-opacity="0.68"/>
      <stop offset="1" stop-color="#fff"/>
    </linearGradient>
    <linearGradient id="linear-gradient-6" x1="448.08" y1="283.02" x2="561.69" y2="283.02" xlink:href="#linear-gradient-2"/>
    <linearGradient id="linear-gradient-7" x1="436.64" y1="219.12" x2="441.93" y2="217.48" xlink:href="#linear-gradient-2"/>
    <linearGradient id="linear-gradient-8" x1="439.99" y1="232.43" x2="458.18" y2="232.43" xlink:href="#linear-gradient-3"/>
    <linearGradient id="linear-gradient-9" x1="451.45" y1="230.63" x2="462.82" y2="209.2" xlink:href="#linear-gradient-3"/>
    <linearGradient id="linear-gradient-10" x1="464.43" y1="193.39" x2="440.37" y2="217.92" xlink:href="#linear-gradient-3"/>
    <linearGradient id="linear-gradient-11" x1="453.7" y1="196.03" x2="459.08" y2="219.46" xlink:href="#linear-gradient-2"/>
    <linearGradient id="linear-gradient-12" x1="471.05" y1="293.18" x2="499.68" y2="293.18" xlink:href="#linear-gradient-3"/>
    <linearGradient id="linear-gradient-13" x1="475.53" y1="475.32" x2="499.16" y2="475.32" xlink:href="#linear-gradient-2"/>
    <linearGradient id="linear-gradient-14" x1="411.9" y1="472.31" x2="435.53" y2="472.31" xlink:href="#linear-gradient-2"/>
    <linearGradient id="linear-gradient-15" x1="355.96" y1="62.73" x2="318.94" y2="125.2" xlink:href="#linear-gradient-2"/>
    <linearGradient id="linear-gradient-16" x1="443.26" y1="189.76" x2="446.47" y2="198.87" xlink:href="#linear-gradient-2"/>
    <linearGradient id="linear-gradient-17" x1="445.5" y1="256.41" x2="428.98" y2="245.73" xlink:href="#linear-gradient-5"/>
    <linearGradient id="linear-gradient-18" x1="189.05" y1="468.44" x2="204.76" y2="468.44" xlink:href="#linear-gradient-3"/>
    <linearGradient id="linear-gradient-19" x1="132.38" y1="469.73" x2="148.51" y2="469.73" xlink:href="#linear-gradient-3"/>
    <linearGradient id="linear-gradient-20" x1="150.74" y1="267.54" x2="49.39" y2="310.76" xlink:href="#linear-gradient-2"/>
    <linearGradient id="linear-gradient-21" x1="147.82" y1="286.53" x2="168.73" y2="286.53" xlink:href="#linear-gradient-3"/>
    <linearGradient id="linear-gradient-22" x1="145.78" y1="233.32" x2="164.5" y2="233.32" xlink:href="#linear-gradient-3"/>
    <linearGradient id="linear-gradient-23" x1="141.56" y1="208.92" x2="174.27" y2="208.92" xlink:href="#linear-gradient-3"/>
    <linearGradient id="linear-gradient-24" x1="200.44" y1="349.74" x2="212.1" y2="349.74" xlink:href="#linear-gradient-3"/>
    <linearGradient id="linear-gradient-25" x1="184.4" y1="223.03" x2="129.56" y2="213.19" xlink:href="#linear-gradient-2"/>
    <linearGradient id="linear-gradient-26" x1="117.64" y1="478.44" x2="151.74" y2="478.44" xlink:href="#linear-gradient-2"/>
    <linearGradient id="linear-gradient-27" x1="185.72" y1="477.25" x2="219.82" y2="477.25" xlink:href="#linear-gradient-2"/>
  </defs>
  <title>Team Presentation</title>
  <path d="M527,234.49c9.27,17.83,21.66,33.86,31.47,51.39a205,205,0,0,1,22.88,134c-4.9,28.23-17.56,57.39-42.57,71.38-14,7.83-30.31,10.08-46.24,11.85a1154.78,1154.78,0,0,1-206.78,4.38c-39.28-2.7-79.25-7.36-117.62,1.43-29.29,6.71-57,21.15-87,22.75-12.71.67-25.72-1.07-37.25-6.46C9,508.9-3.26,462.91,6.42,425.66S42.18,358,67.47,329q21.39-24.56,42.79-49.09c8.69-10,17.53-20.16,22.7-32.32,6.58-15.45,6.72-32.73,8.85-49.38,6.59-51.48,36.56-102.37,84.5-122.26,35.35-14.66,75.25-11.2,113.34-7.48,47.39,4.62,97.6,10.7,134.78,43.34,16.05,14.1,31.44,24.19,33.58,46C510.67,185,514.14,209.77,527,234.49Z" transform="translate(-3.23 -65.2)" fill="#68e1fd" opacity="0.18" style="isolation: isolate"/>
  <path d="M437.67,322.23s-4.43,26.81-3.94,40.84c.7,19.78-7.78,103.16-7.78,103.16l7.58.74s18.32-55.69,16.86-72.67,6.6-41.65,6.6-41.65,16.49,58.72,19.69,63.64S486,470.66,486,470.66l13.42-1s-4.19-49.33-12.94-65.07c0,0,4.19-79.82-9.81-90.52S437.67,322.23,437.67,322.23Z" transform="translate(-3.23 -65.2)" fill="#3f3d56"/>
  <path d="M320.5,473.63c-5.6,2.68-12,2.74-18.23,2.86-33,.68-324.64-3-210.4,16.73-1,8.47,122.66,7.31,131.19,7.51q131,3,261.91-3.83c8.07-.42,17.25-1.44,22-8,5.83-8,1-20.13-7.34-25.48s-18.79-5.8-28.69-6.07l-92.62-2.6c-9.81-.27-22.76-2.92-32.31.25C336,458.37,329.86,469,320.5,473.63Z" transform="translate(-3.23 -65.2)" fill="url(#linear-gradient)"/>
  <polygon points="301.17 288.26 287.28 418.76 292.83 418.3 313.2 290.57 322.68 252.16 345.13 253.09 348.6 400.25 355.54 400.25 355.19 252.05 369.77 252.05 387.01 420.15 394.18 419.45 379.83 239.67 327.54 223.94 298.85 251.24 301.17 288.26" fill="#68e1fd"/>
  <polygon points="297.69 288.26 283.81 418.76 289.36 418.3 309.73 290.57 319.21 252.16 341.66 253.09 345.13 400.25 352.07 400.25 351.72 252.05 366.3 252.05 383.54 420.15 390.71 419.45 376.36 239.67 324.07 223.94 295.38 251.24 297.69 288.26" fill="#68e1fd"/>
  <polygon points="297.69 288.26 283.81 418.76 289.36 418.3 309.73 290.57 319.21 252.16 341.66 253.09 345.13 400.25 352.07 400.25 351.72 252.05 366.3 252.05 383.54 420.15 390.71 419.45 376.36 239.67 324.07 223.94 295.38 251.24 297.69 288.26" fill="url(#linear-gradient-2)"/>
  <polygon points="397.88 290.57 277.1 290.57 292.37 89.27 413.15 89.27 397.88 290.57" fill="#cacccc"/>
  <polygon points="394.76 290.57 273.98 290.57 289.25 89.27 410.03 89.27 394.76 290.57" fill="#fff"/>
  <path d="M370.2,278.7a34,34,0,1,1-34-34.68c1.15,0,2.28.07,3.4.18L336.21,278Z" transform="translate(-3.23 -65.2)" fill="#68e1fd" opacity="0.18" style="isolation: isolate"/>
  <path d="M408.4,279l-27.77-17.24A7.27,7.27,0,0,1,376,260.2c-1.94-1.41-4.27-2-6.24-3.37-3.21-2.22-4.3-6.39-5.16-10.19a5.93,5.93,0,0,1-.21-2.21,2,2,0,0,1,1.3-1.66,3.33,3.33,0,0,1,2.44.76c2.74,1.64,5.92,2.35,9,3a.91.91,0,0,0,.59,0c.37-.18.32-.73.13-1.1s-.47-.76-.36-1.17a.88.88,0,0,1,1.05-.51,2.14,2.14,0,0,1,1.05.73c1.48,1.6,2.29,3.73,3.48,5.52a35.49,35.49,0,0,1,2.4,4.57l26.9,15.1S420.26,281.5,408.4,279Z" transform="translate(-3.23 -65.2)" fill="url(#linear-gradient-3)"/>
  <path d="M441.54,236.9,416,269.53l-30.31-16L383,263s29.65,21.87,33.55,21.87c6.24,0,18.1-11,18.1-11Z" transform="translate(-3.23 -65.2)" fill="#68e1fd"/>
  <path d="M441.54,237,416,269.64l-5.55,1.68V281.5s6.6,3.59,10.24,2.2S434.6,274,434.6,274Z" transform="translate(-3.23 -65.2)" fill="url(#linear-gradient-4)"/>
  <path d="M488.63,268.58l-13.56-11.07s-9.18,23-6.26,32.65c1.49,4.93,3.51,11.27,5.14,16.27,1.55,4.8,2.74,8.37,2.74,8.37l-39.81,11s5.69-36.09-4.81-51.83c-3.36-5-9.19-9.48-6.27-15.16s14.79-25,22.34-25.21c0,0,6.52,3.41,9.52-1.84,0,0,8.9,1.9,13.12,3.58s24,15.74,29.23,23S488.63,268.58,488.63,268.58Z" transform="translate(-3.23 -65.2)" fill="#68e1fd"/>
  <path d="M459.13,239.22a11,11,0,0,1-4.22,4.13,30,30,0,0,1-5.5,2.34c3.3-3.85,6.6-7.92,8-12.79.12-.41.26-.87.64-1a1.33,1.33,0,0,1,.74,0c2.22.29,2.9.41,2.27,2.39A30.5,30.5,0,0,1,459.13,239.22Z" transform="translate(-3.23 -65.2)" opacity="0.69" fill="url(#linear-gradient-5)" style="isolation: isolate"/>
  <path d="M468.81,290.16c1.49,4.93,3.51,11.27,5.14,16.27l-5.74,4s-9.26.69-10.18,1.16-.93-8.57,3-10,1.4-18.74,1.4-18.74-1.16-18.51,1.15-23.14,8-5.32,8-5.32l3.51,3.08S465.89,280.54,468.81,290.16Z" transform="translate(-3.23 -65.2)" fill="url(#linear-gradient-6)"/>
  <path d="M436.63,320.61c-1.05,1.93-5.13,9.93-4.07,11.85,1.46,2.62,5,3.38,7.92,2.92,9.29-1.45,14.94-11.33,23.69-14.76,3.25-1.27,7.42-2.13,8.46-5.46a7.92,7.92,0,0,1,.74-2.28c.43-.6,1.16-.95,1.57-1.57a3.63,3.63,0,0,0-1-4.88c-5.16,4-10.33,3.35-16.5,5.38A178.62,178.62,0,0,0,436.63,320.61Z" transform="translate(-3.23 -65.2)" fill="#f2fdff"/>
  <path d="M436.86,210.78c-.48,2.22-.34,4.56-1.07,6.71a10.3,10.3,0,0,1-4,5.09c-.23.16-.5.36-.5.65a.73.73,0,0,0,.09.32,6.24,6.24,0,0,0,5.9,3.55,2.18,2.18,0,0,1,1.08.09,2.58,2.58,0,0,1,.68.6,4.45,4.45,0,0,0,4.39.86,13,13,0,0,0,4-2.35c.29-.21.6-.48.59-.84a1.15,1.15,0,0,0-.27-.62,19.23,19.23,0,0,1-3.62-8.48c-.32-2.59.15-5.31-.76-7.76C441.56,203.71,437.58,207.46,436.86,210.78Z" transform="translate(-3.23 -65.2)" fill="#3f3d56"/>
  <path d="M436.86,210.78c-.48,2.22-.34,4.56-1.07,6.71a10.3,10.3,0,0,1-4,5.09c-.23.16-.5.36-.5.65a.73.73,0,0,0,.09.32,6.24,6.24,0,0,0,5.9,3.55,2.18,2.18,0,0,1,1.08.09,2.58,2.58,0,0,1,.68.6,4.45,4.45,0,0,0,4.39.86,13,13,0,0,0,4-2.35c.29-.21.6-.48.59-.84a1.15,1.15,0,0,0-.27-.62,19.23,19.23,0,0,1-3.62-8.48c-.32-2.59.15-5.31-.76-7.76C441.56,203.71,437.58,207.46,436.86,210.78Z" transform="translate(-3.23 -65.2)" fill="url(#linear-gradient-7)"/>
  <path d="M449.22,227.22c-.46,2.74-.92,5.51-2.39,7.79,0,0-.05.06-.07.1.28-1.11,1.69-6.48,2-7.11A5.62,5.62,0,0,1,449.22,227.22Z" transform="translate(-3.23 -65.2)" fill="none"/>
  <path d="M458.17,219.94c0,.64,0,1.27-.05,1.91-.05,1.33-.08,2.66-.11,4,0,.61,0,1.22-.05,1.83a33.88,33.88,0,0,1-.53,6.12,17.42,17.42,0,0,1-5.09,9.13,35.68,35.68,0,0,1-5.1,3.76,10.27,10.27,0,0,1-3.3,1.59,3.39,3.39,0,0,1-3.36-1c-.9-1.13-.65-2.8-.05-4.12,1.4-3.1,4.36-5.2,6.23-8h0s.05-.06.07-.1c1.47-2.28,1.93-5,2.39-7.79.66-4,1.32-7.87,5-10.14a2.84,2.84,0,0,1,2.9-.3C458.12,217.41,458.2,218.78,458.17,219.94Z" transform="translate(-3.23 -65.2)" fill="url(#linear-gradient-8)"/>
  <path d="M459.1,222.58a6,6,0,0,1-1,3.19.35.35,0,0,1-.05.08,26.73,26.73,0,0,1-4.35,6.34,9.8,9.8,0,0,1-6.94,3.12,1.21,1.21,0,0,1,0-.19h0s.05-.06.07-.1c1.47-2.28,1.93-5,2.39-7.79,1-1.43,2.63-2.29,4.08-3.33s3.07-2.1,4.82-2h.32a.72.72,0,0,1,.45.15A.79.79,0,0,1,459.1,222.58Z" transform="translate(-3.23 -65.2)" fill="url(#linear-gradient-9)"/>
  <path d="M440.8,203.86c-2.2,4.82-1.12,10.44,0,15.62.44,2,.93,4.18,2.29,5.77,2.2,2.56,6.22,2.93,9.31,1.57,4.74-2.08,7.29-7.18,9.22-12,1.62-4,3.09-8.19,3.3-12.52s-1-8.9-4.12-11.92a8.66,8.66,0,0,0-4.23-2.38c-2.65-.55-5.34.52-7.8,1.64-3,1.35-6,2.92-7.88,5.58-2.95,4.16-2.31,9.79-1.56,14.84" transform="translate(-3.23 -65.2)" fill="url(#linear-gradient-10)"/>
  <path d="M447.41,197.77a3.61,3.61,0,0,0-1.39,0,3,3,0,0,0-1.23.9,22.7,22.7,0,0,0-5,9.88,12.41,12.41,0,0,1-2.27,5.39,1,1,0,0,1-.66.44c-.38,0-.69-.27-.93-.56-4-4.89-4.35-11.94-2.51-18a16.78,16.78,0,0,1,1.27-3.14,14.33,14.33,0,0,1,7.13-6.18,22.29,22.29,0,0,1,9.43-1.49c2-3.39,6.48-4.44,10.38-4a18,18,0,0,1,12.4,7A14.85,14.85,0,0,1,476,202c-.64,1.63-1.6,3.13-2.21,4.77a12.66,12.66,0,0,0,1.4,11.42,6.75,6.75,0,0,0,2.81,2.49,3.51,3.51,0,0,0,3.59-.43A9.75,9.75,0,0,1,467.44,226a1.26,1.26,0,0,0-.92-.25,1.53,1.53,0,0,0-.58.47c-1.3,1.36-3.57,1-5.29.27a2.93,2.93,0,0,0-1.53-.41,3,3,0,0,0-1.21.58,11.26,11.26,0,0,1-6.73,1.75c2.56-.48,4.44-2.61,6-4.67,2.54-3.31,3.25-6.47,4.31-10.51s2.28-9.08-.36-12.32a14.57,14.57,0,0,0-6.61-4.58c-1.27-.35-1.89.28-3,.8A8,8,0,0,1,447.41,197.77Z" transform="translate(-3.23 -65.2)" fill="#3f3d56"/>
  <path d="M481.63,220.22A9.76,9.76,0,0,1,467.44,226a1.22,1.22,0,0,0-.92-.26,1.38,1.38,0,0,0-.58.47c-1.31,1.35-3.58,1.05-5.29.27a2.93,2.93,0,0,0-1.53-.41,3.07,3.07,0,0,0-1.21.57,11.18,11.18,0,0,1-6.73,1.76c2.56-.48,4.44-2.61,6-4.67,2.55-3.32,3.27-6.47,4.31-10.51s2.28-9.08-.34-12.32a14.57,14.57,0,0,0-6.62-4.58,2.35,2.35,0,0,0-1.59.08c-.44.17-.86.46-1.42.72a8,8,0,0,1-4.14.61,3.37,3.37,0,0,0-1.38,0,2.88,2.88,0,0,0-1.23.91,27.88,27.88,0,0,0-3.91,5.14,15.86,15.86,0,0,0-1.76,4.25c-.51,2-.25,4.28-1.58,5.87a1,1,0,0,1-.67.44c-.37,0-.68-.27-.92-.56-4-4.89-4.35-11.94-2.5-18a16.81,16.81,0,0,1,1.25-3.15,14.37,14.37,0,0,1,7.14-6.17,22.29,22.29,0,0,1,9.43-1.49c2-3.39,6.48-4.44,10.38-4a18,18,0,0,1,12.4,7A14.89,14.89,0,0,1,476,202c-.64,1.62-1.59,3.12-2.2,4.76a12.63,12.63,0,0,0,1.4,11.42,6.68,6.68,0,0,0,2.81,2.49A3.51,3.51,0,0,0,481.63,220.22Z" transform="translate(-3.23 -65.2)" fill="url(#linear-gradient-11)"/>
  <path d="M499.68,262.76c.12.06-3.21,8.23-3.4,8.71l-10.34,26.47-3.85,9.87c-.29.75-.7,1.53-.91,2.3-1.08,3.93-.38,7.85-2.71,11.53a6.07,6.07,0,0,1-3.27,2.77,3.16,3.16,0,0,1-3.72-1.53c-.51-1.22,0-2.61.52-3.85a38.9,38.9,0,0,0,1.51-4.85,1.3,1.3,0,0,0,0-.65c-.2-.71-1.25-.59-1.88-1a1.69,1.69,0,0,1-.44-2.1,7.22,7.22,0,0,1,1.46-1.81c2.37-2.54,2.86-5.71,3.64-8.94q1.26-5.28,2.57-10.55c1.25-5.08,2.52-10.17,3.88-15.23.61-2.27,1-6.14,2.51-8.05C486.66,264.15,494.13,260,499.68,262.76Z" transform="translate(-3.23 -65.2)" fill="url(#linear-gradient-12)"/>
  <path d="M414.12,473.07a5.36,5.36,0,0,0-2.08,2.54,2.54,2.54,0,0,0,.91,2.94,3.8,3.8,0,0,0,1.7.4,82.74,82.74,0,0,0,13.45-.15,10,10,0,0,0,3-.6,11.27,11.27,0,0,0,1.87-1.09,4.1,4.1,0,0,0,2.47-4.94l-.68-5.11a1.85,1.85,0,0,0-.48-1.21,1.79,1.79,0,0,0-1.12-.31c-3.84-.18-5.94-.19-9,2S417.21,470.79,414.12,473.07Z" transform="translate(-3.23 -65.2)" fill="#68e1fd"/>
  <path d="M477.75,476.08a5.44,5.44,0,0,0-2.08,2.53,2.55,2.55,0,0,0,.91,2.95,4,4,0,0,0,1.7.4,83.89,83.89,0,0,0,13.45-.15,10,10,0,0,0,3-.6,10.66,10.66,0,0,0,1.87-1.1,5.47,5.47,0,0,0,2.45-2.63,5.57,5.57,0,0,0,0-2.3l-.68-5.11a1.83,1.83,0,0,0-.48-1.21,1.79,1.79,0,0,0-1.12-.31c-3.84-.19-5.94-.2-9,2S480.84,473.8,477.75,476.08Z" transform="translate(-3.23 -65.2)" fill="#68e1fd"/>
  <path d="M477.75,476.08a5.44,5.44,0,0,0-2.08,2.53,2.55,2.55,0,0,0,.91,2.95,4,4,0,0,0,1.7.4,83.89,83.89,0,0,0,13.45-.15,10,10,0,0,0,3-.6,10.66,10.66,0,0,0,1.87-1.1,5.47,5.47,0,0,0,2.45-2.63,5.57,5.57,0,0,0,0-2.3l-.68-5.11a1.83,1.83,0,0,0-.48-1.21,1.79,1.79,0,0,0-1.12-.31c-3.84-.19-5.94-.2-9,2S480.84,473.8,477.75,476.08Z" transform="translate(-3.23 -65.2)" fill="url(#linear-gradient-13)"/>
  <path d="M414.12,473.07a5.36,5.36,0,0,0-2.08,2.54,2.54,2.54,0,0,0,.91,2.94,3.8,3.8,0,0,0,1.7.4,82.74,82.74,0,0,0,13.45-.15,10,10,0,0,0,3-.6,11.27,11.27,0,0,0,1.87-1.09,4.1,4.1,0,0,0,2.47-4.94l-.68-5.11a1.85,1.85,0,0,0-.48-1.21,1.79,1.79,0,0,0-1.12-.31c-3.84-.18-5.94-.19-9,2S417.21,470.79,414.12,473.07Z" transform="translate(-3.23 -65.2)" fill="url(#linear-gradient-14)"/>
  <polygon points="353.46 71.22 352.77 89.27 350.53 89.14 339.58 88.58 340.94 70.83 340.96 70.53 353.46 71.22" fill="#68e1fd"/>
  <polygon points="351.2 71.39 350.53 89.14 339.58 88.58 340.94 70.83 351.2 71.39" fill="url(#linear-gradient-15)"/>
  <path d="M453,196.44c-.44.17-.86.46-1.42.72a8,8,0,0,1-4.14.61,3.37,3.37,0,0,0-1.38,0,2.88,2.88,0,0,0-1.23.91,27.88,27.88,0,0,0-3.91,5.14l-.09,0s.24-7.82,4.32-10.43,7.8,2.61,7.8,2.61Z" transform="translate(-3.23 -65.2)" fill="url(#linear-gradient-16)"/>
  <path d="M431,262.15a15.28,15.28,0,0,1,2.18-3.29l4.22-5.27a7.34,7.34,0,0,0,1.62-2.82c.3-1.31-.14-2.65-.15-4,0-2.84,1.81-5.39,4-7.18.24-.19,4.23-4.93,4.35-5.21.34-.82-2.44.51-3.21,1-4.08,2.34-5.29,4.51-6.94,6.51-5.59,6.76-8.5,11.18-11.45,19.44a7.32,7.32,0,0,0-.5,2.34c0,1.63,1.77,5.12,3.77,5C430.75,268.57,430.42,263.59,431,262.15Z" transform="translate(-3.23 -65.2)" opacity="0.69" fill="url(#linear-gradient-17)" style="isolation: isolate"/>
  <path d="M391.25,185.65H312.58a3.93,3.93,0,0,1-4-4.54h0a5.37,5.37,0,0,1,5.21-4.54h78.67a3.93,3.93,0,0,1,4,4.54h0A5.37,5.37,0,0,1,391.25,185.65Z" transform="translate(-3.23 -65.2)" fill="#68e1fd" opacity="0.18" style="isolation: isolate"/>
  <path d="M388.73,205.07H310.06a3.94,3.94,0,0,1-4-4.55h0a5.38,5.38,0,0,1,5.21-4.54h78.67a3.94,3.94,0,0,1,4,4.54h0A5.38,5.38,0,0,1,388.73,205.07Z" transform="translate(-3.23 -65.2)" fill="#68e1fd" opacity="0.18" style="isolation: isolate"/>
  <path d="M386.17,224.82H307.5a3.94,3.94,0,0,1-4-4.54h0a5.38,5.38,0,0,1,5.22-4.54h78.67a3.94,3.94,0,0,1,4,4.54h0A5.38,5.38,0,0,1,386.17,224.82Z" transform="translate(-3.23 -65.2)" fill="#68e1fd" opacity="0.18" style="isolation: isolate"/>
  <path d="M373.23,275.49a4.86,4.86,0,0,1,0,.66l-34-.66,3.4-33.84A34,34,0,0,1,373.23,275.49Z" transform="translate(-3.23 -65.2)" fill="#68e1fd" opacity="0.47" style="isolation: isolate"/>
  <g>
    <g>
      <path d="M203.79,460.54l1,10.11s-3.88,5.86-8.93,6.24-6.78-2.05-6.78-2.05l.83-14.88" transform="translate(-3.23 -65.2)" fill="url(#linear-gradient-18)"/>
      <path d="M133.37,461.61l-1,10.39s4,6,9.17,6.4,7-2.1,7-2.1L147.66,461" transform="translate(-3.23 -65.2)" fill="url(#linear-gradient-19)"/>
      <path d="M145.81,234.49s-20.09,9.7-20.55,12.88,2.28,81.41,2.28,81.41,6.52,8.46,26.49,8.46c20.47,0,27-5.72,26.65-8.58-1.13-9.9,4.17-80.68,3.72-84s-19-10.11-19-10.11Z" transform="translate(-3.23 -65.2)" fill="#68e1fd"/>
      <path d="M158.31,284.13s-24.2,4.34-25.7,2.83c-1.35-1.35-7.17-40.79-7.35-39.59-.32,2.29,1,39.85,1.76,60.78,12.42-3.76,38.42-16.94,38.42-16.94A27.72,27.72,0,0,0,158.31,284.13Z" transform="translate(-3.23 -65.2)" fill="url(#linear-gradient-20)"/>
      <path d="M149,284.41a56.53,56.53,0,0,1,5.46-3.65c2.11-1.12,11.66-2.1,13.37-1.57s1,1.5-1.07,1.89-3.77-.05-4.21,1.18,2.26,3.74,2.08,5.88-.12,2-5,3.66-9.49,3.93-10.74.15S147.32,285,149,284.41Z" transform="translate(-3.23 -65.2)" fill="url(#linear-gradient-21)"/>
      <path d="M145.88,222.34s-.15,7-.07,12.15c.06,3.82,1.37,11.17,9.52,11.17s9.09-9.36,8.95-11.17c-.1-1.31.53-4,0-8.16C163.74,221.87,146.33,219.23,145.88,222.34Z" transform="translate(-3.23 -65.2)" fill="url(#linear-gradient-22)"/>
      <path d="M145.76,233.84a2.55,2.55,0,0,0-3.21,1.17c-1.23,2.05-1.3,6.16,0,11.76s2.39,7,2.39,7,5.34-7.55,9.09-7.86C154,246,146.64,244.5,145.76,233.84Z" transform="translate(-3.23 -65.2)" fill="#f2fdff"/>
      <path d="M164.34,233.84a2.56,2.56,0,0,1,3.22,1.17c1.22,2.05,1.29,6.16,0,11.76s-2.4,7-2.4,7-5.34-7.55-9.09-7.86C156.07,246,163.47,244.5,164.34,233.84Z" transform="translate(-3.23 -65.2)" fill="#f2fdff"/>
      <path d="M127.54,328.78s-1.49,11.59,1.36,58.69c2.66,43.87,3.42,74.6,3.42,74.6s.29,3.58,7.85,3.69,9.55-4.89,9.55-4.89l7.39-112.52,30.78,114.83s9.07,5.22,16.15,1.3c5-2.78-23.36-135.82-23.36-135.82S156.42,342,127.54,328.78Z" transform="translate(-3.23 -65.2)" fill="#3f3d56"/>
      <path d="M129,243.73a27.74,27.74,0,0,0-7.28,7.28c-3.18,4.7-8.43,44.13-6,54.81,1,4.51,38.21-12.35,38.21-12.35s-.87-7.56-4.81-10.14c0,0-18.24,3.92-19.6,2.55S129,243.73,129,243.73Z" transform="translate(-3.23 -65.2)" fill="#68e1fd"/>
      <path d="M170.49,197.6s-2,6.24-.14,9.21c7,11,3,9.86.4,10.1-.32,0,.14,2.11-.81,6.14-.75,3.18,1.49,10.43-8.31,7.39-2.8-.87-16.4-4.69-17.36-13.12-1.21-10.52-7.67-23.86,5.07-28.3C164.62,183.68,169.6,187.82,170.49,197.6Z" transform="translate(-3.23 -65.2)" fill="url(#linear-gradient-23)"/>
      <path d="M164.46,231.09s-9.93-3.67-14.42-5.72c0,0,9.35,8.88,14.17,8.81Z" transform="translate(-3.23 -65.2)" fill="#b6765e"/>
      <path d="M184.4,244.64s11.44,50.61,12.14,57.13-7.63,9.77-11.36,8.71c-8.27-2.33-7-16.47-7-16.47Z" transform="translate(-3.23 -65.2)" fill="#68e1fd"/>
      <path d="M196.27,299.91l11.62,37.53L200,343.05S183.17,319.1,181.84,312s-1.81-16.89,5.21-16.71" transform="translate(-3.23 -65.2)" fill="#68e1fd"/>
      <path d="M211.18,346.53c-.62-1.63-1.5-3.22-2-4.91-.29-1-.25-2.09-1-3-2.31-2.81-6.42-1-7.45,1.93a8.8,8.8,0,0,0,.43,6c.75,1.9,1.85,3.63,2.75,5.46a11.47,11.47,0,0,1,1.44,5.86,25,25,0,0,0-.36,3.09,1.55,1.55,0,0,0,.27.94c.54.66,1.61.27,2.29-.24C212.11,358.29,213.08,351.51,211.18,346.53Z" transform="translate(-3.23 -65.2)" fill="url(#linear-gradient-24)"/>
      <polygon points="196.67 279.13 194.36 275.68 203.83 269.55 206.47 273.29 196.67 279.13" fill="#f2fdff"/>
      <path d="M150.79,281.21l4.45,12.8-3.78,2.08s-5.86-11.8-6.14-12.38S150.79,281.21,150.79,281.21Z" transform="translate(-3.23 -65.2)" fill="#f2fdff"/>
    </g>
    <polygon points="173.87 199.02 172.4 238.4 177.73 243.95 173.87 199.02" fill="url(#linear-gradient-25)"/>
    <path d="M149,247.35s5.21,14,5.81,15.14,5-14.6,5-14.6,1.75-2.55-5.35-2.26A9.56,9.56,0,0,0,149,247.35Z" transform="translate(-3.23 -65.2)" fill="#f2fdff"/>
    <path d="M180.62,328s-15.15,4.12-22.35,3.86-30.8-5-30.8-5S124.85,337,126.23,338s8.43.38,18.43.76,16.09,5,24.07,4.79,12.77-11,12.77-11Z" transform="translate(-3.23 -65.2)" fill="#f2fdff"/>
    <path d="M133.17,469.62c-.67-.46-7.6,4.05-11.36,6.65-2,1.35-4.12,3.06-4.17,5.44a5,5,0,0,0,2.73,4.25,12.17,12.17,0,0,0,5.12,1.23,66.3,66.3,0,0,0,17.19-1.43c3.59-.7,7.74-2.06,8.81-5.56a9.4,9.4,0,0,0-.45-5.48c-.59-1.88-1.78-5.37-2.89-4.21C146.24,472.51,140.23,474.48,133.17,469.62Z" transform="translate(-3.23 -65.2)" fill="#68e1fd"/>
    <path d="M204.41,468.58c4.41,1.2,7.48,3.7,11.24,6.3,2,1.35,4.12,3.07,4.17,5.44a5,5,0,0,1-2.74,4.25A12.09,12.09,0,0,1,212,485.8a65.87,65.87,0,0,1-17.19-1.43c-3.59-.7-7.74-2.06-8.81-5.56a9.4,9.4,0,0,1,.45-5.48,8.24,8.24,0,0,1,2.79-4.18s4.35,3.45,7.21,3.59C198.7,472.85,204.41,468.58,204.41,468.58Z" transform="translate(-3.23 -65.2)" fill="#68e1fd"/>
    <path d="M133.17,469.62c-.67-.46-7.6,4.05-11.36,6.65-2,1.35-4.12,3.06-4.17,5.44a5,5,0,0,0,2.73,4.25,12.17,12.17,0,0,0,5.12,1.23,66.3,66.3,0,0,0,17.19-1.43c3.59-.7,7.74-2.06,8.81-5.56a9.4,9.4,0,0,0-.45-5.48c-.59-1.88-1.78-5.37-2.89-4.21C146.24,472.51,140.23,474.48,133.17,469.62Z" transform="translate(-3.23 -65.2)" fill="url(#linear-gradient-26)"/>
    <path d="M204.41,468.58c4.41,1.2,7.48,3.7,11.24,6.3,2,1.35,4.12,3.07,4.17,5.44a5,5,0,0,1-2.74,4.25A12.09,12.09,0,0,1,212,485.8a65.87,65.87,0,0,1-17.19-1.43c-3.59-.7-7.74-2.06-8.81-5.56a9.4,9.4,0,0,1,.45-5.48,8.24,8.24,0,0,1,2.79-4.18s4.35,3.45,7.21,3.59C198.7,472.85,204.41,468.58,204.41,468.58Z" transform="translate(-3.23 -65.2)" fill="url(#linear-gradient-27)"/>
  </g>
  <path d="M161.11,196.62c3-1.5,6.3-2.17,9.35-3.49a5.27,5.27,0,0,0,2.21-1.51,4.43,4.43,0,0,0,.76-2.56c.15-4-2.37-7.7-5.7-9.85s-7.38-2.94-11.34-3.2a26.66,26.66,0,0,0-11.9,1.54,18.65,18.65,0,0,0-11.2,14.74c-.32,2.66.17,5.78,2.43,7.23a8.57,8.57,0,0,0-1.72,7.69,14.86,14.86,0,0,0,4.2,6.92,19.59,19.59,0,0,1,3.16,3.41c1.22,2,1.5,4.63,3.33,6.07a2.39,2.39,0,0,0,1.12.51c1.58.18,2.35-1.86,2.57-3.45l.56-4.06a2.58,2.58,0,0,0-.07-1.38c-.35-.78-1.35-1-2-1.51a4.37,4.37,0,0,1-1.33-3.06,4.44,4.44,0,0,1,.53-3.29,3.11,3.11,0,0,1,3.54-.76,5.86,5.86,0,0,1,2.73,2.64c1.7,3,2.5-5,2.78-6C155.92,200.33,158.46,198,161.11,196.62Z" transform="translate(-3.23 -65.2)" fill="#3f3d56"/>
  <path d="M444.27,247.27c-.21.11-.46.26-.47.51,0,.44.66.46,1.07.3a39.73,39.73,0,0,0,5.59-2.66c.46-.26,1-.54,1.49-.28a1.74,1.74,0,0,1,.61.88,7,7,0,0,0,2.63,3l2.17-5.48a17.83,17.83,0,0,0,1.27-4.18c.12-1,.07-2,.25-2.93a13.06,13.06,0,0,0,.5-2.81c-.24-5.66-6.37,3.54-7.16,4.76C450.08,241.73,447.91,245.35,444.27,247.27Z" transform="translate(-3.23 -65.2)" fill="#f2fdff"/>
  <path d="M445.71,236.67a30.42,30.42,0,0,0-2.28,5.73,10.32,10.32,0,0,0,.17,6.08,6,6,0,0,1-4.09-2A11.52,11.52,0,0,0,437.9,250c-.5-2.75-.91-5.89.82-8.09.72-.92,1.74-1.56,2.48-2.46.55-.67.93-1.45,1.42-2.16a10.47,10.47,0,0,1,4.12-3.47A6.53,6.53,0,0,1,445.71,236.67Z" transform="translate(-3.23 -65.2)" fill="#f2fdff"/>
  <polyline points="481.53 197.09 472.04 237.36 481.76 241.52 497.26 195.71" fill="#68e1fd"/>
  <polygon points="471.81 236.78 471.12 239.12 480.49 243.63 481.18 241.2 471.81 236.78" fill="#fff"/>
  <polygon points="382.5 188.3 381.57 187.72 378.04 196.92 381.45 198.83 383.6 188.88 382.5 188.3" fill="#fff"/>
</svg>
