<svg id="Layer_1" data-name="Layer 1" xmlns="http://www.w3.org/2000/svg" xmlns:xlink="http://www.w3.org/1999/xlink" viewBox="0 0 633.8 597.29"><defs><linearGradient id="linear-gradient" x1="263.08" y1="578.78" x2="216.66" y2="148.82" gradientUnits="userSpaceOnUse"><stop offset="0.01"/><stop offset="0.99" stop-opacity="0"/></linearGradient><linearGradient id="linear-gradient-2" x1="683.14" y1="479.12" x2="636.71" y2="49.16" xlink:href="#linear-gradient"/><linearGradient id="linear-gradient-3" x1="542.64" y1="336.97" x2="384.08" y2="258.69" gradientUnits="userSpaceOnUse"><stop offset="0.01"/><stop offset="0.15" stop-opacity="0.48"/><stop offset="0.99" stop-opacity="0"/></linearGradient><linearGradient id="linear-gradient-4" x1="515.81" y1="212.89" x2="452.03" y2="199.88" xlink:href="#linear-gradient"/><linearGradient id="linear-gradient-5" x1="424.41" y1="312.18" x2="421.27" y2="315.43" gradientUnits="userSpaceOnUse"><stop offset="0" stop-color="#ecc4d7"/><stop offset="0.42" stop-color="#efd4d1"/><stop offset="1" stop-color="#f2eac9"/></linearGradient><linearGradient id="linear-gradient-6" x1="476.1" y1="186.04" x2="488.59" y2="202.32" gradientUnits="userSpaceOnUse"><stop offset="0" stop-color="#ecc4d7"/><stop offset="0.83" stop-color="#f2eac9"/></linearGradient><linearGradient id="linear-gradient-7" x1="397.19" y1="314.57" x2="541.96" y2="314.57" xlink:href="#linear-gradient-5"/><linearGradient id="linear-gradient-8" x1="327.77" y1="150.99" x2="392.86" y2="150.99" xlink:href="#linear-gradient-5"/><linearGradient id="linear-gradient-9" x1="327.77" y1="111.11" x2="356.6" y2="111.11" xlink:href="#linear-gradient-5"/><linearGradient id="linear-gradient-10" x1="497.48" y1="125.97" x2="430.4" y2="166.31" xlink:href="#linear-gradient-6"/><linearGradient id="linear-gradient-11" x1="500.32" y1="141.33" x2="493.38" y2="155.22" xlink:href="#linear-gradient"/><linearGradient id="linear-gradient-12" x1="399.13" y1="138.75" x2="532.41" y2="115.5" xlink:href="#linear-gradient"/><linearGradient id="linear-gradient-13" x1="430.58" y1="156.19" x2="448.87" y2="106.9" xlink:href="#linear-gradient"/><linearGradient id="linear-gradient-14" x1="450.14" y1="125.9" x2="445.35" y2="146.32" xlink:href="#linear-gradient"/><linearGradient id="linear-gradient-15" x1="411.19" y1="251.3" x2="401.03" y2="211.96" xlink:href="#linear-gradient"/><linearGradient id="linear-gradient-16" x1="233.63" y1="545.64" x2="598.23" y2="545.64" gradientUnits="userSpaceOnUse"><stop offset="0" stop-color="#183866"/><stop offset="1" stop-color="#1a7fc1"/></linearGradient></defs><title>37. VR</title><path d="M367.94,5.63c48.8-14.54,105-7.9,145.13,23.49,36.48,28.59,56,73.31,86.29,108.43,29.55,34.3,69,59,98.22,93.59s46.85,86.11,23.52,124.91C704,384.48,667.35,402.5,664,435.5c-1,10.37,1.57,20.77,1.55,31.19-.1,42.3-43.24,72.78-84.9,80.12S496,546.18,454,551c-37,4.24-72.37,18.29-109.33,23.15s-79-1.78-102.49-30.72c-17.76-21.88-21.43-52-35.48-76.39-29.45-51.17-104-80.05-101.56-139,1.8-42.77,44.82-70.16,68.17-106,28.85-44.36,30.32-97.41,69.84-134.58C278,54.61,321.19,19.55,367.94,5.63Z" transform="translate(-105.07 1.72)" fill="#68e1fd" opacity="0.18"/><path d="M213.42,330.74c-13.58,7.43-27.15,17-33.07,31.29-8.38,20.29,1.58,44.26,17.44,59.45,31.62,30.28,79.87,33,123.65,33.08q98.88.19,197.66-5.69c20.12-1.2,40.54-2.65,59.52-9.47,26-9.35,47.39-28.07,67.91-46.57,10.19-9.18,20.68-18.92,25.43-31.78,9.48-25.64-7.15-53.78-27.46-72.07a174.31,174.31,0,0,0-117.69-44.31c-1.88,6,4.69,11,10.38,13.63,18.16,8.38,37.64,14.16,54.51,24.92s31.32,28.12,31.58,48.12c.36,26.74-23.75,47.16-47.62,59.21C520.31,418.49,456.42,423.6,394.42,424c-37.41.27-75.69-1.15-110.61-14.6-7.38-2.84-15.3-7-17.71-14.54-1.79-5.57-.05-11.66,2.38-17A68,68,0,0,1,308.72,342c12-3.91,25.43-4.61,35.57-12.11,8-5.92,13.23-20.62,4.31-27.5-8.09-6.24-31.8-1.45-41-.56A246.46,246.46,0,0,0,213.42,330.74Z" transform="translate(-105.07 1.72)" fill="#fff" opacity="0.57"/><path d="M165.87,19.64,301.94,74.5a11.08,11.08,0,0,1,6.93,10.27V316.91a11.07,11.07,0,0,1-15.45,10.17l-139-59.77A11.07,11.07,0,0,1,147.77,257l2.89-227.23A11.07,11.07,0,0,1,165.87,19.64Z" transform="translate(-105.07 1.72)" fill="#68e1fd"/><path d="M157,23.14,293,78A11.09,11.09,0,0,1,300,88.26V320.41a11.08,11.08,0,0,1-15.45,10.17l-139-59.78a11.09,11.09,0,0,1-6.7-10.31l2.89-227.23A11.07,11.07,0,0,1,157,23.14Z" transform="translate(-105.07 1.72)" fill="#68e1fd"/><path d="M597,18.8,731.4,73A11.92,11.92,0,0,1,738.87,84V314.3a11.93,11.93,0,0,1-16.64,11L585,266.23a11.94,11.94,0,0,1-7.22-11.11l2.87-225.4A11.94,11.94,0,0,1,597,18.8Z" transform="translate(-105.07 1.72)" fill="#68e1fd"/><path d="M589,23.62,723.32,77.8a11.92,11.92,0,0,1,7.47,11.06V319.12a11.93,11.93,0,0,1-16.64,11l-137.24-59a11.92,11.92,0,0,1-7.21-11.11l2.86-225.4A11.94,11.94,0,0,1,589,23.62Z" transform="translate(-105.07 1.72)" fill="#68e1fd"/><path d="M157,23.14,293,78A11.09,11.09,0,0,1,300,88.26V320.41a11.08,11.08,0,0,1-15.45,10.17l-139-59.78a11.09,11.09,0,0,1-6.7-10.31l2.89-227.23A11.07,11.07,0,0,1,157,23.14Z" transform="translate(-105.07 1.72)" fill="url(#linear-gradient)"/><path d="M589,23.62,723.32,77.8a11.92,11.92,0,0,1,7.47,11.06V319.12a11.93,11.93,0,0,1-16.64,11l-137.24-59a11.92,11.92,0,0,1-7.21-11.11l2.86-225.4A11.94,11.94,0,0,1,589,23.62Z" transform="translate(-105.07 1.72)" fill="url(#linear-gradient-2)"/><path d="M541.93,286.94l-27,2.06-3.18-16.2c-2.22-4.87,3.18,16.2-11.5,95.65l-8.46-1.92-89.23-20.22,21.65-114-37.73-2.55,6.38-35.46,18.77,1.6s33.73-3.52,58.85,0,42.84,4.41,54.75,16.67S541.93,286.94,541.93,286.94Z" transform="translate(-105.07 1.72)" fill="#68e1fd"/><path d="M511.75,272.8c-2.22-4.87,3.18,16.2-11.5,95.65l-8.46-1.92-8.88-2s9.37-22,4.11-26-31.13,5.69-54.31,7.79-20.23-4.37-20.23-4.37,21.2-19.28,57.09-29.73,37.59-64.28,37.59-64.28Z" transform="translate(-105.07 1.72)" fill="url(#linear-gradient-3)"/><path d="M456.48,201.17s22.64.94,31.08-5.81l7.07,3.94s-1.93,13.54-13,15.34S456.46,215.83,456.48,201.17Z" transform="translate(-105.07 1.72)" fill="#68e1fd"/><path d="M456.48,201.17s22.64.94,31.08-5.81l7.07,3.94s-1.93,13.54-13,15.34S456.46,215.83,456.48,201.17Z" transform="translate(-105.07 1.72)" fill="url(#linear-gradient-4)"/><path d="M436.63,315.47l-23.25-7.77s-2.74,1.81,1.33,4.81a56.91,56.91,0,0,1,4.94,4.21Z" transform="translate(-105.07 1.72)" fill="url(#linear-gradient-5)"/><path d="M458.08,191.52c.51-4,.71-8.43,3.28-11.59a18.33,18.33,0,0,1,5.6-4.11l16.93-9.4c2.06-1.14,4.3-2.32,6.63-2a3,3,0,0,1,1.56.6c1.13.93.95,2.69.67,4.14q-2.58,13.11-5.19,26.22a28.33,28.33,0,0,1-2.11,7.19A15.72,15.72,0,0,1,471,210.79a18.67,18.67,0,0,1-12.59-5.9C454.61,200.9,457.46,196.47,458.08,191.52Z" transform="translate(-105.07 1.72)" fill="url(#linear-gradient-6)"/><path d="M513.18,323.17a28.37,28.37,0,0,0,9.43-3.1c5.86-3.14,15.25-8.74,17.08-13.2,2.69-6.59,2.24-19.93,2.24-19.93l-27,2.06s.23,8.53-2,8.83S439,316.08,439,316.08s-11.09-3.59-20.82.15-24.07,12.44-20.42,17a6.07,6.07,0,0,0,4.56,2.2c3.16.1,1.92,3.79,3.82,5.19,2.54,1.87,27.78,3.8,36.42-5.17C444.77,333.17,497.09,325.49,513.18,323.17Z" transform="translate(-105.07 1.72)" fill="url(#linear-gradient-7)"/><path d="M392.86,194.29l-4.48,24.85a110.84,110.84,0,0,0-13.57-8.33c-7.94-4.12-26.49-56-26.49-56s-1.95-9.27-7.78-12.42S335,129.06,335,125.76h0c0-3.29-3-8.37-5.93-12.4s0-6.14,0-6.14,7.57,7.18,7.71,6.29-3.78-10.72-6-13.19-2.09-6.56-.89-7.16,13,14.81,13,14.81a37.94,37.94,0,0,0-2.85-11.23c-2.39-5.23-1.79-11.07,0-10.17s9.28,18,9.28,14.73-6-20.11-1.2-18.32c1.79.67,3.74,4.14,5.69,9.46,3.25,8.91,6.47,23,8.8,37.85C366.36,153.94,392.86,194.29,392.86,194.29Z" transform="translate(-105.07 1.72)" fill="url(#linear-gradient-8)"/><path d="M356.55,115.14s-5.08-5.88-8.83-5.11.75,6.9.75,6.9,3.14,5.39,1.65,9.13-2.54,12.12-2.1,12.42-3.29,3.75-7.33-5.08a22.39,22.39,0,0,0-5.68-7.65c0-3.29-3-8.37-5.93-12.4s0-6.14,0-6.14,7.57,7.18,7.71,6.29-3.78-10.72-6-13.19-2.09-6.56-.89-7.16,13,14.81,13,14.81a37.94,37.94,0,0,0-2.85-11.23c-2.39-5.23-1.79-11.07,0-10.17s9.28,18,9.28,14.73-6-20.11-1.2-18.32c1.79.67,3.74,4.14,5.69,9.46C353.86,92.43,357,108.55,356.55,115.14Z" transform="translate(-105.07 1.72)" fill="url(#linear-gradient-9)"/><path d="M536.7,538.12l-36.45,25.11c-5.47-10.58,14.68-30.5,14.68-30.5s-31-48.85-43.09-81.49c-9.21-24.76-13-50.45-27.45-50.24-4.59.07-10.25,2.75-17.51,8.9C396.74,435.4,406.23,522,406.23,522l-9,5.1h0L361.06,547.5l-1.53-8.71C358.09,519.27,384.59,510,384.59,510s-3.09-42.47,0-85,18-78.69,18-78.69l80.35,18.21,11.72,2.65C494,450.53,536,536.77,536.69,538.1Z" transform="translate(-105.07 1.72)" fill="#3f3d56"/><path d="M500.79,146.86a48.08,48.08,0,0,1-2.63,9.87,1.77,1.77,0,0,1,1.65.9c1.9,3.17-2.54,13.78-8.34,12.58-3.23,5.37-6.92,10.61-11.93,14.37C468.32,193,451,191.85,441,182.05c-7.37-7.21-10.52-17.92-10.46-28.23.07-12,3.3-31.07,10.86-40.92s23.69-6.06,33.61-2.67c7.67,2.62,15.41,6.21,20.38,12.61C500.56,129.5,502,138.52,500.79,146.86Z" transform="translate(-105.07 1.72)" fill="url(#linear-gradient-10)"/><path d="M432.71,100c2.34-3.2,1.36-7.61,1.66-11.56.36-4.69,3.34-9.61,8-10.36,1.95-.32,3.94.12,5.92.1,4,0,7.76-2,11.53-3.41s8.18-2.33,11.72-.4c2.19,1.19,3.72,3.3,5.59,5a16.42,16.42,0,0,0,10.18,4c3,.1,6.06-.65,9.1-.67s6.39.9,8,3.46c1.77,2.73,1.06,6.31,1.66,9.51.45,2.37,2.29,3.84,4.36,5.1s4.37,2.31,5.81,4.25a9.27,9.27,0,0,1,1.09,7.86,23.93,23.93,0,0,1-3.78,7.23c-1,1.47-2.13,3.12-1.86,4.89.35,2.36,2.87,3.64,4.38,5.48a7.58,7.58,0,0,1-2.5,11.15c-1.24.58-2.66.83-3.7,1.72-2.45,2.12-1.42,6.58-3.86,8.71-2,1.78-5.47.71-7.13-1.44S493.39,143,493,140.31c-.7-4.34,1.69-6.28-1.3-9.5-3.5-3.75-8.83-5-13.58-6.9-5.87-2.39-13.08-1.9-18.89-4.43-5.13-2.24-12.58-4.5-17.78-6.58S435.78,104.67,432.71,100Z" transform="translate(-105.07 1.72)" fill="#3f3d56"/><path d="M494.14,139.39l13,8.07s-3.84,10.83-6.9,12l-15.94-6.87Z" transform="translate(-105.07 1.72)" fill="#68e1fd"/><path d="M494.14,139.39l13,8.07s-3.84,10.83-6.9,12l-15.94-6.87Z" transform="translate(-105.07 1.72)" fill="url(#linear-gradient-11)"/><path d="M433.51,100.32s-17.22.3-21.43,6.29-8.27,25.85-8.27,25.85l58.82,25.85s7.78,3.4,14.51-1.41,18.35-8.72,17.87-14.85,4.28-12.4-5.3-17.18S439.86,113.47,433.51,100.32Z" transform="translate(-105.07 1.72)" fill="#68e1fd"/><path d="M433.51,100.32s-17.22.3-21.43,6.29-8.27,25.85-8.27,25.85l58.82,25.85s7.78,3.4,14.51-1.41,18.35-8.72,17.87-14.85,4.28-12.4-5.3-17.18S439.86,113.47,433.51,100.32Z" transform="translate(-105.07 1.72)" fill="url(#linear-gradient-12)"/><path d="M412.08,106.61s58.63,21.6,61.1,23.67-1.35,17.33-4.94,24.73-9.76,4.46-9.76,4.46l-53.17-20.84s-3.45-2.24,0-13.91S410.65,109.37,412.08,106.61Z" transform="translate(-105.07 1.72)" fill="#68e1fd"/><path d="M412.08,106.61s58.63,21.6,61.1,23.67-1.35,17.33-4.94,24.73-9.76,4.46-9.76,4.46l-53.17-20.84s-3.45-2.24,0-13.91S410.65,109.37,412.08,106.61Z" transform="translate(-105.07 1.72)" fill="url(#linear-gradient-13)"/><path d="M403,119.76c.46-1.62,3.15-3.18,4.73-2.59,12.75,4.77,62.09,24.15,67.54,24.15,6.25,0,19.78-2.75,19.78-2.75a7.36,7.36,0,0,1,0,3.48c-.51,1.35-16.33,7.5-23.18,6.36-6-1-55.21-17.87-66.92-22.27-1.39-.52-2.68-3.76-2.28-5.2Z" transform="translate(-105.07 1.72)" fill="#68e1fd"/><path d="M403,119.76c.46-1.62,3.15-3.18,4.73-2.59,12.75,4.77,62.09,24.15,67.54,24.15,6.25,0,19.78-2.75,19.78-2.75a7.36,7.36,0,0,1,0,3.48c-.51,1.35-16.33,7.5-23.18,6.36-6-1-55.21-17.87-66.92-22.27-1.39-.52-2.68-3.76-2.28-5.2Z" transform="translate(-105.07 1.72)" fill="url(#linear-gradient-14)"/><path d="M388.38,219.14h25.28A10.8,10.8,0,0,1,424.27,232l-.06.33-37.73-2.55Z" transform="translate(-105.07 1.72)" fill="url(#linear-gradient-15)"/><path d="M536.69,538.1c-52.07-54.77-53.78-173.58-53.78-173.58l11.72,2.65C494,450.53,536,536.77,536.69,538.1Z" transform="translate(-105.07 1.72)" fill="#25233a"/><path d="M444.39,401c-4.59.07-10.25,2.75-17.51,8.9C396.74,435.4,406.23,522,406.23,522l-9,5.1h0c-7.54-45.38-8-84.4,15.17-115.52C421.53,399.23,443,400.85,444.39,401Z" transform="translate(-105.07 1.72)" fill="#25233a"/><path d="M265.53,528.09c-3.33,6.31-4.56,14.08-10,18.7s-14.18,4.9-19,10.36c-6,6.82-2.15,18.34,5.34,23.46s17.1,5.62,26.16,5.94l246.06,8.79c17.15.61,35.83.76,49.48-9.63,16.69-12.69,19-40.33,4.6-55.59,7.31-.62,14.92-1.35,21.19-5.17s10.68-11.75,8.07-18.61c-3.31-8.67-14.65-10.39-23.93-10.56-61.54-1.13-120.31,12.4-181.19,15.52C358.8,513,285.31,490.6,265.53,528.09Z" transform="translate(-105.07 1.72)" opacity="0.19" fill="url(#linear-gradient-16)"/><path d="M334,238.69c4.08,16.11,23,22.69,39.13,26.5,40.54,9.57,73.83,7.38,114.78-.28,18.4-3.44,46.68-4.49,68.93,1.67,2,.57,7.12-16.83,5.84-18.53-.89-1.18-17.81-3.13-19.26-3.4-12.79-2.32-44.69-1.46-57.61,0-31.09,3.54-67.22-36.07-78.68-7.09C405.45,241.82,330.63,225.34,334,238.69Z" transform="translate(-105.07 1.72)" fill="#fff" opacity="0.57"/></svg>