<svg width="489" height="240" viewBox="0 0 489 240" fill="none" xmlns="http://www.w3.org/2000/svg">
<path opacity="0.18" d="M152.736 17.3406C143.181 31.2417 140.675 50.6636 127.965 62.8795C121.56 69.0596 113.292 72.8129 105.813 77.6334C90.3996 87.5627 77.9355 102.889 74.1387 120.816C70.7779 136.451 74.7639 156.293 87.3309 167.162C93.7974 172.741 99.3013 175.736 103.958 183.482C108.997 191.866 111.687 199.55 119.355 205.857C126.759 211.963 135.139 216.817 143.415 221.645C152.054 226.68 160.799 231.764 170.388 234.599C180.38 237.557 190.931 237.961 201.35 237.998C216.242 238.052 232.066 237.092 244.259 228.522C254.987 220.99 260.076 209.504 265.9 198.264C271.725 187.025 278.566 177.252 285.732 166.729C292.532 156.8 299.442 146.586 301.993 134.84C303.532 127.5 303.304 119.897 301.33 112.662C299.718 106.651 300.236 99.9846 296.982 94.5997C292.432 87.0868 286.379 80.5977 279.204 75.5404C272.038 70.4975 263.901 66.9913 256.686 62.0184C249.471 57.0455 242.959 50.0703 241.491 41.4182C240.935 38.1592 241.124 34.8261 240.709 31.5301C239.5 21.9098 233.012 13.4843 224.81 8.29712C216.608 3.10999 206.842 0.922241 197.163 0.230073C186.85 -0.523896 176.184 0.456676 166.838 4.94753C160.643 7.93456 156.216 12.2689 152.736 17.3406Z" fill="#68E1FD"/>
<path d="M27.1952 56.59C24.9152 53.05 24.3552 48.71 22.9352 44.74C21.5152 40.77 18.6352 36.74 14.4552 36.29C10.2752 35.84 6.57518 39.11 3.96518 42.45C2.46386 44.2246 1.29819 46.2578 0.525177 48.45C0.0435019 49.9987 -0.109208 51.631 0.0768352 53.2421C0.262879 54.8533 0.783569 56.4078 1.60552 57.806C2.42747 59.2041 3.53255 60.4151 4.84988 61.3612C6.1672 62.3073 7.66771 62.9677 9.25518 63.3C11.3552 63.74 13.6152 63.62 15.5352 64.57C16.8367 65.3495 18.0188 66.3128 19.0452 67.43C21.4752 69.7 24.5852 71.6 27.9052 71.38C30.8452 71.18 34.6552 68.19 33.7952 64.87C32.9952 61.8 28.9052 59.24 27.1952 56.59Z" fill="url(#paint0_linear)"/>
<path d="M244.665 94.06C244.615 94.33 244.565 94.61 244.525 94.88C242.175 108.059 235.113 119.933 224.655 128.29C218.925 132.84 212.035 136.47 208.565 142.91C206.385 146.91 205.825 151.62 205.385 156.2C202.785 182.96 201.675 209.12 204.595 235.85L196.595 237.41H163.705C160.525 237.41 150.615 238.26 141.765 238.24H141.715C134.715 238.24 128.305 237.6 126.565 235.56C126.503 235.493 126.449 235.42 126.405 235.34C126.324 235.234 126.254 235.12 126.195 235C126.115 234.86 126.025 234.72 125.945 234.56C125.865 234.4 125.765 234.2 125.675 234.01L125.585 233.83C123.245 228.53 123.455 219.34 122.915 214.18C122.155 206.84 121.675 199.45 120.855 192.11C119.155 177.24 115.755 161.98 106.665 150.11C105.355 148.41 102.955 145.74 99.9152 142.53C89.1152 131.12 70.1652 112.85 62.9152 106.46C61.7452 105.46 20.7152 73.75 20.3452 72.25C19.3452 67.91 31.4152 62.08 33.3452 58.08C46.8452 65.84 100.135 104.17 113.615 111.94C120.155 115.7 126.795 119.51 134.125 121.32C149.535 125.13 165.565 119.65 180.505 114.24C190.755 110.53 204.445 104.86 215.215 98.24C219.865 95.39 226.945 89.8 220.345 90.06C209.265 90.49 197.405 89.66 188.275 90.13C187.8 90.229 187.309 90.222 186.838 90.1097C186.366 89.9973 185.924 89.7823 185.545 89.48C185.069 88.7959 184.882 87.9513 185.025 87.13C185.435 79.07 184.095 78.85 186.615 71.18C196.355 73.58 207.995 71.46 218.015 71.58C228.745 71.7 233.225 70.13 240.065 77.45C241.876 79.2638 243.292 81.4326 244.225 83.82C245.425 87.06 245.195 90.64 244.665 94.06Z" fill="#68E1FD"/>
<path d="M140.345 122.43C142.945 126.67 142.215 129.43 146.125 132.5C147.965 133.95 155.785 135.5 158.845 133.18C162.665 130.25 162.215 121.89 162.285 121.32C162.312 120.376 162.098 119.44 161.665 118.6C160.398 115.85 159.283 113.032 158.325 110.16C157.354 107.256 157.219 104.137 157.935 101.16C157.095 100.337 156.096 99.6942 154.999 99.2712C153.902 98.8482 152.73 98.6538 151.555 98.7C149.322 98.9973 147.197 99.8386 145.365 101.15C143.935 102.15 139.485 94.99 138.565 96.45C137.765 97.77 140.275 118.94 140.345 122.43Z" fill="url(#paint1_linear)"/>
<path d="M138.315 92.61C138.315 92.61 142.495 113.19 150.595 117.88C158.695 122.57 162.175 119.72 162.175 119.72L156.015 104.11L138.315 92.61Z" fill="url(#paint2_linear)"/>
<path d="M153.055 110.35C154.707 110.563 156.385 110.454 157.995 110.03C161.995 108.72 163.915 103.79 163.415 99.03C162.915 94.27 160.495 89.68 157.815 85.5C154.481 80.283 150.646 75.4033 146.365 70.93C144.083 68.3345 141.378 66.1436 138.365 64.45C136.382 63.4251 134.205 62.8319 131.976 62.7095C129.748 62.5871 127.518 62.9383 125.435 63.74C121.472 65.4298 118.247 68.4847 116.345 72.35C114.262 76.2717 113.498 80.7599 114.165 85.15C116.875 102.06 140.535 109.34 153.055 110.35Z" fill="url(#paint3_linear)"/>
<path d="M166.105 82.74C164.695 83.61 162.835 83.22 161.375 82.44C159.221 81.2962 157.585 79.3712 156.805 77.06C156.43 75.9034 156.309 74.6797 156.449 73.4719C156.588 72.2641 156.986 71.1005 157.615 70.06C158.615 68.52 160.095 67.24 160.415 65.46C160.415 65.46 172.155 56.16 174.225 42.98C176.295 29.8 189.735 41.98 189.735 41.98C189.735 41.98 204.615 55.19 197.595 63.32C196.895 64.0728 196.008 64.6281 195.026 64.93C194.043 65.2319 192.997 65.2698 191.995 65.04C188.995 64.46 183.085 64.92 174.575 72.91L166.105 82.74Z" fill="white"/>
<path d="M174.575 72.91C173.043 72.697 171.482 72.8583 170.025 73.38C168.465 74.2439 167.208 75.5672 166.425 77.17C165.686 78.2923 165.24 79.5813 165.125 80.92C165.075 82.71 166.035 84.35 166.975 85.87C167.492 86.8935 168.246 87.7783 169.175 88.45C170.155 88.9486 171.236 89.2187 172.335 89.24C174.135 89.42 176.085 89.55 177.625 88.59C178.213 88.106 178.842 87.6744 179.505 87.3C181.395 86.52 183.945 88.03 185.425 86.63C186.046 85.8601 186.359 84.8875 186.305 83.9L186.675 78.09C186.785 76.45 187.505 74.73 185.765 74.14C182.575 73.06 177.945 72.91 174.575 72.91Z" fill="url(#paint4_linear)"/>
<path d="M177.325 84.63C177.325 84.63 188.965 96.52 192.325 96.52C195.685 96.52 187.665 107.9 183.795 105.83C179.925 103.76 172.335 89.24 172.335 89.24C172.335 89.24 174.485 84.76 175.585 84.37C175.871 84.2471 176.185 84.2064 176.492 84.2523C176.8 84.2982 177.088 84.429 177.325 84.63V84.63Z" fill="white"/>
<path d="M197.154 61.4796C199.787 59.2905 197.611 52.3312 192.293 45.9355C186.976 39.5398 180.531 36.1297 177.898 38.3187C175.265 40.5078 177.441 47.4672 182.758 53.8629C188.076 60.2586 194.521 63.6687 197.154 61.4796Z" fill="#68E1FD"/>
<path d="M197.154 61.4796C199.787 59.2905 197.611 52.3312 192.293 45.9355C186.976 39.5398 180.531 36.1297 177.898 38.3187C175.265 40.5078 177.441 47.4672 182.758 53.8629C188.076 60.2586 194.521 63.6687 197.154 61.4796Z" fill="url(#paint5_linear)"/>
<path d="M138.925 60.93C138.006 64.5568 135.928 67.784 133.005 70.12C131.325 71.55 129.445 72.75 127.795 74.22C126.059 75.6138 124.777 77.494 124.115 79.62C123.596 82.3239 124.136 85.124 125.625 87.44C127.103 89.7211 128.733 91.8994 130.505 93.96C130.743 94.1869 130.921 94.469 131.024 94.7812C131.127 95.0934 131.152 95.4261 131.095 95.75C130.845 96.45 129.945 96.65 129.205 96.6C128.306 96.5402 127.434 96.2732 126.655 95.82C126.242 95.5183 125.767 95.3101 125.265 95.21C124.833 95.2299 124.425 95.4117 124.121 95.7194C123.817 96.027 123.64 96.4378 123.625 96.87C123.623 97.7441 123.924 98.592 124.475 99.27C125.348 100.481 126.476 101.487 127.778 102.218C129.08 102.949 130.526 103.386 132.015 103.5C132.058 103.647 132.071 103.801 132.054 103.953C132.037 104.106 131.99 104.253 131.915 104.387C131.841 104.521 131.741 104.638 131.621 104.733C131.5 104.828 131.363 104.899 131.215 104.94C130.607 105.085 129.969 105.043 129.385 104.82C127.835 104.38 126.325 103.82 124.825 103.25L119.015 101.06C116.695 100.2 114.375 99.34 112.095 98.39C110.309 97.7902 108.686 96.7838 107.355 95.45C105.925 93.81 105.355 91.57 105.035 89.45C104.535 87.3705 104.556 85.1997 105.095 83.13C105.735 81.21 107.195 79.56 107.345 77.55C107.495 75.54 106.205 73.55 105.235 71.71C104.115 69.55 103.385 67.01 104.115 64.71C104.766 62.899 106.067 61.3947 107.765 60.49C109.448 59.5924 111.276 59 113.165 58.74C114.805 58.45 116.575 58.22 117.825 57.11C120.685 54.59 119.175 49.11 122.185 46.81C125.395 44.32 130.545 47.47 133.535 49.12C135.62 50.2074 137.283 51.9596 138.259 54.0989C139.236 56.2383 139.47 58.6424 138.925 60.93V60.93Z" fill="#3F3D56"/>
<path d="M200.465 16L194.255 27.24" stroke="white" stroke-width="4.13" stroke-miterlimit="10" stroke-linecap="round"/>
<path d="M213.455 26.47L202.015 34.61" stroke="white" stroke-width="4.13" stroke-miterlimit="10" stroke-linecap="round"/>
<path d="M221.985 40.81L207.635 44.69" stroke="white" stroke-width="4.13" stroke-miterlimit="10" stroke-linecap="round"/>
<path d="M149.665 236.89C147.058 237.483 144.421 237.933 141.765 238.24H141.715C136.065 238.87 129.055 238.87 126.565 235.56C126.503 235.493 126.449 235.42 126.405 235.34C126.324 235.234 126.254 235.12 126.195 235C126.115 234.86 126.025 234.72 125.945 234.56C125.865 234.4 125.765 234.2 125.675 234.01L125.585 233.83C123.245 228.53 123.455 219.34 122.915 214.18C122.155 206.84 121.675 199.45 120.855 192.11C119.155 177.24 115.755 161.98 106.665 150.11C105.355 148.41 99.8452 142.11 96.8052 138.94L101.075 140.75C101.075 140.75 134.675 155.22 137.775 168.67C140.875 182.12 149.665 236.89 149.665 236.89Z" fill="url(#paint6_linear)"/>
<path d="M303.44 171L302.66 182.83L292 189.03L303.63 194.85L304.8 207.64L315.46 195.82L327.29 196.98L321.66 188.25L323.8 175.65L312.75 180.11L303.44 171Z" fill="#68E1FD"/>
<path d="M276.456 21L275.948 29.0718L269 33.3021L276.58 37.2732L277.342 46L284.29 37.935L292 38.7265L288.331 32.7699L289.725 24.1728L282.524 27.2159L276.456 21Z" fill="#68E1FD"/>
<path d="M479.214 168L478.927 172.52L475 174.889L479.284 177.113L479.715 182L483.642 177.484L488 177.927L485.926 174.591L486.714 169.777L482.644 171.481L479.214 168Z" fill="#68E1FD"/>
<path d="M422.44 23L421.67 34.83L411 41.03L422.64 46.85L423.8 59.64L434.46 47.82L446.29 48.98L440.67 40.26L442.8 27.65L431.75 32.11L422.44 23Z" fill="#68E1FD"/>
<path d="M55.4834 182L55.047 188.78L49 192.334L55.5968 195.669L56.2542 203L62.2956 196.225L69 196.89L65.815 191.892L67.0221 184.665L60.7597 187.221L55.4834 182Z" fill="#68E1FD"/>
<path d="M149.665 236.89C147.058 237.483 144.421 237.933 141.765 238.24H141.715C136.065 238.87 129.055 238.87 126.565 235.56C126.503 235.493 126.449 235.42 126.405 235.34C126.324 235.234 126.254 235.12 126.195 235C126.115 234.86 126.025 234.72 125.945 234.56C125.865 234.4 125.765 234.2 125.675 234.01L125.585 233.83C123.245 228.53 123.455 219.34 122.915 214.18C122.155 206.84 121.675 199.45 120.855 192.11C119.155 177.24 115.755 161.98 106.665 150.11C105.355 148.41 99.8452 142.11 96.8052 138.94L101.075 140.75C101.075 140.75 134.675 155.22 137.775 168.67C140.875 182.12 149.665 236.89 149.665 236.89Z" fill="url(#paint7_linear)"/>
<path d="M359.099 139.728C357.833 137.197 355.809 135.273 354.568 132.818C351.911 127.579 353.467 121.074 356.606 116.113C357.871 114.05 359.517 112.063 359.985 109.672C360.529 106.862 359.441 103.8 360.618 101.193C361.579 99.0917 363.756 97.8768 365.68 96.5354C368.603 94.4472 371.134 91.7137 374.437 90.3216C377.74 88.9295 382.321 89.4357 383.941 92.6502C386.991 91.1442 390.851 92.511 393.129 95.0167C395.407 97.5225 396.419 100.939 397.115 104.255C397.711 108.059 398.583 111.815 399.722 115.493C401.064 119.1 403.418 122.529 406.898 124.162C413.656 127.326 423.072 123.225 428.412 128.49C431.146 131.211 432.12 136.02 435.828 137.058C437.739 137.589 439.815 136.893 441.713 137.399C444.991 138.285 446.345 142.246 446.421 145.638C446.476 148.963 445.845 152.264 444.566 155.334C443.288 158.405 441.39 161.178 438.992 163.482C436.638 165.722 433.626 167.81 433.145 171.075C433.094 172.729 433.222 174.384 433.525 176.011C433.705 178.198 433.25 180.391 432.213 182.326C431.177 184.261 429.603 185.855 427.682 186.917C425.761 187.978 423.574 188.462 421.384 188.31C419.194 188.158 417.095 187.376 415.339 186.059C412.656 184.059 410.391 180.706 407.05 180.858C405.589 181.062 404.199 181.618 403 182.478C400.372 184.274 397.464 185.621 394.395 186.464C392.853 186.87 391.235 186.896 389.681 186.539C388.127 186.182 386.683 185.452 385.473 184.414C383.574 182.553 382.866 179.845 381.942 177.339C380.448 173.29 377.728 169.126 373.488 168.316C371.666 167.975 369.78 168.316 367.958 168.013C355.606 166.026 362.858 147.308 359.099 139.728Z" fill="#3F3D56"/>
<path d="M458.013 97.1934C461.087 92.295 463.408 86.9624 464.897 81.3743C465.546 79.0311 466.618 76.8265 468.061 74.8695C468.203 74.6732 468.406 74.5293 468.639 74.4601C468.871 74.3909 469.119 74.4003 469.346 74.4868C469.572 74.5733 469.764 74.7321 469.891 74.9386C470.018 75.1451 470.073 75.3877 470.048 75.6288L469.542 80.6909C472.073 77.7549 475.072 72.3764 479.312 67.9091C479.428 67.7939 479.585 67.7293 479.748 67.7293C479.912 67.7293 480.069 67.7939 480.185 67.9091C480.265 67.9934 480.321 68.0983 480.345 68.2122C480.37 68.3261 480.362 68.4445 480.324 68.5545L476.907 77.1221C476.893 77.1653 476.889 77.2108 476.893 77.2559C476.897 77.301 476.91 77.3449 476.931 77.3849C476.952 77.425 476.981 77.4604 477.016 77.4892C477.051 77.5179 477.092 77.5394 477.135 77.5524V77.5524C477.197 77.5712 477.264 77.5716 477.327 77.5537C477.39 77.5357 477.446 77.5001 477.489 77.4512L482.551 70.6299C485.298 68.6557 484.981 71.5538 484.728 72.2372L481.425 78.5648C481.387 78.6518 481.38 78.7491 481.405 78.8407C481.43 78.9324 481.485 79.0128 481.562 79.0688C481.638 79.1248 481.732 79.153 481.826 79.1488C481.921 79.1446 482.012 79.1083 482.083 79.0457C483.525 77.6291 485.06 76.31 486.677 75.0973C486.876 74.9638 487.113 74.9014 487.352 74.9199C487.591 74.9384 487.816 75.0369 487.992 75.1993C488.167 75.3618 488.283 75.5788 488.32 75.8152C488.357 76.0516 488.313 76.2936 488.196 76.502L483.134 83.5763C482.526 84.4242 482.007 84.9178 483.045 84.8419L486.69 83.5004C487.778 83.0701 487.259 85.5632 486.31 86.2339C481.007 90.0305 478.856 92.9919 475.186 96.143C471.516 99.2942 447.964 138.133 437.22 151.902C433.31 156.901 425.83 160.229 422.806 152.181C420.54 146.081 427.488 140.373 430.829 135.957C440.413 123.445 449.475 110.524 458.013 97.1934Z" fill="url(#paint8_linear)"/>
<path d="M431.538 157.18C430.692 159.57 429.26 161.711 427.374 163.406C423.843 166.633 419.364 168.658 415.883 171.936C408.164 179.2 406.885 190.805 406.075 201.372L403.253 237.844H350.101C346.29 237.848 342.492 238.272 338.775 239.11C339.458 229.323 340.049 219.536 340.546 209.75C341.483 191.362 341.521 171.138 329.802 156.926C328.586 155.772 327.748 154.276 327.397 152.636C327.246 150.751 328.524 149.08 329.726 147.574C329.802 147.498 329.853 147.422 329.929 147.334L337.749 137.779C338.145 137.14 338.665 136.587 339.278 136.153C339.891 135.718 340.585 135.41 341.318 135.248C342.607 135.329 343.815 135.9 344.697 136.843C347.71 139.584 350.456 142.606 352.898 145.866C354.505 147.891 356.074 149.941 357.745 151.915C365.629 161.229 377.664 167.785 389.029 160.318C396.835 155.03 404.967 150.241 413.378 145.98C417.296 144.079 421.314 142.389 425.413 140.918C425.172 142.879 426.223 144.474 427.526 145.98C428.927 147.406 430.159 148.99 431.196 150.7C431.676 151.705 431.954 152.794 432.012 153.906C432.071 155.018 431.91 156.13 431.538 157.18V157.18Z" fill="#68E1FD"/>
<path d="M338.85 146.916C341.294 142.565 342.102 137.484 341.128 132.59C340.154 127.747 338.599 123.039 336.497 118.568L323.158 86.93C321.958 84.3501 321.03 81.6527 320.386 78.8812C319.463 74.1482 320.209 69.2632 320.956 64.5048C320.111 64.2629 319.205 64.3535 318.425 64.7579C318.544 66.0383 318.278 67.3251 317.66 68.4528C317.042 69.5805 316.101 70.4975 314.957 71.0856C313.783 66.3303 311.628 61.8731 308.63 58C308.959 61.535 309.203 65.0785 309.364 68.6304C306.579 65.7703 303.787 62.9187 300.986 60.0755C298.822 63.8721 306.605 67.9091 304.782 71.9082L295.595 65.2894C294.924 69.7947 302.213 71.9208 302.606 76.4767L296.012 73.4015C297.404 76.8058 300.631 79.0205 303.188 81.6781C312.578 91.5619 312.578 106.862 318.45 119.15C321.816 126.225 325.423 132.008 326.942 139.741C328.081 145.549 333.08 156.192 338.85 146.916Z" fill="url(#paint9_linear)"/>
<path d="M387.308 160.837C386.865 164.368 383.574 167.405 379.993 168.266C379.086 168.505 378.143 168.582 377.209 168.493C372.147 167.975 369.843 161.723 369.945 156.623C370.046 151.523 371.21 146.321 368.881 141.981C368.881 141.841 368.742 141.702 368.666 141.563C367.401 139.323 365.186 137.652 364.06 135.311C363.023 132.666 362.794 129.772 363.402 126.997C364.908 116.417 373.197 88.4613 389.168 98.9272C393.306 101.635 395.774 106.318 397.191 111.051C402.203 127.743 391.497 127.452 387.308 160.837Z" fill="url(#paint10_linear)"/>
<path d="M380.626 167.645C380.447 167.883 380.234 168.092 379.993 168.266C379.086 168.505 378.143 168.582 377.209 168.493C372.147 167.975 369.843 161.723 369.945 156.623C370.046 151.523 371.931 146.6 367.705 140.171C369.919 141.778 372.855 142.778 379.284 143.195C383.929 143.449 381.145 166.975 380.626 167.645Z" fill="url(#paint11_linear)"/>
<defs>
<linearGradient id="paint0_linear" x1="0.00517804" y1="53.82" x2="33.9152" y2="53.82" gradientUnits="userSpaceOnUse">
<stop stop-color="#ECC4D7"/>
<stop offset="0.42" stop-color="#EFD4D1"/>
<stop offset="1" stop-color="#F2EAC9"/>
</linearGradient>
<linearGradient id="paint1_linear" x1="8372.7" y1="-15042.3" x2="9088.49" y2="-14823.9" gradientUnits="userSpaceOnUse">
<stop stop-color="#ECC4D7"/>
<stop offset="0.42" stop-color="#EFD4D1"/>
<stop offset="1" stop-color="#F2EAC9"/>
</linearGradient>
<linearGradient id="paint2_linear" x1="6248.06" y1="5079.13" x2="4830.95" y2="5778.82" gradientUnits="userSpaceOnUse">
<stop stop-color="#ECC4D7"/>
<stop offset="0.42" stop-color="#EFD4D1"/>
<stop offset="1" stop-color="#F2EAC9"/>
</linearGradient>
<linearGradient id="paint3_linear" x1="27449.4" y1="58397.6" x2="29221.1" y2="57500.3" gradientUnits="userSpaceOnUse">
<stop stop-color="#ECC4D7"/>
<stop offset="0.42" stop-color="#EFD4D1"/>
<stop offset="1" stop-color="#F2EAC9"/>
</linearGradient>
<linearGradient id="paint4_linear" x1="6216.68" y1="3929.29" x2="6691.76" y2="3929.29" gradientUnits="userSpaceOnUse">
<stop stop-color="#ECC4D7"/>
<stop offset="0.42" stop-color="#EFD4D1"/>
<stop offset="1" stop-color="#F2EAC9"/>
</linearGradient>
<linearGradient id="paint5_linear" x1="3934.42" y1="6061.26" x2="3657.02" y2="6141.02" gradientUnits="userSpaceOnUse">
<stop stop-opacity="0"/>
<stop offset="0.99"/>
</linearGradient>
<linearGradient id="paint6_linear" x1="15211.1" y1="32797.9" x2="-1426" y2="34915.8" gradientUnits="userSpaceOnUse">
<stop stop-opacity="0"/>
<stop offset="0.99"/>
</linearGradient>
<linearGradient id="paint7_linear" x1="15211.1" y1="32797.9" x2="-1426" y2="34915.8" gradientUnits="userSpaceOnUse">
<stop stop-opacity="0"/>
<stop offset="0.99"/>
</linearGradient>
<linearGradient id="paint8_linear" x1="422.363" y1="112.392" x2="488.335" y2="112.392" gradientUnits="userSpaceOnUse">
<stop stop-color="#ECC4D7"/>
<stop offset="0.42" stop-color="#EFD4D1"/>
<stop offset="1" stop-color="#F2EAC9"/>
</linearGradient>
<linearGradient id="paint9_linear" x1="19356.3" y1="36163.7" x2="21026.8" y2="36163.7" gradientUnits="userSpaceOnUse">
<stop stop-color="#ECC4D7"/>
<stop offset="0.42" stop-color="#EFD4D1"/>
<stop offset="1" stop-color="#F2EAC9"/>
</linearGradient>
<linearGradient id="paint10_linear" x1="16941.1" y1="29752" x2="17932.8" y2="29752" gradientUnits="userSpaceOnUse">
<stop stop-color="#ECC4D7"/>
<stop offset="0.42" stop-color="#EFD4D1"/>
<stop offset="1" stop-color="#F2EAC9"/>
</linearGradient>
<linearGradient id="paint11_linear" x1="7304.57" y1="12226.2" x2="5807.88" y2="12445.6" gradientUnits="userSpaceOnUse">
<stop stop-color="#ECC4D7"/>
<stop offset="0.42" stop-color="#EFD4D1"/>
<stop offset="1" stop-color="#F2EAC9"/>
</linearGradient>
</defs>
</svg>
