<svg width="1391" height="760" viewBox="0 0 1391 760" fill="none" xmlns="http://www.w3.org/2000/svg">
<path d="M2.00039 420C-27.5996 187.2 283.333 56 423 19C606.2 -17 479 148.333 510 152C517.333 234.667 807.4 220.2 441 233C74.6 245.8 80.667 375.333 215 431C308.334 479 505.2 597.8 546 689C586.8 780.2 428.334 764.333 344 745C242.334 733.667 31.6004 652.8 2.00039 420Z" fill="#DFE1E3"/>
<path d="M680 503C657.6 163 951.333 27.3333 1101 2C1341 -19.6 1393.67 270.333 1390 418C1328 613 1194 904.6 1154 511C1114 117.4 972 302.333 906 444C840 605.333 702.4 843 680 503Z" fill="#DFE1E3"/>
</svg>
