<svg width="697" height="164" viewBox="0 0 697 164" fill="none" xmlns="http://www.w3.org/2000/svg">
<g clip-path="url(#clip0)">
<path d="M99.2944 151.56C108.435 123.901 76.7794 113.708 59.8087 112.069C24.7489 110.911 26.3977 124.702 31.6047 131.742C11.9341 153.961 26.9763 162.505 36.9562 164H99.2944C106.006 160.413 102.091 154.212 99.2944 151.56Z" fill="white"/>
<path d="M275.372 159.454C271.987 149.349 283.711 145.624 289.997 145.025C302.982 144.602 302.371 149.641 300.443 152.213C307.728 160.332 302.157 163.454 298.461 164H275.372C272.887 162.689 274.337 160.423 275.372 159.454Z" fill="white"/>
<path d="M214.758 158.584C220.288 142.095 201.138 136.018 190.872 135.041C169.663 134.351 170.66 142.572 173.81 146.769C161.911 160.015 171.01 165.109 177.048 166H214.758C218.818 163.861 216.45 160.165 214.758 158.584Z" fill="white"/>
<path d="M677.948 164L593.161 163.471C591.364 152.81 605.065 146.408 612.14 144.54C612.858 130.072 625.766 126.314 632.129 126.243C652.433 123.959 657.958 138.335 658.183 145.809C675.253 144.371 678.472 157.337 677.948 164Z" fill="white"/>
<path d="M301.948 169L217.161 168.471C215.364 157.81 229.065 151.408 236.14 149.54C236.858 135.072 249.766 131.314 256.129 131.243C276.433 128.959 281.958 143.335 282.183 150.809C299.253 149.371 302.472 162.337 301.948 169Z" fill="white"/>
<path d="M471.948 169L387.161 168.471C385.364 157.81 399.065 151.408 406.14 149.54C406.858 135.072 419.766 131.314 426.129 131.243C446.433 128.959 451.958 143.335 452.183 150.809C469.253 149.371 472.472 162.337 471.948 169Z" fill="white"/>
<path d="M172.977 164L135.072 163.763C134.269 158.994 140.394 156.13 143.557 155.294C143.878 148.822 149.648 147.14 152.493 147.109C161.57 146.087 164.04 152.518 164.141 155.862C171.772 155.218 173.211 161.019 172.977 164Z" fill="white"/>
<path d="M419.965 166L362.11 165.708C360.884 159.816 370.232 156.278 375.06 155.246C375.55 147.25 384.358 145.173 388.7 145.134C402.554 143.872 406.325 151.817 406.478 155.947C418.125 155.152 420.322 162.318 419.965 166Z" fill="white"/>
<path d="M490.965 168L433.11 167.708C431.884 161.816 441.232 158.278 446.06 157.246C446.55 149.25 455.358 147.173 459.7 147.134C473.554 145.872 477.325 153.817 477.478 157.947C489.125 157.152 491.322 164.318 490.965 168Z" fill="white"/>
<path d="M371.971 164L324.091 163.763C323.076 158.994 330.813 156.13 334.808 155.294C335.214 148.822 342.503 147.14 346.097 147.109C357.562 146.087 360.682 152.518 360.809 155.862C370.449 155.218 372.267 161.019 371.971 164Z" fill="white"/>
<path d="M509.971 167L462.091 166.763C461.076 161.994 468.813 159.13 472.808 158.294C473.214 151.822 480.503 150.14 484.097 150.109C495.562 149.087 498.682 155.518 498.809 158.862C508.449 158.218 510.267 164.019 509.971 167Z" fill="white"/>
<path d="M696.971 164L649.091 163.763C648.076 158.994 655.813 156.13 659.808 155.294C660.214 148.822 667.503 147.14 671.097 147.109C682.562 146.087 685.682 152.518 685.809 155.862C695.449 155.218 697.267 161.019 696.971 164Z" fill="white"/>
<path d="M600.971 164L553.091 163.763C552.076 158.994 559.813 156.13 563.808 155.294C564.214 148.822 571.503 147.14 575.097 147.109C586.562 146.087 589.682 152.518 589.809 155.862C599.449 155.218 601.267 161.019 600.971 164Z" fill="white"/>
<path d="M532.971 164L485.091 163.763C484.076 158.994 491.813 156.13 495.808 155.294C496.214 148.822 503.503 147.14 507.097 147.109C518.562 146.087 521.682 152.518 521.809 155.862C531.449 155.218 533.267 161.019 532.971 164Z" fill="white"/>
<path d="M249.965 168L192.11 167.708C190.884 161.816 200.232 158.278 205.06 157.246C205.55 149.25 214.358 147.173 218.7 147.134C232.554 145.872 236.325 153.817 236.478 157.947C248.125 157.152 250.322 164.318 249.965 168Z" fill="white"/>
<path d="M331.965 166L274.11 165.708C272.884 159.816 282.232 156.278 287.06 155.246C287.55 147.25 296.358 145.173 300.7 145.134C314.554 143.872 318.325 151.817 318.478 155.947C330.125 155.152 332.322 162.318 331.965 166Z" fill="white"/>
<path d="M84.948 164L0.160847 163.471C-1.63597 152.81 12.0647 146.408 19.1397 144.54C19.8584 130.072 32.7655 126.314 39.1293 126.243C59.4333 123.959 64.9585 138.335 65.1831 145.809C82.2528 144.371 85.4721 157.337 84.948 164Z" fill="white"/>
<path d="M145.948 164L61.1608 163.471C59.364 152.81 73.0647 146.408 80.1397 144.54C80.8584 130.072 93.7655 126.314 100.129 126.243C120.433 123.959 125.958 138.335 126.183 145.809C143.253 144.371 146.472 157.337 145.948 164Z" fill="white"/>
<path d="M584.948 183L500.161 182.471C498.364 171.81 512.065 165.408 519.14 163.54C519.858 149.072 532.766 145.314 539.129 145.243C559.433 142.959 564.958 157.335 565.183 164.809C582.253 163.371 585.472 176.337 584.948 183Z" fill="white"/>
<path d="M584.948 183L500.161 182.471C498.364 171.81 512.065 165.408 519.14 163.54C519.858 149.072 532.766 145.314 539.129 145.243C559.433 142.959 564.958 157.335 565.183 164.809C582.253 163.371 585.472 176.337 584.948 183Z" fill="white"/>
</g>
<defs>
<clipPath id="clip0">
<rect width="697" height="164" fill="white"/>
</clipPath>
</defs>
</svg>
