<svg width="512" height="622" viewBox="0 0 512 622" fill="none" xmlns="http://www.w3.org/2000/svg">
<path d="M0 0H512V512H0V0Z" fill="#CFEFFC"/>
<path d="M0 340.5C2.3 339.333 4.85 338.75 7.65 338.75C10.4167 338.75 12.95 339.317 15.25 340.45C20.6833 338.017 26.65 336.8 33.15 336.8H33.95C34.55 333.933 36.0333 331.4 38.4 329.2C41.5667 326.233 45.4167 324.75 49.95 324.75C53.1833 324.75 56.0833 325.5 58.65 327L62.75 322.6C66.2833 319.3 70.15 316.717 74.35 314.85C74.5833 313.583 74.9833 312.367 75.55 311.2C74.75 309.6 74.2833 307.9 74.15 306.1L74.1 304.8V304.15C74.2667 300.217 75.85 296.85 78.85 294.05C82.05 291.083 85.9 289.6 90.4 289.6L93.95 289.95C95.9833 285.75 98.8833 281.9 102.65 278.4C110.817 270.8 120.683 267 132.25 267C138.95 267 145.083 268.283 150.65 270.85C153.15 269.35 156.017 268.6 159.25 268.6C163.75 268.6 167.6 270.083 170.8 273.05C173.667 275.717 175.25 278.883 175.55 282.55L179.85 282.05C184.383 282.05 188.25 283.533 191.45 286.5C193.017 287.933 194.183 289.55 194.95 291.35C206.483 291.35 216.317 295.15 224.45 302.75C227.05 305.183 229.233 307.783 231 310.55L231.3 310.2C234.5 307.233 238.367 305.75 242.9 305.75C247.433 305.75 251.283 307.233 254.45 310.2C256.583 312.2 258 314.483 258.7 317.05L261.6 316.95L270.4 317.8C271.033 314.933 272.517 312.417 274.85 310.25C278.05 307.283 281.9 305.8 286.4 305.8C290.2 305.8 293.517 306.833 296.35 308.9C301.883 304.233 308.183 301.217 315.25 299.85C315.95 297.25 317.4 294.933 319.6 292.9C322.767 289.933 326.617 288.45 331.15 288.45C335.65 288.45 339.5 289.933 342.7 292.9C344.7 294.767 346.083 296.883 346.85 299.25L349.7 299C354.2 299 358.05 300.483 361.25 303.45C364.317 306.317 365.917 309.733 366.05 313.7V314.25V314.6L366 315.65L365.95 315.9H366C368.167 314.9 370.533 314.4 373.1 314.4C377.633 314.4 381.483 315.883 384.65 318.85L385.15 319.35L391.65 318.9C402.683 318.9 412.15 322.35 420.05 329.25L421.4 327.85C424.6 324.883 428.45 323.4 432.95 323.4C437.483 323.4 441.333 324.883 444.5 327.85C446.3 329.483 447.583 331.317 448.35 333.35C451.517 332.083 454.883 331.233 458.45 330.8C459.05 326.667 460.9 323.067 464 320C466.233 317.767 468.717 316.183 471.45 315.25C473.483 314.517 475.667 314.15 478 314.15C483.433 314.15 488.1 316.1 492 320C492.933 320.933 493.75 321.917 494.45 322.95C498.95 323.417 502.867 325.317 506.2 328.65C509.933 332.383 511.867 336.867 512 342.1V466.4H0V340.5Z" fill="#DEF5FF"/>
<path d="M512 370.5V496.4H0V372.1C0.133333 366.867 2.06667 362.383 5.8 358.65C9.13333 355.317 13.05 353.417 17.55 352.95C18.25 351.917 19.0667 350.933 20 350C23.9 346.1 28.5667 344.15 34 344.15C36.3333 344.15 38.5167 344.517 40.55 345.25C43.2833 346.183 45.7667 347.767 48 350C51.1 353.067 52.95 356.667 53.55 360.8C57.1167 361.233 60.4833 362.083 63.65 363.35C64.4167 361.317 65.7 359.483 67.5 357.85C70.6667 354.883 74.5167 353.4 79.05 353.4C83.55 353.4 87.4 354.883 90.6 357.85L91.95 359.25C99.85 352.35 109.317 348.9 120.35 348.9L126.85 349.35L127.35 348.85C130.517 345.883 134.367 344.4 138.9 344.4C141.467 344.4 143.833 344.9 146 345.9H146.05L146 345.65L145.95 344.6V344.25V343.7C146.083 339.733 147.683 336.317 150.75 333.45C153.95 330.483 157.8 329 162.3 329L165.15 329.25C165.917 326.883 167.3 324.767 169.3 322.9C172.5 319.933 176.35 318.45 180.85 318.45C185.383 318.45 189.233 319.933 192.4 322.9C194.6 324.933 196.05 327.25 196.75 329.85C203.817 331.217 210.117 334.233 215.65 338.9C218.483 336.833 221.8 335.8 225.6 335.8C230.1 335.8 233.95 337.283 237.15 340.25C239.483 342.417 240.967 344.933 241.6 347.8L250.4 346.95L253.3 347.05C254 344.483 255.417 342.2 257.55 340.2C260.717 337.233 264.567 335.75 269.1 335.75C273.633 335.75 277.5 337.233 280.7 340.2L281 340.55C282.767 337.783 284.95 335.183 287.55 332.75C295.683 325.15 305.517 321.35 317.05 321.35C317.817 319.55 318.983 317.933 320.55 316.5C323.75 313.533 327.617 312.05 332.15 312.05L336.45 312.55C336.75 308.883 338.333 305.717 341.2 303.05C344.4 300.083 348.25 298.6 352.75 298.6C355.983 298.6 358.85 299.35 361.35 300.85C366.917 298.283 373.05 297 379.75 297C391.317 297 401.183 300.8 409.35 308.4C413.117 311.9 416.017 315.75 418.05 319.95L421.6 319.6C426.1 319.6 429.95 321.083 433.15 324.05C436.15 326.85 437.733 330.217 437.9 334.15V334.8L437.85 336.1C437.717 337.9 437.25 339.6 436.45 341.2C437.017 342.367 437.417 343.583 437.65 344.85C441.85 346.717 445.717 349.3 449.25 352.6C450.75 354 452.117 355.467 453.35 357C455.917 355.5 458.817 354.75 462.05 354.75C466.583 354.75 470.433 356.233 473.6 359.2C475.967 361.4 477.45 363.933 478.05 366.8H478.85C485.35 366.8 491.317 368.017 496.75 370.45C499.05 369.317 501.583 368.75 504.35 368.75C507.15 368.75 509.7 369.333 512 370.5Z" fill="url(#paint0_linear)"/>
<path d="M511.95 416.55V512.3H0V416.55C11.6333 418.583 23.0667 420.867 34.3 423.4C53.9333 427.8 74.0167 428.133 94.55 424.4C113.583 420.933 132.817 417.783 152.25 414.95C172.217 412.017 192.433 411.533 212.9 413.5C233.333 415.5 252.85 418.667 271.45 423C290.283 427.4 310.2 429.633 331.2 429.7C352.2 429.767 372.517 428.05 392.15 424.55C411.183 421.117 430.583 418.25 450.35 415.95C471.017 413.583 491.55 413.783 511.95 416.55Z" fill="#EAF8FD"/>
<path d="M512 495.5V621.4H0V497.1C0.133333 491.867 2.06667 487.383 5.8 483.65C9.13333 480.317 13.05 478.417 17.55 477.95C18.25 476.917 19.0667 475.933 20 475C23.9 471.1 28.5667 469.15 34 469.15C36.3333 469.15 38.5167 469.517 40.55 470.25C43.2833 471.183 45.7667 472.767 48 475C51.1 478.067 52.95 481.667 53.55 485.8C57.1167 486.233 60.4833 487.083 63.65 488.35C64.4167 486.317 65.7 484.483 67.5 482.85C70.6667 479.883 74.5167 478.4 79.05 478.4C83.55 478.4 87.4 479.883 90.6 482.85L91.95 484.25C99.85 477.35 109.317 473.9 120.35 473.9L126.85 474.35L127.35 473.85C130.517 470.883 134.367 469.4 138.9 469.4C141.467 469.4 143.833 469.9 146 470.9H146.05L146 470.65L145.95 469.6V469.25V468.7C146.083 464.733 147.683 461.317 150.75 458.45C153.95 455.483 157.8 454 162.3 454L165.15 454.25C165.917 451.883 167.3 449.767 169.3 447.9C172.5 444.933 176.35 443.45 180.85 443.45C185.383 443.45 189.233 444.933 192.4 447.9C194.6 449.933 196.05 452.25 196.75 454.85C203.817 456.217 210.117 459.233 215.65 463.9C218.483 461.833 221.8 460.8 225.6 460.8C230.1 460.8 233.95 462.283 237.15 465.25C239.483 467.417 240.967 469.933 241.6 472.8L250.4 471.95L253.3 472.05C254 469.483 255.417 467.2 257.55 465.2C260.717 462.233 264.567 460.75 269.1 460.75C273.633 460.75 277.5 462.233 280.7 465.2L281 465.55C282.767 462.783 284.95 460.183 287.55 457.75C295.683 450.15 305.517 446.35 317.05 446.35C317.817 444.55 318.983 442.933 320.55 441.5C323.75 438.533 327.617 437.05 332.15 437.05L336.45 437.55C336.75 433.883 338.333 430.717 341.2 428.05C344.4 425.083 348.25 423.6 352.75 423.6C355.983 423.6 358.85 424.35 361.35 425.85C366.917 423.283 373.05 422 379.75 422C391.317 422 401.183 425.8 409.35 433.4C413.117 436.9 416.017 440.75 418.05 444.95L421.6 444.6C426.1 444.6 429.95 446.083 433.15 449.05C436.15 451.85 437.733 455.217 437.9 459.15V459.8L437.85 461.1C437.717 462.9 437.25 464.6 436.45 466.2C437.017 467.367 437.417 468.583 437.65 469.85C441.85 471.717 445.717 474.3 449.25 477.6C450.75 479 452.117 480.467 453.35 482C455.917 480.5 458.817 479.75 462.05 479.75C466.583 479.75 470.433 481.233 473.6 484.2C475.967 486.4 477.45 488.933 478.05 491.8H478.85C485.35 491.8 491.317 493.017 496.75 495.45C499.05 494.317 501.583 493.75 504.35 493.75C507.15 493.75 509.7 494.333 512 495.5Z" fill="white"/>
<defs>
<linearGradient id="paint0_linear" x1="256" y1="298.75" x2="256" y2="494.65" gradientUnits="userSpaceOnUse">
<stop stop-color="white"/>
<stop offset="1" stop-color="#CFEFFC"/>
</linearGradient>
</defs>
</svg>
