<svg width="512" height="513" viewBox="0 0 512 513" fill="none" xmlns="http://www.w3.org/2000/svg">
<path d="M0 0H512V512H0V0Z" fill="#CFEFFC"/>
<path d="M0 340.5C2.3 339.333 4.85 338.75 7.65 338.75C10.4167 338.75 12.95 339.317 15.25 340.45C20.6833 338.017 26.65 336.8 33.15 336.8H33.95C34.55 333.933 36.0333 331.4 38.4 329.2C41.5667 326.233 45.4167 324.75 49.95 324.75C53.1833 324.75 56.0833 325.5 58.65 327L62.75 322.6C66.2833 319.3 70.15 316.717 74.35 314.85C74.5833 313.583 74.9833 312.367 75.55 311.2C74.75 309.6 74.2833 307.9 74.15 306.1L74.1 304.8V304.15C74.2667 300.217 75.85 296.85 78.85 294.05C82.05 291.083 85.9 289.6 90.4 289.6L93.95 289.95C95.9833 285.75 98.8833 281.9 102.65 278.4C110.817 270.8 120.683 267 132.25 267C138.95 267 145.083 268.283 150.65 270.85C153.15 269.35 156.017 268.6 159.25 268.6C163.75 268.6 167.6 270.083 170.8 273.05C173.667 275.717 175.25 278.883 175.55 282.55L179.85 282.05C184.383 282.05 188.25 283.533 191.45 286.5C193.017 287.933 194.183 289.55 194.95 291.35C206.483 291.35 216.317 295.15 224.45 302.75C227.05 305.183 229.233 307.783 231 310.55L231.3 310.2C234.5 307.233 238.367 305.75 242.9 305.75C247.433 305.75 251.283 307.233 254.45 310.2C256.583 312.2 258 314.483 258.7 317.05L261.6 316.95L270.4 317.8C271.033 314.933 272.517 312.417 274.85 310.25C278.05 307.283 281.9 305.8 286.4 305.8C290.2 305.8 293.517 306.833 296.35 308.9C301.883 304.233 308.183 301.217 315.25 299.85C315.95 297.25 317.4 294.933 319.6 292.9C322.767 289.933 326.617 288.45 331.15 288.45C335.65 288.45 339.5 289.933 342.7 292.9C344.7 294.767 346.083 296.883 346.85 299.25L349.7 299C354.2 299 358.05 300.483 361.25 303.45C364.317 306.317 365.917 309.733 366.05 313.7V314.25V314.6L366 315.65L365.95 315.9H366C368.167 314.9 370.533 314.4 373.1 314.4C377.633 314.4 381.483 315.883 384.65 318.85L385.15 319.35L391.65 318.9C402.683 318.9 412.15 322.35 420.05 329.25L421.4 327.85C424.6 324.883 428.45 323.4 432.95 323.4C437.483 323.4 441.333 324.883 444.5 327.85C446.3 329.483 447.583 331.317 448.35 333.35C451.517 332.083 454.883 331.233 458.45 330.8C459.05 326.667 460.9 323.067 464 320C466.233 317.767 468.717 316.183 471.45 315.25C473.483 314.517 475.667 314.15 478 314.15C483.433 314.15 488.1 316.1 492 320C492.933 320.933 493.75 321.917 494.45 322.95C498.95 323.417 502.867 325.317 506.2 328.65C509.933 332.383 511.867 336.867 512 342.1V466.4H0V340.5Z" fill="#DEF5FF"/>
<path d="M512 370.5V496.4H0V372.1C0.133333 366.867 2.06667 362.383 5.8 358.65C9.13333 355.317 13.05 353.417 17.55 352.95C18.25 351.917 19.0667 350.933 20 350C23.9 346.1 28.5667 344.15 34 344.15C36.3333 344.15 38.5167 344.517 40.55 345.25C43.2833 346.183 45.7667 347.767 48 350C51.1 353.067 52.95 356.667 53.55 360.8C57.1167 361.233 60.4833 362.083 63.65 363.35C64.4167 361.317 65.7 359.483 67.5 357.85C70.6667 354.883 74.5167 353.4 79.05 353.4C83.55 353.4 87.4 354.883 90.6 357.85L91.95 359.25C99.85 352.35 109.317 348.9 120.35 348.9L126.85 349.35L127.35 348.85C130.517 345.883 134.367 344.4 138.9 344.4C141.467 344.4 143.833 344.9 146 345.9H146.05L146 345.65L145.95 344.6V344.25V343.7C146.083 339.733 147.683 336.317 150.75 333.45C153.95 330.483 157.8 329 162.3 329L165.15 329.25C165.917 326.883 167.3 324.767 169.3 322.9C172.5 319.933 176.35 318.45 180.85 318.45C185.383 318.45 189.233 319.933 192.4 322.9C194.6 324.933 196.05 327.25 196.75 329.85C203.817 331.217 210.117 334.233 215.65 338.9C218.483 336.833 221.8 335.8 225.6 335.8C230.1 335.8 233.95 337.283 237.15 340.25C239.483 342.417 240.967 344.933 241.6 347.8L250.4 346.95L253.3 347.05C254 344.483 255.417 342.2 257.55 340.2C260.717 337.233 264.567 335.75 269.1 335.75C273.633 335.75 277.5 337.233 280.7 340.2L281 340.55C282.767 337.783 284.95 335.183 287.55 332.75C295.683 325.15 305.517 321.35 317.05 321.35C317.817 319.55 318.983 317.933 320.55 316.5C323.75 313.533 327.617 312.05 332.15 312.05L336.45 312.55C336.75 308.883 338.333 305.717 341.2 303.05C344.4 300.083 348.25 298.6 352.75 298.6C355.983 298.6 358.85 299.35 361.35 300.85C366.917 298.283 373.05 297 379.75 297C391.317 297 401.183 300.8 409.35 308.4C413.117 311.9 416.017 315.75 418.05 319.95L421.6 319.6C426.1 319.6 429.95 321.083 433.15 324.05C436.15 326.85 437.733 330.217 437.9 334.15V334.8L437.85 336.1C437.717 337.9 437.25 339.6 436.45 341.2C437.017 342.367 437.417 343.583 437.65 344.85C441.85 346.717 445.717 349.3 449.25 352.6C450.75 354 452.117 355.467 453.35 357C455.917 355.5 458.817 354.75 462.05 354.75C466.583 354.75 470.433 356.233 473.6 359.2C475.967 361.4 477.45 363.933 478.05 366.8H478.85C485.35 366.8 491.317 368.017 496.75 370.45C499.05 369.317 501.583 368.75 504.35 368.75C507.15 368.75 509.7 369.333 512 370.5Z" fill="url(#paint0_linear)"/>
<path d="M511.95 416.55V512.3H0V416.55C11.6333 418.583 23.0667 420.867 34.3 423.4C53.9333 427.8 74.0167 428.133 94.55 424.4C113.583 420.933 132.817 417.783 152.25 414.95C172.217 412.017 192.433 411.533 212.9 413.5C233.333 415.5 252.85 418.667 271.45 423C290.283 427.4 310.2 429.633 331.2 429.7C352.2 429.767 372.517 428.05 392.15 424.55C411.183 421.117 430.583 418.25 450.35 415.95C471.017 413.583 491.55 413.783 511.95 416.55Z" fill="#EAF8FD"/>
<path d="M5.8 484.65C2.06667 488.383 0.133333 492.867 0 498.1V511.5H512V496.5C509.7 495.333 507.15 494.75 504.35 494.75C501.583 494.75 499.05 495.317 496.75 496.45C491.317 494.017 485.35 492.8 478.85 492.8H478.05C477.45 489.933 475.967 487.4 473.6 485.2C470.433 482.233 466.583 480.75 462.05 480.75C458.817 480.75 455.917 481.5 453.35 483C452.117 481.467 450.75 480 449.25 478.6C445.717 475.3 441.85 472.717 437.65 470.85C437.417 469.583 437.017 468.367 436.45 467.2C437.25 465.6 437.717 463.9 437.85 462.1L437.9 460.8V460.15C437.733 456.217 436.15 452.85 433.15 450.05C429.95 447.083 426.1 445.6 421.6 445.6L418.05 445.95C416.017 441.75 413.117 437.9 409.35 434.4C401.183 426.8 391.317 423 379.75 423C373.05 423 366.917 424.283 361.35 426.85C358.85 425.35 355.983 424.6 352.75 424.6C348.25 424.6 344.4 426.083 341.2 429.05C338.333 431.717 336.75 434.883 336.45 438.55L332.15 438.05C327.617 438.05 323.75 439.533 320.55 442.5C318.983 443.933 317.817 445.55 317.05 447.35C305.517 447.35 295.683 451.15 287.55 458.75C284.95 461.183 282.767 463.783 281 466.55L280.7 466.2C277.5 463.233 273.633 461.75 269.1 461.75C264.567 461.75 260.717 463.233 257.55 466.2C255.417 468.2 254 470.483 253.3 473.05L250.4 472.95L241.6 473.8C240.967 470.933 239.483 468.417 237.15 466.25C233.95 463.283 230.1 461.8 225.6 461.8C221.8 461.8 218.483 462.833 215.65 464.9C210.117 460.233 203.817 457.217 196.75 455.85C196.05 453.25 194.6 450.933 192.4 448.9C189.233 445.933 185.383 444.45 180.85 444.45C176.35 444.45 172.5 445.933 169.3 448.9C167.3 450.767 165.917 452.883 165.15 455.25L162.3 455C157.8 455 153.95 456.483 150.75 459.45C147.683 462.317 146.083 465.733 145.95 469.7V470.25V470.6L146 471.65L146.05 471.9H146C143.833 470.9 141.467 470.4 138.9 470.4C134.367 470.4 130.517 471.883 127.35 474.85L126.85 475.35L120.35 474.9C109.317 474.9 99.85 478.35 91.95 485.25L90.6 483.85C87.4 480.883 83.55 479.4 79.05 479.4C74.5167 479.4 70.6667 480.883 67.5 483.85C65.7 485.483 64.4167 487.317 63.65 489.35C60.4833 488.083 57.1167 487.233 53.55 486.8C52.95 482.667 51.1 479.067 48 476C45.7667 473.767 43.2833 472.183 40.55 471.25C38.5167 470.517 36.3333 470.15 34 470.15C28.5667 470.15 23.9 472.1 20 476C19.0667 476.933 18.25 477.917 17.55 478.95C13.05 479.417 9.13333 481.317 5.8 484.65Z" fill="white"/>
<defs>
<linearGradient id="paint0_linear" x1="256" y1="298.75" x2="256" y2="494.65" gradientUnits="userSpaceOnUse">
<stop stop-color="white"/>
<stop offset="1" stop-color="#CFEFFC"/>
</linearGradient>
</defs>
</svg>
