<svg width="120" height="106" viewBox="0 0 120 106" fill="none" xmlns="http://www.w3.org/2000/svg">
<path d="M45.016 75.08C39.688 75.08 35.08 74.144 31.192 72.272C27.352 70.352 24.4 67.616 22.336 64.064C20.272 60.512 19.24 56.288 19.24 51.392C19.24 46.256 20.32 41.72 22.48 37.784C24.688 33.848 27.76 30.8 31.696 28.64C35.68 26.48 40.264 25.4 45.448 25.4C48.424 25.4 51.232 25.736 53.872 26.408C56.56 27.08 58.936 28.04 61 29.288L58.48 37.928C56.608 36.776 54.52 35.888 52.216 35.264C49.912 34.592 47.656 34.256 45.448 34.256C42.28 34.256 39.472 34.952 37.024 36.344C34.624 37.688 32.752 39.608 31.408 42.104C30.112 44.552 29.464 47.408 29.464 50.672C29.464 55.472 30.904 59.264 33.784 62.048C36.712 64.784 40.696 66.152 45.736 66.152C47.752 66.152 49.624 66.008 51.352 65.72V55.784H45.304V47.36H60.928V72.272C55.984 74.144 50.68 75.08 45.016 75.08Z" fill="black"/>
<path d="M88.432 75.936C80.752 75.936 74.752 73.872 70.432 69.744C66.112 65.616 63.952 59.784 63.952 52.248C63.952 47.112 64.96 42.576 66.976 38.64C69.04 34.704 71.944 31.68 75.688 29.568C79.432 27.408 83.752 26.328 88.648 26.328C92.632 26.328 96.472 27.048 100.168 28.488L98.224 37.776C94.96 36.288 91.792 35.544 88.72 35.544C84.352 35.544 80.896 36.984 78.352 39.864C75.808 42.696 74.536 46.488 74.536 51.24C74.536 56.088 75.88 59.856 78.568 62.544C81.256 65.232 84.976 66.576 89.728 66.576C92.848 66.576 95.872 66.072 98.8 65.064L100.384 73.92C96.88 75.264 92.896 75.936 88.432 75.936Z" fill="black"/>
<path d="M0 16H10V34H0V16Z" fill="black"/>
<path d="M10 16V6H28V16H10Z" fill="black"/>
<path d="M0 16L0 6H18V16H0Z" fill="black"/>
<path d="M120 86H110V68H120V86Z" fill="black"/>
<path d="M110 86V96H92V86H110Z" fill="black"/>
<path d="M120 86V96H102V86H120Z" fill="black"/>
</svg>
