<svg xmlns="http://www.w3.org/2000/svg" fill="none" viewBox="0 6 672 88">
  <path fill="#22292f" d="M45.016 75.08c-5.328 0-9.936-.936-13.824-2.808-3.84-1.92-6.792-4.656-8.856-8.208-2.064-3.552-3.096-7.776-3.096-12.672 0-5.136 1.08-9.672 3.24-13.608 2.208-3.936 5.28-6.984 9.216-9.144 3.984-2.16 8.568-3.24 13.752-3.24 2.976 0 5.784.336 8.424 1.008 2.688.672 5.064 1.632 7.128 2.88l-2.52 8.64c-1.872-1.152-3.96-2.04-6.264-2.664-2.304-.672-4.56-1.008-6.768-1.008-3.168 0-5.976.696-8.424 2.088-2.4 1.344-4.272 3.264-5.616 5.76-1.296 2.448-1.944 5.304-1.944 8.568 0 4.8 1.44 8.592 4.32 11.376 2.928 2.736 6.912 4.104 11.952 4.104 2.016 0 3.888-.144 5.616-.432v-9.936h-6.048V47.36h15.624v24.912c-4.944 1.872-10.248 2.808-15.912 2.808zm38.626-49.032H96.17L113.954 74h-10.8l-3.888-10.944H80.402L76.73 74H66.074l17.568-47.952zm12.528 28.08l-6.48-18.36-6.264 18.36H96.17zm33.82-13.968L126.966 74h-9.288l4.536-47.952h12.96l12.24 34.416 11.88-34.416h12.96L176.646 74h-9.36l-3.312-33.696-12.672 34.2-8.568.792L129.99 40.16zm55.089-14.112h29.16v9.072h-18.864v9.576h15.624v8.784h-15.624v11.448h18.864V74h-29.16V26.048zM245.432 74.936c-7.68 0-13.68-2.064-18-6.192s-6.48-9.96-6.48-17.496c0-5.136 1.008-9.672 3.024-13.608 2.064-3.936 4.968-6.96 8.712-9.072 3.744-2.16 8.064-3.24 12.96-3.24 3.984 0 7.824.72 11.52 2.16l-1.944 9.288c-3.264-1.488-6.432-2.232-9.504-2.232-4.368 0-7.824 1.44-10.368 4.32-2.544 2.832-3.816 6.624-3.816 11.376 0 4.848 1.344 8.616 4.032 11.304 2.688 2.688 6.408 4.032 11.16 4.032 3.12 0 6.144-.504 9.072-1.512l1.584 8.856c-3.504 1.344-7.488 2.016-11.952 2.016zm41.186 0c-4.704 0-8.856-1.032-12.456-3.096-3.6-2.064-6.408-4.968-8.424-8.712-1.968-3.744-2.952-8.04-2.952-12.888 0-4.896.984-9.216 2.952-12.96 1.968-3.744 4.752-6.648 8.352-8.712 3.6-2.064 7.776-3.096 12.528-3.096 4.704 0 8.856 1.032 12.456 3.096 3.6 2.016 6.384 4.872 8.352 8.568 1.968 3.696 2.952 7.968 2.952 12.816 0 4.944-.984 9.312-2.952 13.104-1.968 3.744-4.752 6.672-8.352 8.784-3.6 2.064-7.752 3.096-12.456 3.096zm0-9.144c3.936 0 7.08-1.416 9.432-4.248 2.4-2.832 3.6-6.6 3.6-11.304 0-3.072-.552-5.784-1.656-8.136-1.056-2.4-2.592-4.224-4.608-5.472-1.968-1.296-4.224-1.944-6.768-1.944-2.544 0-4.824.648-6.84 1.944-1.968 1.248-3.504 3.072-4.608 5.472-1.056 2.352-1.584 5.064-1.584 8.136 0 3.072.528 5.784 1.584 8.136 1.104 2.352 2.64 4.176 4.608 5.472 1.968 1.296 4.248 1.944 6.84 1.944zm42.207-25.632L325.801 74h-9.288l4.536-47.952h12.96l12.24 34.416 11.88-34.416h12.96L375.481 74h-9.36l-3.312-33.696-12.672 34.2-8.568.792-12.744-35.136zm55.09-14.112c1.392-.048 4.032-.072 7.92-.072 3.936 0 6.6.024 7.992.072 4.944.096 8.832 1.416 11.664 3.96 2.832 2.544 4.248 6.072 4.248 10.584 0 3.216-.72 6.072-2.16 8.568-1.44 2.448-3.48 4.344-6.12 5.688-2.592 1.344-5.544 2.016-8.856 2.016h-4.68V74h-10.008V26.048zm14.256 22.32c2.352 0 4.176-.672 5.472-2.016 1.344-1.344 2.016-3.168 2.016-5.472 0-4.224-2.328-6.336-6.984-6.336h-4.752v13.824h4.248zm47.846 26.568c-4.704 0-8.856-1.032-12.456-3.096-3.6-2.064-6.408-4.968-8.424-8.712-1.968-3.744-2.952-8.04-2.952-12.888 0-4.896.984-9.216 2.952-12.96 1.968-3.744 4.752-6.648 8.352-8.712 3.6-2.064 7.776-3.096 12.528-3.096 4.704 0 8.856 1.032 12.456 3.096 3.6 2.016 6.384 4.872 8.352 8.568 1.968 3.696 2.952 7.968 2.952 12.816 0 4.944-.984 9.312-2.952 13.104-1.968 3.744-4.752 6.672-8.352 8.784-3.6 2.064-7.752 3.096-12.456 3.096zm0-9.144c3.936 0 7.08-1.416 9.432-4.248 2.4-2.832 3.6-6.6 3.6-11.304 0-3.072-.552-5.784-1.656-8.136-1.056-2.4-2.592-4.224-4.608-5.472-1.968-1.296-4.224-1.944-6.768-1.944-2.544 0-4.824.648-6.84 1.944-1.968 1.248-3.504 3.072-4.608 5.472-1.056 2.352-1.584 5.064-1.584 8.136 0 3.072.528 5.784 1.584 8.136 1.104 2.352 2.64 4.176 4.608 5.472 1.968 1.296 4.248 1.944 6.84 1.944zm31.695-39.744h12.24l19.872 33.624V26.048h9.576V74h-12.096l-20.016-33.84V74h-9.576V26.048zm51.75 0h29.16v9.072h-18.864v9.576h15.624v8.784h-15.624v11.448h18.864V74h-29.16V26.048zm38.18 0h12.24l19.872 33.624V26.048h9.576V74h-12.096l-20.016-33.84V74h-9.576V26.048zm61.974 9.072h-13.104v-9.072h36.576v9.072h-12.96V74h-10.512V35.12zM0 16h10v18H0V16zM10 16V6h18v10H10z"/>
  <path fill="#22292f" d="M0 16V6h18v10H0zM672 84h-10V66h10v18zM662 84v10h-18V84h18z"/>
  <path fill="#22292f" d="M672 84v10h-18V84h18z"/>
</svg>
