<?xml version="1.0" standalone="no"?>
<!DOCTYPE svg PUBLIC "-//W3C//DTD SVG 20010904//EN"
 "http://www.w3.org/TR/2001/REC-SVG-20010904/DTD/svg10.dtd">
<svg version="1.0" xmlns="http://www.w3.org/2000/svg"
 width="162.000000pt" height="162.000000pt" viewBox="0 0 162.000000 162.000000"
 preserveAspectRatio="xMidYMid meet">
<metadata>
Created by potrace 1.11, written by Peter Selinger 2001-2013
</metadata>
<g transform="translate(0.000000,162.000000) scale(0.100000,-0.100000)"
fill="#000000" stroke="none">
<path d="M0 810 l0 -810 810 0 810 0 0 810 0 810 -810 0 -810 0 0 -810z m490
420 l0 -50 -90 0 -90 0 0 -90 0 -90 -50 0 -50 0 0 140 0 140 140 0 140 0 0
-50z m278 -162 c23 -6 45 -14 47 -18 4 -6 -12 -67 -20 -78 -1 -1 -30 5 -63 14
-131 36 -225 -27 -225 -152 0 -97 59 -154 160 -154 l53 0 0 50 c0 49 -1 50
-31 50 -29 0 -30 1 -27 43 l3 42 78 3 77 3 0 -126 0 -125 -27 -12 c-16 -6 -73
-12 -128 -12 -84 -1 -106 2 -140 21 -81 43 -118 107 -119 203 0 82 17 132 62
182 73 81 164 101 300 66z m392 1 l52 -11 -7 -37 c-9 -49 -14 -52 -66 -43 -91
17 -160 -24 -177 -104 -28 -132 55 -220 188 -196 l49 9 6 -39 c4 -22 3 -44 -2
-49 -5 -5 -37 -12 -70 -15 -114 -12 -214 30 -255 109 -32 60 -33 193 -1 253
37 69 91 108 178 127 35 8 53 7 105 -4z m250 -549 l0 -140 -140 0 -140 0 0 50
0 50 90 0 90 0 0 90 0 90 50 0 50 0 0 -140z"/>
</g>
</svg>
