<svg width="1715" height="641" viewBox="0 0 1715 641" fill="none" xmlns="http://www.w3.org/2000/svg">
<path d="M305.943 0C277.616 1.60086 253.385 5.70703 228.656 13.1868C159.823 33.989 101.017 76.0275 59.5792 134.038C38.1286 164.17 22.0057 197.76 11.9122 233.346C5.58315 255.957 2.2197 275.647 0.311933 301.478C-0.103978 307.076 -0.103978 334.038 0.311933 339.935C1.43646 357.31 3.91535 374.571 7.726 391.56C21.1826 450.563 51.0079 504.571 93.7743 547.378C113.967 567.648 136.826 585.071 161.722 599.166C201.49 621.77 245.615 635.645 291.16 639.866C300.157 640.707 303.511 640.843 316.911 640.961C331.006 641.078 336.856 640.961 345.843 640.219C382.098 637.316 417.595 628.266 450.816 613.457C456.078 611.123 468.854 604.81 474.233 601.871C493.26 591.5 511.195 579.24 527.768 565.277C541.229 553.737 553.782 541.18 565.318 527.715C599.113 487.585 622.608 439.811 633.762 388.54C639.359 362.664 641.52 339.103 640.896 311.345C639.938 270.437 631.041 230.85 614.034 191.588C601.074 162.173 583.822 134.844 562.84 110.496C552.014 98.0772 540.292 86.4693 527.768 75.7652C477.368 33.1764 415.106 7.10132 349.406 1.06724C339.994 0.1628 337.362 0.0904447 322.489 0.0180893C314.171 4.14425e-07 306.73 0 305.943 0ZM341.594 40.9803C379.388 43.9559 413.42 53.2717 446.331 69.7326C482.431 87.7637 514.181 113.428 539.383 144.949C564.585 176.47 582.637 213.094 592.289 252.285C596.882 270.772 599.423 289.187 600.372 311.074C600.887 322.913 599.956 340.233 597.994 355.148C591.15 407.279 569.696 456.408 536.114 496.856C525.789 509.189 514.464 520.648 502.253 531.116C461.083 566.071 410.656 588.321 357.091 595.169C345.431 596.73 333.674 597.462 321.911 597.357C313.352 597.457 304.795 597.083 296.278 596.236C252.961 592.209 211.187 578.098 174.298 555.029C156.361 543.846 139.784 530.612 124.904 515.596C90.7097 481.341 66.0327 438.76 53.3076 392.054C40.5825 345.349 40.2489 296.132 52.3397 249.258C64.4305 202.384 88.528 159.473 122.255 124.757C155.982 90.0408 198.174 64.7197 244.669 51.291C265.136 45.4155 286.2 41.8628 307.462 40.6999C313.24 40.3834 336.169 40.5914 341.594 41.0165V40.9803Z" fill="#8795A1"/>
<path d="M281.665 126.206C280.9 126.481 280.12 126.713 279.329 126.902C276.27 127.716 270.839 129.352 265.679 131.051C242.933 138.477 221.34 149.048 201.529 162.455C174.582 180.535 147.762 204.942 117.692 238.633C97.2107 261.606 82.3206 285.043 73.0214 308.944C64.5037 330.821 60.6838 353.42 62.4037 371.662C62.5394 373.063 62.7295 374.6 62.82 375.043L63.0101 375.857L63.2636 375.224C64.1687 372.937 68.8123 364.069 71.7813 358.844C85.0195 335.742 100.937 314.279 119.203 294.897C133.035 280.062 144.06 271.104 154.759 265.888C161.502 262.625 167.703 261.178 172.555 261.766C177.126 262.326 179.95 263.655 182.837 266.566C184.797 268.462 186.221 270.842 186.965 273.463L187.499 275.208L187.571 351.739C187.617 401.71 187.571 429.083 187.409 430.592C187.262 433.023 186.628 435.399 185.544 437.58C182.674 443.61 175.931 446.475 166.535 445.662C162.94 445.285 159.386 444.583 155.917 443.564C155.012 443.284 154.514 443.212 154.614 443.375C154.714 443.537 155.293 444.351 155.917 445.264C162.453 454.349 172.781 464.627 183.471 472.564C211.74 493.672 254.075 509.256 299.334 515.268L304.928 516L306.213 514.626C306.91 513.885 310.205 510.386 313.536 506.87C323.004 496.854 324.615 495.118 338.356 480.564C345.47 473.016 351.417 466.824 351.535 466.824C351.653 466.824 354.45 469.057 357.717 471.832L381.859 492.189L395.038 503.344C395.346 503.579 395.997 503.254 398.659 501.618C411.745 493.549 424.081 484.325 435.517 474.056C440.251 469.861 453.621 456.491 458.047 451.456C470.949 437.039 482.621 421.569 492.942 405.209C499.278 395.265 506.565 382.194 509.923 374.926L511 372.593L504.519 379.021C492.2 391.179 483.13 398.827 473.055 405.372C456.327 416.319 442.406 419.835 431.879 415.785C429.511 414.857 427.356 413.461 425.542 411.681L424.501 410.533L424.338 407.876C423.868 399.912 423.433 382.618 422.872 351.151C422.383 323.056 422.311 254.724 422.754 243.054C423.125 232.947 423.451 227.514 423.85 224.604C424.176 222.253 424.221 222.154 426.14 218.899C431.182 210.33 437.5 201.1 447.04 188.454C455.558 177.109 469.48 159.68 478.649 148.823C479.672 147.612 480.677 146.401 480.867 146.166C481.22 145.75 481.193 145.723 480.188 145.885C475.083 146.654 461.921 150.098 453.241 152.945C418.319 164.336 384.167 185.281 360.605 209.697L357.102 213.313L355.979 212.517C349.281 207.763 335.939 204.779 322.361 204.996L317.926 205.069L319.465 206.027C324.244 209.082 329.331 214.343 333.368 220.491C337.36 226.48 340.208 233.155 341.768 240.179L342.42 243.045L342.465 325.162L342.538 407.279L339.551 409.629C326.018 420.368 312.558 427.591 301.832 429.896C292.011 431.994 282.823 429.806 275.473 423.569C272.226 420.65 269.544 417.16 267.562 413.272L266.72 411.618V313.157C266.72 259.018 266.648 214.75 266.557 214.804C261.778 217.227 260.022 217.788 256.899 217.788C255.275 217.847 253.657 217.545 252.164 216.904C250.671 216.263 249.338 215.299 248.263 214.081C245.602 211.369 244.018 208.26 242.66 202.899C241.61 198.822 241.257 195.667 241.122 189.132C240.986 182.261 241.257 179.414 242.543 174.406C244.402 167.364 247.514 160.713 251.73 154.771C258.329 145.153 268.53 135.318 279.42 128.095C280.841 127.191 282.081 126.287 282.217 126.188C282.533 125.926 282.135 125.944 281.665 126.206Z" fill="#8795A1"/>
<path d="M530.459 165.706C528.626 167.752 526.415 169.425 523.947 170.633C519.158 173.052 514.351 173.865 504.304 173.982C500.697 174.027 500.074 174.072 499.723 174.424C499.515 174.632 490.307 187.754 479.268 203.566L459.165 232.312L458.091 240.66C457.487 245.245 457 249.08 457 249.171C457 249.261 466.831 249.36 478.844 249.36H500.715L500.579 250.1C500.39 251.264 497.675 273.123 497.675 273.611C497.675 274.098 498.37 274.008 510.04 273.963L522.432 273.891L522.685 271.914C522.847 270.822 522.991 269.586 522.991 269.206V268.466H520.818C519.213 268.466 518.608 268.394 518.608 268.16C518.608 267.925 518.978 265.109 519.42 261.716C519.862 258.322 520.394 254.152 520.628 252.456L520.998 249.387H532.948L533.345 245.949C534.554 235.669 534.905 232.97 534.996 232.691C535.086 232.411 533.814 232.411 529.187 232.411C527.186 232.475 525.183 232.412 523.19 232.221C523.118 232.131 523.587 228.286 524.209 223.683C524.831 219.081 525.724 212.637 526.157 209.379C526.59 206.12 528.159 194.613 529.647 183.792C531.135 172.971 532.299 164.09 532.272 164C531.6 164.492 530.991 165.065 530.459 165.706V165.706ZM506.054 203.314C505.405 208.729 504.566 215.877 504.196 219.126C503.826 222.375 503.294 226.689 503.078 228.665L502.681 232.275L491.57 232.348C482.199 232.393 480.458 232.348 480.53 232.068C480.603 231.788 507.046 193.26 507.145 193.386C507.244 193.512 506.685 197.899 506.054 203.314V203.314Z" fill="#8795A1"/>
<path d="M808.07 257.03C808.17 300.66 808.12 299.45 809.67 305.84C813.28 320.94 824.08 327.51 848.94 329.76C857.21 330.51 866.7 330.76 882.47 330.61C901.13 330.46 908.11 330.02 917.13 328.47C935.38 325.33 943.85 318.19 946.35 303.88C947.35 298.13 947.41 296.05 947.41 256V217H913.91V250.81C913.91 271.38 913.81 285.81 913.65 287.59C912.65 298.23 909.11 302.1 898.57 303.83C897.72 303.98 895.45 304.24 893.57 304.42C888.91 304.83 866.05 304.83 861.38 304.42C847.79 303.18 843.47 299.78 842.07 289.19C841.84 287.64 841.73 276.77 841.66 252L841.56 217H808L808.07 257.03Z" fill="#8795A1"/>
<path d="M970.39 273.21V329.42H1003.07V287.42C1003.07 253.92 1003.15 245.42 1003.41 245.49C1003.67 245.56 1018.49 264.49 1036.53 287.49L1069.37 329.42H1119.37V217.03H1086.61V259.03C1086.61 292.48 1086.53 301.03 1086.3 301.03C1086.07 301.03 1071.38 282.14 1053.55 259.03L1021.13 217.03H970.39V273.21Z" fill="#8795A1"/>
<path d="M1142.54 273.21V329.42H1175.54V298.21H1194.67C1214.8 298.21 1223.89 298.47 1228.51 299.11C1234.15 299.91 1237.51 301.22 1239.67 303.49C1242.84 306.84 1243.56 310.49 1243.56 322.87V329.42H1276.56V317.72C1276.56 305.22 1276.35 301.85 1275.4 298.01C1273.72 291.41 1270.25 288.42 1262 286.46C1259.89 285.94 1257.88 285.46 1257.57 285.46C1256.49 285.25 1256.95 284.97 1259.48 284.2C1268.76 281.42 1273.6 276.06 1275.77 266.2C1276.41 263.2 1276.44 262.9 1276.44 253.31C1276.44 242.69 1276.23 240.48 1274.87 235.66C1271.87 225.22 1264.07 219.99 1248.61 218.01C1242.06 217.19 1237.5 217.11 1190.19 217.11H1142.54V273.29V273.21ZM1225.81 242.03C1228.62 242.18 1231.87 242.47 1233.1 242.67C1238.41 243.6 1241.1 245.48 1242.1 249.09C1243.1 252.41 1243.03 263.16 1241.97 266.54C1240.73 270.54 1237.59 272.36 1230.24 273.24C1228.77 273.42 1218.24 273.58 1201.71 273.65L1175.48 273.78V241.78H1198.11C1210.57 241.77 1223.02 241.9 1225.8 242.03H1225.81Z" fill="#8795A1"/>
<path d="M1298.45 273.21V329.42H1421.89V303.88H1331.44V284.55H1415.2V261.1H1331.44V241.77H1419.83V217.03H1298.45V273.21Z" fill="#8795A1"/>
<path d="M1489.72 217.86C1488.95 219.17 1429.72 328.47 1429.47 328.96C1429.22 329.45 1430.47 329.4 1447.17 329.4H1465.07L1470.17 319.35L1475.27 309.3H1545.99L1551.17 319.3L1556.32 329.3L1574.44 329.38L1592.52 329.42L1591.07 326.61C1590.25 325.06 1576.48 299.78 1560.45 270.43L1531.33 217.06H1510.79H1490.24L1489.72 217.86ZM1522.37 263.29L1533.89 285.71L1522.22 285.79C1515.8 285.79 1505.29 285.79 1498.87 285.79L1487.2 285.71L1498.67 263.21C1506.53 247.8 1510.24 240.74 1510.5 240.79C1510.76 240.84 1516.07 250.95 1522.37 263.29Z" fill="#8795A1"/>
<path d="M1604.87 273.21V329.42H1714.14V303.42H1638.37V217.03H1604.87V273.21Z" fill="#8795A1"/>
<path d="M1230.07 365.47C1211.75 366.58 1205.15 371.01 1203.07 383.47C1201.86 390.76 1201.83 407.02 1203.07 414.19C1203.89 419.03 1205.34 422.41 1207.68 424.94C1212.01 429.58 1218.22 431.46 1231.68 432.21C1238.1 432.55 1259.77 432.36 1263.68 431.95C1273.03 430.89 1277.85 429.22 1281.2 425.87C1285.32 421.75 1286.2 417.44 1286.2 401.44V394.3H1241.5V406.93H1267.07L1266.99 409.69C1266.89 412.14 1266.81 412.6 1266.19 413.69C1264.85 415.98 1262.19 416.83 1254.8 417.27C1246.73 417.76 1233.98 417.42 1230.16 416.65C1228.16 416.289 1226.28 415.46 1224.67 414.23C1223.41 412.8 1222.56 411.054 1222.22 409.18C1221.7 406.78 1221.6 391.91 1222.12 388.92C1222.39 386.853 1223.24 384.905 1224.57 383.3C1226.17 382.018 1228.06 381.158 1230.08 380.8C1234.54 379.8 1252.63 379.67 1258.27 380.52C1263.91 381.37 1265.59 382.76 1266.1 387.17L1266.28 388.66H1285.28V386.91C1285.22 383.776 1284.89 380.654 1284.28 377.58C1283.78 375.297 1282.67 373.194 1281.06 371.5C1278.06 368.3 1273.59 366.73 1264.49 365.7C1261.39 365.34 1235.07 365.16 1230.07 365.47Z" fill="#8795A1"/>
<path d="M1020.12 398.85V431.71H1092.54V416.76H1039.45V405.42H1088.67V391.76H1039.45V380.42H1091.25V365.99H1020.12V398.85V398.85Z" fill="#8795A1"/>
<path d="M1102.85 398.85V431.71H1122.18L1122.23 407.05L1122.31 382.42L1141.54 407.03L1160.74 431.62L1175.48 431.7L1190.22 431.75V365.99H1170.88V390.63C1170.88 404.75 1170.78 415.19 1170.65 415.11C1170.52 415.03 1161.91 403.95 1151.53 390.47L1132.64 365.99H1102.85V398.85V398.85Z" fill="#8795A1"/>
<path d="M1297.94 398.85V431.71H1317.78V365.99H1297.94V398.85V398.85Z" fill="#8795A1"/>
<path d="M1330.92 398.85V431.71H1350.25L1350.3 407.05L1350.38 382.42L1369.61 407.03L1388.81 431.62L1403.55 431.7L1418.29 431.75V365.99H1398.96V390.63C1398.96 404.75 1398.86 415.19 1398.73 415.11C1398.6 415.03 1389.99 403.95 1379.61 390.47L1360.72 365.99H1330.92V398.85V398.85Z" fill="#8795A1"/>
<path d="M1431.69 398.85V431.71H1504.07V416.76H1451.01V405.42H1500.23V391.76H1451.01V380.42H1502.81V365.99H1431.69V398.85V398.85Z" fill="#8795A1"/>
</svg>
